<svg version="1.1" viewBox="0.0 0.0 512.0 512.0" fill="none" stroke="none" stroke-linecap="square" stroke-miterlimit="10" xmlns:xlink="http://www.w3.org/1999/xlink" xmlns="http://www.w3.org/2000/svg"><clipPath id="p.0"><path d="m0 0l512.0 0l0 512.0l-512.0 0l0 -512.0z" clip-rule="nonzero"/></clipPath><g clip-path="url(#p.0)"><path fill="#000000" fill-opacity="0.0" d="m0 0l512.0 0l0 512.0l-512.0 0z" fill-rule="evenodd"/><path fill="#ffffff" d="m7.148464 256.08392l0 0c0 -137.39279 111.41412 -248.77165 248.85039 -248.77165l0 0c65.99922 0 129.2953 26.209793 175.96379 72.86353c46.668518 46.653732 72.8866 109.92977 72.8866 175.90811l0 0c0 137.39279 -111.41409 248.77167 -248.85039 248.77167l0 0c-137.43628 0 -248.85039 -111.378876 -248.85039 -248.77167z" fill-rule="evenodd"/><path stroke="#000000" stroke-width="8.530183727034121" stroke-linejoin="round" stroke-linecap="butt" d="m7.148464 256.08392l0 0c0 -137.39279 111.41412 -248.77165 248.85039 -248.77165l0 0c65.99922 0 129.2953 26.209793 175.96379 72.86353c46.668518 46.653732 72.8866 109.92977 72.8866 175.90811l0 0c0 137.39279 -111.41409 248.77167 -248.85039 248.77167l0 0c-137.43628 0 -248.85039 -111.378876 -248.85039 -248.77167z" fill-rule="evenodd"/><path fill="#000000" fill-opacity="0.0" d="m23.18195 256.11295l0 0c0 -128.57364 104.25772 -232.80316 232.86615 -232.80316l0 0c61.75995 0 120.99036 24.527405 164.66122 68.18646c43.670868 43.659058 68.204926 102.87346 68.204926 164.6167l0 0c0 128.57361 -104.25772 232.80313 -232.86615 232.80313l0 0c-128.60843 0 -232.86615 -104.22952 -232.86615 -232.80313z" fill-rule="evenodd"/><path stroke="#000000" stroke-width="4.26771653543307" stroke-linejoin="round" stroke-linecap="butt" d="m23.18195 256.11295l0 0c0 -128.57364 104.25772 -232.80316 232.86615 -232.80316l0 0c61.75995 0 120.99036 24.527405 164.66122 68.18646c43.670868 43.659058 68.204926 102.87346 68.204926 164.6167l0 0c0 128.57361 -104.25772 232.80313 -232.86615 232.80313l0 0c-128.60843 0 -232.86615 -104.22952 -232.86615 -232.80313z" fill-rule="evenodd"/><path fill="#000000" fill-opacity="0.0" d="m591.93445 259.11557l0 0c0 -129.55644 105.026245 -234.58269 234.5827 -234.58269l0 0c62.21521 0 121.8822 24.71489 165.875 68.70767c43.992737 43.99279 68.7077 103.65981 68.7077 165.875l0 0c0 129.55643 -105.026306 234.58267 -234.5827 234.58267l0 0c-129.55646 0 -234.5827 -105.026245 -234.5827 -234.58267z" fill-rule="evenodd"/><path stroke="#000000" stroke-width="4.299212598425197" stroke-linejoin="round" stroke-linecap="butt" d="m591.93445 259.11557l0 0c0 -129.55644 105.026245 -234.58269 234.5827 -234.58269l0 0c62.21521 0 121.8822 24.71489 165.875 68.70767c43.992737 43.99279 68.7077 103.65981 68.7077 165.875l0 0c0 129.55643 -105.026306 234.58267 -234.5827 234.58267l0 0c-129.55646 0 -234.5827 -105.026245 -234.5827 -234.58267z" fill-rule="evenodd"/><path fill="#000000" fill-opacity="0.0" d="m575.8082 259.13107l0 0c0 -138.47125 112.253174 -250.7244 250.72443 -250.7244l0 0c66.49628 0 130.26898 26.415531 177.28894 73.43548c47.01996 47.01995 73.435486 110.79269 73.435486 177.28891l0 0c0 138.47128 -112.253174 250.72443 -250.72443 250.72443l0 0c-138.47125 0 -250.72443 -112.25314 -250.72443 -250.72443z" fill-rule="evenodd"/><path stroke="#000000" stroke-width="8.595800524934383" stroke-linejoin="round" stroke-linecap="butt" d="m575.8082 259.13107l0 0c0 -138.47125 112.253174 -250.7244 250.72443 -250.7244l0 0c66.49628 0 130.26898 26.415531 177.28894 73.43548c47.01996 47.01995 73.435486 110.79269 73.435486 177.28891l0 0c0 138.47128 -112.253174 250.72443 -250.72443 250.72443l0 0c-138.47125 0 -250.72443 -112.25314 -250.72443 -250.72443z" fill-rule="evenodd"/><path fill="#000000" fill-opacity="0.0" d="m631.2283 332.11905l390.7716 0l0 114.99213l-390.7716 0z" fill-rule="evenodd"/><path fill="#000000" d="m711.3418 431.93832q-19.59375 0 -30.203125 -10.6875q-10.609375 -10.703125 -10.609375 -32.390625q0 -21.6875 11.0625 -32.28125q11.078125 -10.609375 32.875 -10.609375l12.671875 0q13.046875 0 23.78125 6.390625q10.734375 6.375 10.734375 16.375q0 4.28125 -2.59375 6.171875q-2.59375 1.890625 -5.0625 1.890625l-6.765625 0q-5.96875 0 -8.875 -5.5625q-2.890625 -5.5625 -13.203125 -5.5625l-10.109375 0q-11.59375 0 -15.546875 4.765625q-3.9375 4.75 -3.9375 18.4375q0 13.6875 3.53125 18.5625q3.53125 4.859375 12.828125 4.859375l11.640625 0q8.453125 0 11.8125 -3.0q3.359375 -3.0 3.4375 -6.890625l-11.0 0q-2.953125 0 -5.046875 -2.09375q-2.09375 -2.09375 -2.09375 -5.046875l0 -4.4375q0 -2.96875 2.09375 -5.046875q2.09375 -2.09375 5.046875 -2.09375l28.515625 0q2.96875 0 5.046875 2.09375q2.09375 2.078125 2.09375 5.046875l0 6.3125q0 16.703125 -10.109375 25.75q-10.09375 9.046875 -29.234375 9.046875l-12.78125 0zm56.21942 -78.140625q-0.515625 -1.046875 -0.515625 -2.40625q0 -1.375 1.546875 -3.171875q1.546875 -1.796875 4.296875 -1.796875l12.4375 0q5.625 0 8.421875 6.484375l20.3125 45.25l20.328125 -45.25q2.796875 -6.40625 8.390625 -6.484375l12.453125 0q2.828125 0 4.328125 1.8125q1.515625 1.796875 1.515625 3.125q0 1.328125 -0.4375 2.375l-32.71875 70.90625q-3.15625 6.84375 -9.765625 6.84375l-8.171875 0q-6.609375 0 -9.765625 -6.84375l-32.65625 -70.84375zm102.83453 70.421875l0 -70.46875q0 -3.0625 2.046875 -5.1875q2.0625 -2.140625 5.046875 -2.140625l23.109375 0q2.859375 0 5.296875 1.96875q2.453125 1.96875 3.296875 4.6875l15.03125 43.5l15.03125 -43.5q0.8125 -2.71875 3.265625 -4.6875q2.46875 -1.96875 5.328125 -1.96875l23.109375 0q2.984375 0 5.0 2.140625q2.03125 2.140625 2.03125 5.1875l0 70.46875q0 3.078125 -2.09375 5.171875q-2.09375 2.09375 -5.0625 2.09375l-10.21875 0q-2.953125 0 -5.046875 -2.09375q-2.09375 -2.09375 -2.09375 -5.171875l1.8125 -55.484375l-18.34375 56.453125q-0.984375 2.59375 -3.4375 4.453125q-2.4375 1.84375 -5.25 1.84375l-8.125 0q-2.84375 0 -5.234375 -1.84375q-2.390625 -1.84375 -3.4375 -4.421875l-18.296875 -56.484375l1.8125 55.484375q0 3.078125 -2.09375 5.171875q-2.09375 2.09375 -5.0625 2.09375l-10.21875 0q-2.96875 0 -5.09375 -2.078125q-2.109375 -2.09375 -2.109375 -5.1875z" fill-rule="nonzero"/><path fill="#000000" d="m122.36573 332.14963l0 0c0 -2.046997 1.6594315 -3.7064514 3.7064438 -3.7064514l255.86322 0c0.9830017 0 1.9257507 0.39050293 2.6208496 1.0856018c0.6950989 0.6950989 1.0856018 1.6378479 1.0856018 2.6208496l0 0l0 0c0 2.0470276 -1.6594238 3.7064514 -3.7064514 3.7064514l-255.86322 0c-2.0470123 0 -3.7064438 -1.6594238 -3.7064438 -3.7064514z" fill-rule="evenodd"/><path stroke="#000000" stroke-width="1.073490813648294" stroke-linejoin="round" stroke-linecap="butt" d="m122.36573 332.14963l0 0c0 -2.046997 1.6594315 -3.7064514 3.7064438 -3.7064514l255.86322 0c0.9830017 0 1.9257507 0.39050293 2.6208496 1.0856018c0.6950989 0.6950989 1.0856018 1.6378479 1.0856018 2.6208496l0 0l0 0c0 2.0470276 -1.6594238 3.7064514 -3.7064514 3.7064514l-255.86322 0c-2.0470123 0 -3.7064438 -1.6594238 -3.7064438 -3.7064514z" fill-rule="evenodd"/><path fill="#000000" d="m51.82344 307.12973l0 0c-0.4576645 -2.4354248 1.1495323 -4.759369 3.5897713 -5.190674l394.78516 -69.7767c1.1718445 -0.2071228 2.3829956 0.05883789 3.367035 0.7393646c0.9840088 0.680542 1.6603088 1.7198944 1.8800964 2.8894348l0.98831177 5.259247c0.45767212 2.43544 -1.1495361 4.759384 -3.5897827 5.190689l-394.78516 69.7767c-2.440239 0.43130493 -4.7894554 -1.1933594 -5.24712 -3.6288147z" fill-rule="evenodd"/><path stroke="#000000" stroke-width="8.595800524934383" stroke-linejoin="round" stroke-linecap="butt" d="m51.82344 307.12973l0 0c-0.4576645 -2.4354248 1.1495323 -4.759369 3.5897713 -5.190674l394.78516 -69.7767c1.1718445 -0.2071228 2.3829956 0.05883789 3.367035 0.7393646c0.9840088 0.680542 1.6603088 1.7198944 1.8800964 2.8894348l0.98831177 5.259247c0.45767212 2.43544 -1.1495361 4.759384 -3.5897827 5.190689l-394.78516 69.7767c-2.440239 0.43130493 -4.7894554 -1.1933594 -5.24712 -3.6288147z" fill-rule="evenodd"/><path fill="#000000" fill-opacity="0.0" d="m217.96608 332.9077l31.784042 -51.5856" fill-rule="evenodd"/><path stroke="#000000" stroke-width="8.595800524934383" stroke-linejoin="round" stroke-linecap="butt" d="m217.96608 332.9077l31.784042 -51.5856" fill-rule="evenodd"/><path fill="#000000" d="m258.55927 331.33655l0 -49.41925l30.97168 49.41925z" fill-rule="evenodd"/><path stroke="#000000" stroke-width="8.595800524934383" stroke-linejoin="round" stroke-linecap="butt" d="m258.55927 331.33655l0 -49.41925l30.97168 49.41925z" fill-rule="evenodd"/><path fill="#000000" d="m135.73586 219.94608l0 0c0 -5.983124 4.850281 -10.83342 10.83342 -10.83342l67.80426 0c2.8732147 0 5.6287384 1.1413727 7.660385 3.1730347c2.031662 2.031662 3.1730347 4.7871857 3.1730347 7.660385l0 0l0 0c0 5.983139 -4.850281 10.83342 -10.83342 10.83342l-67.80426 0c-5.983139 0 -10.83342 -4.850281 -10.83342 -10.83342z" fill-rule="evenodd"/><path stroke="#000000" stroke-width="1.8188976377952755" stroke-linejoin="round" stroke-linecap="butt" d="m135.73586 219.94608l0 0c0 -5.983124 4.850281 -10.83342 10.83342 -10.83342l67.80426 0c2.8732147 0 5.6287384 1.1413727 7.660385 3.1730347c2.031662 2.031662 3.1730347 4.7871857 3.1730347 7.660385l0 0l0 0c0 5.983139 -4.850281 10.83342 -10.83342 10.83342l-67.80426 0c-5.983139 0 -10.83342 -4.850281 -10.83342 -10.83342z" fill-rule="evenodd"/><path fill="#000000" d="m180.4714 175.20807l0 0c5.9828033 0 10.832825 4.8500214 10.832825 10.832825l0 67.81038c0 2.8730316 -1.1413116 5.6284027 -3.1728668 7.659958c-2.03154 2.0315552 -4.786911 3.1728516 -7.659958 3.1728516l0 0l0 0c-5.9828033 0 -10.832825 -4.850006 -10.832825 -10.832809l0 -67.81038c0 -5.9828033 4.8500214 -10.832825 10.832825 -10.832825z" fill-rule="evenodd"/><path stroke="#000000" stroke-width="1.8188976377952755" stroke-linejoin="round" stroke-linecap="butt" d="m180.4714 175.20807l0 0c5.9828033 0 10.832825 4.8500214 10.832825 10.832825l0 67.81038c0 2.8730316 -1.1413116 5.6284027 -3.1728668 7.659958c-2.03154 2.0315552 -4.786911 3.1728516 -7.659958 3.1728516l0 0l0 0c-5.9828033 0 -10.832825 -4.850006 -10.832825 -10.832809l0 -67.81038c0 -5.9828033 4.8500214 -10.832825 10.832825 -10.832825z" fill-rule="evenodd"/><path fill="#000000" d="m281.53024 205.0358l0 0c0 -5.9838104 4.85083 -10.834656 10.834656 -10.834656l67.811035 0c2.8735046 0 5.6293335 1.14151 7.6612244 3.1734009c2.0318909 2.0318909 3.1734009 4.7877197 3.1734009 7.661255l0 0l0 0c0 5.9838104 -4.85083 10.8346405 -10.834625 10.8346405l-67.811035 0c-5.9838257 0 -10.834656 -4.85083 -10.834656 -10.8346405z" fill-rule="evenodd"/><path stroke="#000000" stroke-width="1.8188976377952755" stroke-linejoin="round" stroke-linecap="butt" d="m281.53024 205.0358l0 0c0 -5.9838104 4.85083 -10.834656 10.834656 -10.834656l67.811035 0c2.8735046 0 5.6293335 1.14151 7.6612244 3.1734009c2.0318909 2.0318909 3.1734009 4.7877197 3.1734009 7.661255l0 0l0 0c0 5.9838104 -4.85083 10.8346405 -10.834625 10.8346405l-67.811035 0c-5.9838257 0 -10.834656 -4.85083 -10.834656 -10.8346405z" fill-rule="evenodd"/><path fill="#000000" fill-opacity="0.0" d="m606.6457 159.94626l53.022095 -67.054504l58.484802 58.490753l-53.022156 67.05452z" fill-rule="evenodd"/><path fill="#000000" d="m662.1794 190.12639l-30.744629 -30.747742q-1.2791748 -1.2793121 -1.427063 -3.183136q-0.14935303 -1.9272003 0.9845581 -3.3611908l16.417297 -20.762161q13.703674 -17.33039 28.263977 -2.7686005q14.560303 14.561798 0.8566284 31.892197l-9.613892 12.158234l4.760742 4.7612305q1.3013916 1.3015594 1.4091187 3.231018q0.10626221 1.9060974 -1.0082397 3.315567l-4.0510254 5.1231384q-1.114502 1.4094696 -2.8295898 1.5379181q-1.7164917 0.10508728 -3.0178833 -1.1964722zm-3.8391724 -25.349274l7.1619873 -9.057404q3.411377 -4.3142242 3.8271484 -7.5858307q0.41571045 -3.2716064 -3.1437378 -6.8314056q-3.5594482 -3.5597992 -6.4000244 -2.7133026q-2.8405762 0.84651184 -6.251953 5.160721l-7.1619873 9.057404l11.968567 11.969818z" fill-rule="nonzero"/><path fill="#000000" fill-opacity="0.0" d="m660.24536 92.18626l68.18103 -46.67752l40.6969 75.17822l-68.18103 46.67753z" fill-rule="evenodd"/><path fill="#000000" d="m749.6251 110.36999q1.2415161 2.2934036 -1.1307983 3.9175186l-6.8720093 4.704628q-1.3408203 0.917984 -3.3728638 0.98360443q-2.0394897 0.05181122 -3.5813599 -0.80513763l-9.286133 -4.814766q-5.2088623 -2.7017288 -8.973633 -0.12432861l-6.0596924 4.148552l6.603943 12.199257q0.875 1.6164246 0.41815186 3.4819336q-0.45141602 1.842865 -1.934082 2.8579254l-5.389282 3.6895752q-1.482727 1.0150604 -3.1715088 0.6374359q-1.6834106 -0.40026855 -2.5584717 -2.0167084l-20.671875 -38.186554q-0.8601074 -1.5888062 -0.44940186 -3.4416428q0.41607666 -1.8754807 1.9245605 -2.9082108l23.620056 -16.170525q6.8848267 -4.713463 13.555481 -3.7509766q6.6706543 0.96248627 10.387695 7.828888q5.2651978 9.726242 -3.656372 18.087433q0.15570068 -0.5610733 2.6655884 0.12548828q2.5098877 0.6865616 6.199341 2.5727844l10.03064 5.30867q1.1710205 0.69423676 1.7020264 1.6751556zm-45.042786 -2.6418228l11.268494 -7.714546q2.7333374 -1.8712616 4.0527344 -4.2325974q1.3322754 -2.3701553 0.16552734 -4.525406q-1.1741943 -2.1690598 -3.6582642 -1.9265137q-2.4711304 0.23371124 -5.204468 2.1049728l-11.268494 7.714546l4.64447 8.579544z" fill-rule="nonzero"/><path fill="#000000" fill-opacity="0.0" d="m729.17926 45.118176l77.60419 -20.850872l18.299988 85.63751l-77.60419 20.850876z" fill-rule="evenodd"/><path fill="#000000" d="m802.1843 91.61858q-5.81604 8.325554 -19.47229 11.994759q-13.656311 3.6692047 -22.235962 -0.78848267q-8.564514 -4.461746 -11.49408 -18.17115q-2.9296265 -13.709396 2.908081 -22.008415q5.8494873 -8.318367 19.505798 -11.987572q13.656311 -3.6692047 22.202454 0.7812958q8.542908 4.4351997 11.472473 18.1446q2.9296265 13.709404 -2.8864746 22.034966zm-17.427551 -28.614235q-3.8911743 -2.9022179 -10.953186 -1.004776q-7.046997 1.8933907 -9.372803 6.466011q-2.310669 4.5685654 -0.66937256 12.249496q1.6381226 7.665642 5.5411377 10.5485q3.914856 2.8635101 10.961792 0.9701233q7.0620117 -1.8974457 9.364197 -6.4313583q2.3139648 -4.553261 0.6759033 -12.218895q-1.6413574 -7.6809387 -5.5476685 -10.579102z" fill-rule="nonzero"/><path fill="#000000" fill-opacity="0.0" d="m799.88995 23.099737l79.65265 4.806532l-4.062866 87.93924l-79.65265 -4.806534z" fill-rule="evenodd"/><path fill="#000000" d="m821.9843 81.470215l5.7886963 0.975441l2.4331055 0.1468277q4.3826294 0.26446533 6.2838745 -1.2800751q1.9019775 -1.5601425 2.0960083 -5.7592087l1.2923584 -27.972942q0.08294678 -1.7951393 1.4061279 -3.0145264q1.3394775 -1.2340584 3.1643066 -1.1239433l6.4414062 0.38869858q1.887207 0.11388016 3.1055298 1.5022888q1.2346802 1.3737373 1.1517334 3.1688766l-1.2873535 27.863674q-0.4348755 9.412773 -6.925659 14.155418q-6.4752197 4.7435837 -16.940552 4.112068l-9.794678 -0.5910492q-1.8092041 -0.109176636 -3.0289917 -1.466362q-1.2197876 -1.3571854 -1.1361084 -3.1679306l0.18103027 -3.9180908q0.08294678 -1.7951355 1.3742065 -3.000801q1.3068237 -1.2047195 3.1940308 -1.0908356l1.2009277 0.07247162z" fill-rule="nonzero"/><path fill="#000000" fill-opacity="0.0" d="m1057.0604 178.94415l-48.720337 -71.11637l-62.035522 53.81962l48.720276 71.11638z" fill-rule="evenodd"/><path fill="#000000" d="m1000.981 136.15074l2.482788 -2.1539917q1.4255371 -1.2367401 3.1030884 -1.0274353q1.6775513 0.20930481 2.7372437 1.756134l24.885193 36.32463q1.0596924 1.546814 0.81274414 3.4257202q-0.24694824 1.8789062 -1.6724854 3.1156464l-2.482788 2.1539917q-1.4373779 1.247055 -3.1030273 1.0274353q-1.6538086 -0.22991943 -2.713501 -1.7767487l-8.11554 -11.8461l-27.085205 23.498062q-1.3779907 1.1955109 -3.0612793 0.950119q-1.6626587 -0.24281311 -2.6781616 -1.7251892l-3.7089233 -5.4138794q-1.015564 -1.4823761 -0.8012085 -3.3535614q0.22619629 -1.8815002 1.604248 -3.077011l27.085205 -23.498062l-8.124329 -11.858994q-1.0596924 -1.5468292 -0.83654785 -3.4051208q0.23504639 -1.8686066 1.6724854 -3.1156464z" fill-rule="nonzero"/><path fill="#000000" fill-opacity="0.0" d="m1009.4146 108.18429l-65.142395 -51.856388l-45.271973 71.86105l65.142456 51.856384z" fill-rule="evenodd"/><path fill="#000000" d="m927.17236 121.46923q-1.8242188 -9.720215 5.3150635 -21.05252q7.147644 -11.345596 15.918396 -12.651764q8.770691 -1.30616 19.198303 6.99469l6.0512085 4.817024q6.4301147 5.118698 9.128784 12.838951q2.7070923 7.7069473 -1.432373 14.27755q-1.399353 2.2212372 -3.2663574 2.212906q-1.8669434 -0.008346558 -3.0405273 -0.94255066l-3.227295 -2.5690842q-3.0439453 -2.4231033 -2.2816772 -7.50811q0.82507324 -5.5343018 -3.2946167 -8.813774l-4.8287354 -3.8438873q-5.537781 -4.4083023 -8.99115 -3.4427109q-3.441162 0.9753189 -7.94928 8.131165q-4.5081177 7.155838 -4.2008667 11.155022q0.32788086 3.9956207 5.8656006 8.403923l5.4032593 4.3012695q4.119751 3.2794647 8.453247 0.5380554q4.0269165 -2.5460968 7.119751 -0.08406067l3.227295 2.5690765q1.6992188 1.3526611 1.8102417 3.4781342q0.1194458 2.112152 -0.84417725 3.6417542q-4.1310425 6.5572968 -11.484863 6.2553406q-7.333191 -0.30552673 -13.763367 -5.424225l-6.6257324 -5.274399q-10.415344 -8.291122 -12.260132 -18.007774z" fill-rule="nonzero"/><path fill="#000000" fill-opacity="0.0" d="m943.56555 55.822075l-76.10187 -26.90981l-23.59198 83.97891l76.10193 26.909813z" fill-rule="evenodd"/><path fill="#000000" d="m866.65753 97.21075l11.705872 -41.668743q0.49554443 -1.7638359 2.0570068 -2.5375328q1.5805054 -0.7835655 3.2745361 -0.18453217l37.711792 13.334969q1.7235718 0.6094513 2.5610352 2.2977219q0.8564453 1.6784058 0.36938477 3.412094l-0.88513184 3.1507797q-0.4869995 1.7336884 -2.0465088 2.5578156q-1.5404663 0.81427 -3.264038 0.20481873l-27.429443 -9.699104l-2.1344604 7.5980606l23.481445 8.303101q1.6940918 0.5990372 2.5547485 2.2623596q0.8607178 1.6633301 0.37365723 3.3970184l-0.88513184 3.1507797q-0.49127197 1.748764 -2.0465088 2.5578232q-1.5552368 0.8090515 -3.2493286 0.21002197l-23.481506 -8.303101l-2.1726074 7.7337418l27.370544 9.678268q1.6646118 0.5886154 2.5147705 2.231659q0.8501587 1.6430435 0.36315918 3.3767319l-0.9020996 3.2110825q-0.4954834 1.7638397 -2.0654907 2.567688q-1.5657349 0.7887726 -3.2745361 0.18453217l-37.549744 -13.277672q-1.6940918 -0.5990372 -2.58844 -2.2577057q-0.87542725 -1.668541 -0.36297607 -3.4926758z" fill-rule="nonzero"/><path fill="#000000" fill-opacity="0.0" d="m26.886593 190.8792l40.149555 -70.8204l63.6922 42.678047l-40.14956 70.820404z" fill-rule="evenodd"/><path fill="#000000" d="m84.81508 213.17091l-39.284073 -26.322983q-1.6270752 -1.0902405 -2.1411705 -3.0664978q-0.5140915 -1.9762573 0.47226715 -3.7161102l14.248276 -25.132751q11.897961 -20.987 30.498676 -8.52327q18.587692 12.455002 6.689728 33.442l-8.353233 14.73439l6.0917664 4.081894q1.6531067 1.1076965 2.1257553 3.093689q0.47264862 1.9860077 -0.49830627 3.6986694l-3.5139008 6.198242q-0.97865295 1.7262573 -2.8306656 2.1733398q-1.8520126 0.44706726 -3.5051193 -0.660614zm-8.803467 -25.911697l6.2263947 -10.982834q2.959076 -5.2195587 2.8279953 -8.758514q-0.14409637 -3.5476837 -4.6868896 -6.5916595q-4.555809 -3.0526886 -7.5226746 -1.5895691q-2.9798813 1.4544067 -5.938957 6.6739655l-6.2263985 10.982834l15.32053 10.265778z" fill-rule="nonzero"/><path fill="#000000" fill-opacity="0.0" d="m67.46505 119.324165l57.392555 -54.97808l49.335007 61.13891l-57.392555 54.97808z" fill-rule="evenodd"/><path fill="#000000" d="m159.51523 120.09983q1.7824402 2.2089005 -0.4855194 4.381439l-6.5668945 6.290642q-1.2750244 1.2213745 -3.4775543 1.6651764q-2.191269 0.43301392 -4.030487 -0.1852417l-11.001938 -3.3953094q-6.1713257 -1.9209976 -9.770706 1.5269623l-5.8109207 5.566452l9.503029 11.776733q1.2506561 1.549881 1.1228943 3.5980072q-0.1277771 2.048111 -1.5494766 3.4100037l-5.1452026 4.9287415q-1.4329834 1.3726959 -3.3249283 1.2593231q-1.8919449 -0.113357544 -3.142601 -1.6632538l-29.72036 -36.831253q-1.2309647 -1.5254822 -1.1454544 -3.5763855q0.085510254 -2.0509033 1.5297775 -3.43441l22.566673 -21.617302q6.578186 -6.301445 13.995987 -6.5048904q7.4192276 -0.22646332 12.766533 6.400238q7.563034 9.372566 -0.5430603 19.928848q0.08102417 -0.61854553 2.9392548 -0.34895325q2.859665 0.24658966 7.221298 1.5859528l11.890472 3.777481q1.4209137 0.52130127 2.179184 1.4609985zm-49.416084 5.598877l10.786865 -10.333069q2.606453 -2.4967957 3.5958633 -5.2621155q0.97956085 -2.7775192 -0.7043915 -4.86438q-1.68396 -2.0868607 -4.3277817 -1.3717957q-2.6536713 0.7028656 -5.260124 3.1996613l-10.786865 10.3330765l6.696434 8.298622z" fill-rule="nonzero"/><path fill="#000000" fill-opacity="0.0" d="m125.51984 63.838505l70.051636 -33.182045l29.765244 74.73813l-70.05162 33.182053z" fill-rule="evenodd"/><path fill="#000000" d="m204.84393 94.99541q-4.6872253 10.1041565 -18.638702 16.712692q-13.937347 6.601837 -23.935883 3.454033q-9.998535 -3.1478043 -15.663925 -17.373138q-5.66539 -14.225327 -0.93833923 -24.313774q4.7212677 -10.102989 18.65863 -16.70483q13.951477 -6.608536 23.91597 -3.461895q9.972824 3.1254005 15.638214 17.35073q5.66539 14.225334 0.96403503 24.336182zm-23.912048 -27.505058q-4.709778 -2.385315 -11.925568 1.0326614q-7.2016754 3.411293 -8.846313 8.806564q-1.636322 5.3740387 1.538147 13.344879q3.168686 7.956291 7.8809967 10.305824q4.726425 2.342842 11.928101 -1.0684433q7.21579 -3.4179764 8.8437805 -8.770782q1.6279907 -5.3527985 -1.5406952 -13.309097q-3.174469 -7.9708405 -7.8784485 -10.341606z" fill-rule="nonzero"/><path fill="#000000" fill-opacity="0.0" d="m188.91577 30.867834l75.74295 -10.157911l9.041595 80.92089l-75.74295 10.157913z" fill-rule="evenodd"/><path fill="#000000" d="m216.49156 82.475464l6.379303 -0.16187286l2.6481628 -0.35514832q4.7388306 -0.63552094 6.5197754 -2.7030945q1.7791901 -2.0830994 1.2707062 -6.634018l-3.3963013 -30.3964q-0.2186737 -1.9570503 1.003418 -3.5397873q1.2358551 -1.6003418 3.1871338 -1.86203l6.9843445 -0.9366722q2.028717 -0.27207184 3.5804138 0.95443344q1.565445 1.2088966 1.7841187 3.165947l3.3824158 30.272148q1.1401978 10.204613 -5.004303 16.688248q-6.1307526 6.4660263 -17.482254 7.9883804l-10.623642 1.4247437q-1.9667664 0.26376343 -3.4995117 -0.93375397q-1.5327454 -1.1975174 -1.7531433 -3.170105l-0.47550964 -4.255806q-0.2169342 -1.9415131 0.95869446 -3.5180206q1.1756287 -1.5765076 3.235321 -1.8527298l1.3008575 -0.17446136z" fill-rule="nonzero"/><path fill="#000000" fill-opacity="0.0" d="m454.02194 126.05926l-56.327576 -55.925247l-50.544098 60.367455l56.327576 55.925247z" fill-rule="evenodd"/><path fill="#000000" d="m393.28104 92.23226l2.295227 -2.7413254q1.3187561 -1.5750656 3.1803894 -1.6643372q1.8616333 -0.089279175 3.3252563 1.3638992l34.106934 33.86329q1.4525146 1.4421616 1.5423889 3.4690018q0.08987427 2.0268326 -1.2288818 3.6018906l-2.295227 2.741333q-1.3288269 1.5870819 -3.1914978 1.6533203q-1.8414917 0.06523132 -3.282959 -1.365921l-11.132416 -11.05291l-25.066467 29.938179q-1.2885437 1.5390015 -3.1522217 1.5821991q-1.863678 0.04321289 -3.2496948 -1.3328857l-5.0783386 -5.0420685q-1.3970947 -1.3871155 -1.5292664 -3.4119263q-0.12109375 -2.013794 1.1674805 -3.5527954l25.066437 -29.938171l-11.132416 -11.05291q-1.4525452 -1.4421616 -1.5736084 -3.4559631q-0.09994507 -2.0148163 1.2288818 -3.6018982z" fill-rule="nonzero"/><path fill="#000000" fill-opacity="0.0" d="m398.7738 70.23304l-68.94794 -35.38801l-32.141083 73.7737l68.94794 35.388z" fill-rule="evenodd"/><path fill="#000000" d="m319.11133 98.2824q-3.7409668 -9.84095 2.0808716 -23.203896q5.821869 -13.362949 15.209595 -16.483051q9.401642 -3.1129684 22.329529 3.5223503l7.5203857 3.8599014q7.9791565 4.0953445 12.319672 11.662262q4.3544006 7.5740433 0.9900818 15.296135q-1.138092 2.6123047 -3.187622 2.9829712q-2.043274 0.35630798 -3.5028687 -0.39283752l-4.0034485 -2.0548096q-3.781067 -1.9406509 -3.8581543 -7.424721q-0.07647705 -5.9930725 -5.1920166 -8.61866l-5.9913025 -3.0750809q-6.8809814 -3.5317001 -10.499664 -1.8237457q-3.6047668 1.7150879 -7.2817383 10.154846q-3.676941 8.439758 -2.6235352 12.580826q1.0735779 4.13385 7.9545593 7.66555l6.700226 3.4389496q5.11557 2.625595 9.397736 -1.1128159q3.965271 -3.479538 7.788025 -1.517479l4.003479 2.054802q2.1129456 1.0844879 2.6205444 3.2769394q0.5076294 2.1924515 -0.28030396 4.0009766q-3.3642883 7.7220917 -11.486664 8.874779q-8.116119 1.1383362 -16.095276 -2.9570084l-8.22934 -4.22377q-12.927856 -6.6353226 -16.68277 -16.483414z" fill-rule="nonzero"/><path fill="#000000" fill-opacity="0.0" d="m329.06897 34.500572l-75.649124 -10.648647l-9.916107 80.851l75.64909 10.6486435z" fill-rule="evenodd"/><path fill="#000000" d="m259.03143 89.074295l5.739563 -46.797443q0.24349976 -1.9854393 1.8015442 -3.1389008q1.5753784 -1.1667976 3.5249329 -0.89237213l43.245514 6.0873985q1.9495544 0.2744217 3.153473 1.8797836q1.2039185 1.6053658 0.9661255 3.5442696l-0.43374634 3.5365677q-0.24160767 1.9699287 -1.7879639 3.1565895q-1.5463562 1.1866646 -3.4959106 0.9122429l-31.48645 -4.432152l-1.0501404 8.56221l26.937561 3.7918282q1.9650269 0.2766037 3.17276 1.8509445q1.2077332 1.5743408 0.9680176 3.5287552l-0.43374634 3.5365677q-0.24160767 1.9699249 -1.7879639 3.1565933q-1.5463562 1.1866608 -3.511383 0.91005707l-26.93753 -3.791832l-1.0672607 8.701813l31.409088 4.4212646q1.9186096 0.2700653 3.1127625 1.8267136q1.1941528 1.5566559 0.9544678 3.5110703l-0.44326782 3.6141205q-0.24160767 1.9699326 -1.8189087 3.152237q-1.577301 1.1823044 -3.5268555 0.9078827l-43.044373 -6.059082q-1.9649963 -0.2766037 -3.188202 -1.8531189q-1.2232361 -1.5765228 -0.97210693 -3.6240082z" fill-rule="nonzero"/><path fill="#000000" fill-opacity="0.0" d="m62.19086 331.1783l387.9685 0l0 114.11023l-387.9685 0z" fill-rule="evenodd"/><path fill="#000000" d="m137.71275 431.72583q-20.140625 0 -31.046875 -10.984375q-10.890625 -11.0 -10.890625 -33.28125q0 -22.28125 11.375 -33.171875q11.375 -10.890625 33.78125 -10.890625l13.0 0q13.421875 0 24.4375 6.5625q11.03125 6.546875 11.03125 16.828125q0 4.375 -2.671875 6.328125q-2.65625 1.953125 -5.1875 1.953125l-6.953125 0q-6.140625 0 -9.125 -5.71875q-2.96875 -5.71875 -13.5625 -5.71875l-10.390625 0q-11.90625 0 -15.96875 4.890625q-4.046875 4.890625 -4.046875 18.953125q0 14.0625 3.625 19.078125q3.625 5.0 13.1875 5.0l11.953125 0q8.6875 0 12.140625 -3.078125q3.46875 -3.09375 3.53125 -7.09375l-11.296875 0q-3.03125 0 -5.1875 -2.140625q-2.15625 -2.15625 -2.15625 -5.203125l0 -4.546875q0 -3.046875 2.15625 -5.1875q2.15625 -2.15625 5.1875 -2.15625l29.296875 0q3.046875 0 5.1875 2.15625q2.15625 2.140625 2.15625 5.1875l0 6.46875q0 17.171875 -10.390625 26.46875q-10.375 9.296875 -30.03125 9.296875l-13.140625 0zm57.793854 -80.28125q-0.546875 -1.0625 -0.546875 -2.484375q0 -1.421875 1.59375 -3.25q1.59375 -1.84375 4.421875 -1.84375l12.765625 0q5.78125 0 8.65625 6.65625l20.875 46.5l20.875015 -46.5q2.875 -6.578125 8.640625 -6.65625l12.78125 0q2.90625 0 4.453125 1.84375q1.5625 1.84375 1.5625 3.21875q0 1.375 -0.453125 2.453125l-33.625 72.84375q-3.2500153 7.03125 -10.031265 7.03125l-8.40625 0q-6.78125 0 -10.03125 -7.03125l-33.53125 -72.78125zm105.65578 72.34375l0 -72.40625q0 -3.140625 2.109375 -5.328125q2.125 -2.1875 5.171875 -2.1875l23.74997 0q2.9375 0 5.453125 2.015625q2.515625 2.015625 3.375 4.8125l15.453125 44.703125l15.4375 -44.703125q0.859375 -2.796875 3.375 -4.8125q2.53125 -2.015625 5.453125 -2.015625l23.75 0q3.078125 0 5.15625 2.203125q2.078125 2.1875 2.078125 5.3125l0 72.40625q0 3.171875 -2.15625 5.328125q-2.15625 2.140625 -5.1875 2.140625l-10.515625 0q-3.03125 0 -5.1875 -2.140625q-2.15625 -2.15625 -2.15625 -5.328125l1.859375 -57.0l-18.84375 58.0q-1.015625 2.671875 -3.53125 4.578125q-2.5 1.890625 -5.390625 1.890625l-8.34375 0q-2.921875 0 -5.375 -1.890625q-2.453125 -1.890625 -3.53125 -4.5625l-18.8125 -58.015625l1.859375 57.0q0 3.171875 -2.15625 5.328125q-2.140625 2.140625 -5.1875 2.140625l-10.4999695 0q-3.046875 0 -5.234375 -2.140625q-2.171875 -2.140625 -2.171875 -5.328125z" fill-rule="nonzero"/></g></svg>