<svg version="1.1" viewBox="0.0 0.0 512.0 512.0" fill="none" stroke="none" stroke-linecap="square" stroke-miterlimit="10" xmlns:xlink="http://www.w3.org/1999/xlink" xmlns="http://www.w3.org/2000/svg"><clipPath id="p.0"><path d="m0 0l512.0 0l0 512.0l-512.0 0l0 -512.0z" clip-rule="nonzero"/></clipPath><g clip-path="url(#p.0)"><path fill="#000000" fill-opacity="0.0" d="m0 0l512.0 0l0 512.0l-512.0 0z" fill-rule="evenodd"/><path fill="#000000" fill-opacity="0.0" d="m21.406902 255.98958l0 0c0 -129.55643 105.026245 -234.58267 234.58267 -234.58267l0 0c62.215195 0 121.88222 24.71489 165.87502 68.70767c43.992767 43.992783 68.70767 103.659805 68.70767 165.875l0 0c0 129.55644 -105.026245 234.58269 -234.58269 234.58269l0 0c-129.55643 0 -234.58267 -105.026245 -234.58267 -234.58269z" fill-rule="evenodd"/><path stroke="#000000" stroke-width="4.299212598425197" stroke-linejoin="round" stroke-linecap="butt" d="m21.406902 255.98958l0 0c0 -129.55643 105.026245 -234.58267 234.58267 -234.58267l0 0c62.215195 0 121.88222 24.71489 165.87502 68.70767c43.992767 43.992783 68.70767 103.659805 68.70767 165.875l0 0c0 129.55644 -105.026245 234.58269 -234.58269 234.58269l0 0c-129.55643 0 -234.58267 -105.026245 -234.58267 -234.58269z" fill-rule="evenodd"/><path fill="#000000" fill-opacity="0.0" d="m5.280694 256.0051l0 0c0 -138.47125 112.25314 -250.7244 250.7244 -250.7244l0 0c66.49625 0 130.26898 26.415531 177.28894 73.43548c47.01996 47.01995 73.435486 110.79268 73.435486 177.28893l0 0c0 138.47128 -112.25314 250.72443 -250.72443 250.72443l0 0c-138.47125 0 -250.7244 -112.25314 -250.7244 -250.72443z" fill-rule="evenodd"/><path stroke="#000000" stroke-width="8.595800524934383" stroke-linejoin="round" stroke-linecap="butt" d="m5.280694 256.0051l0 0c0 -138.47125 112.25314 -250.7244 250.7244 -250.7244l0 0c66.49625 0 130.26898 26.415531 177.28894 73.43548c47.01996 47.01995 73.435486 110.79268 73.435486 177.28893l0 0c0 138.47128 -112.25314 250.72443 -250.72443 250.72443l0 0c-138.47125 0 -250.7244 -112.25314 -250.7244 -250.72443z" fill-rule="evenodd"/><path fill="#000000" fill-opacity="0.0" d="m60.70069 328.99307l390.77167 0l0 114.99213l-390.77167 0z" fill-rule="evenodd"/><path fill="#000000" d="m140.81424 428.81232q-19.593742 0 -30.203117 -10.6875q-10.609375 -10.703125 -10.609375 -32.390625q0 -21.6875 11.0625 -32.28125q11.078125 -10.609375 32.874992 -10.609375l12.671875 0q13.046875 0 23.78125 6.390625q10.734375 6.375 10.734375 16.375q0 4.28125 -2.59375 6.171875q-2.59375 1.890625 -5.0625 1.890625l-6.765625 0q-5.96875 0 -8.875 -5.5625q-2.890625 -5.5625 -13.203125 -5.5625l-10.109375 0q-11.59375 0 -15.546875 4.765625q-3.9374924 4.75 -3.9374924 18.4375q0 13.6875 3.5312424 18.5625q3.53125 4.859375 12.828125 4.859375l11.640625 0q8.453125 0 11.8125 -3.0q3.359375 -3.0 3.4375 -6.890625l-11.0 0q-2.953125 0 -5.046875 -2.09375q-2.09375 -2.09375 -2.09375 -5.046875l0 -4.4375q0 -2.96875 2.09375 -5.046875q2.09375 -2.09375 5.046875 -2.09375l28.515625 0q2.96875 0 5.046875 2.09375q2.09375 2.078125 2.09375 5.046875l0 6.3125q0 16.703125 -10.109375 25.75q-10.09375 9.046875 -29.234375 9.046875l-12.78125 0zm56.21942 -78.140625q-0.515625 -1.046875 -0.515625 -2.40625q0 -1.375 1.546875 -3.171875q1.546875 -1.796875 4.296875 -1.796875l12.4375 0q5.625 0 8.421875 6.484375l20.3125 45.25l20.328125 -45.25q2.796875 -6.40625 8.390625 -6.484375l12.453125 0q2.828125 0 4.328125 1.8125q1.515625 1.796875 1.515625 3.125q0 1.328125 -0.4375 2.375l-32.71875 70.90625q-3.15625 6.84375 -9.765625 6.84375l-8.171875 0q-6.609375 0 -9.765625 -6.84375l-32.65625 -70.84375zm102.83453 70.421875l0 -70.46875q0 -3.0625 2.046875 -5.1875q2.0625 -2.140625 5.046875 -2.140625l23.109344 0q2.859375 0 5.296875 1.96875q2.453125 1.96875 3.296875 4.6875l15.03125 43.5l15.03125 -43.5q0.8125 -2.71875 3.265625 -4.6875q2.46875 -1.96875 5.328125 -1.96875l23.109375 0q2.984375 0 5.0 2.140625q2.03125 2.140625 2.03125 5.1875l0 70.46875q0 3.078125 -2.09375 5.171875q-2.09375 2.09375 -5.0625 2.09375l-10.21875 0q-2.953125 0 -5.046875 -2.09375q-2.09375 -2.09375 -2.09375 -5.171875l1.8125 -55.484375l-18.34375 56.453125q-0.984375 2.59375 -3.4375 4.453125q-2.4375 1.84375 -5.25 1.84375l-8.125 0q-2.84375 0 -5.234375 -1.84375q-2.390625 -1.84375 -3.4375 -4.421875l-18.296875 -56.484375l1.8125 55.484375q0 3.078125 -2.09375 5.171875q-2.09375 2.09375 -5.0625 2.09375l-10.2187195 0q-2.96875 0 -5.09375 -2.078125q-2.109375 -2.09375 -2.109375 -5.1875z" fill-rule="nonzero"/><path fill="#000000" d="m124.33817 322.02365l0 0c0 -2.0470276 1.6594315 -3.7064514 3.7064438 -3.7064514l255.86322 0c0.9830017 0 1.9257507 0.39050293 2.6208496 1.0856018c0.6950989 0.6950989 1.0856018 1.6378479 1.0856018 2.6208496l0 0l0 0c0 2.046997 -1.6594238 3.7064514 -3.7064514 3.7064514l-255.86322 0c-2.0470123 0 -3.7064438 -1.6594543 -3.7064438 -3.7064514z" fill-rule="evenodd"/><path stroke="#000000" stroke-width="1.073490813648294" stroke-linejoin="round" stroke-linecap="butt" d="m124.33817 322.02365l0 0c0 -2.0470276 1.6594315 -3.7064514 3.7064438 -3.7064514l255.86322 0c0.9830017 0 1.9257507 0.39050293 2.6208496 1.0856018c0.6950989 0.6950989 1.0856018 1.6378479 1.0856018 2.6208496l0 0l0 0c0 2.046997 -1.6594238 3.7064514 -3.7064514 3.7064514l-255.86322 0c-2.0470123 0 -3.7064438 -1.6594543 -3.7064438 -3.7064514z" fill-rule="evenodd"/><path fill="#000000" d="m53.795883 297.00375l0 0c-0.4576645 -2.4354248 1.1495285 -4.7593994 3.5897675 -5.1907043l394.78516 -69.77669c1.1718445 -0.20710754 2.3829956 0.05885315 3.367035 0.7393799c0.9840088 0.68052673 1.6603088 1.7198944 1.8800964 2.8894196l0.98831177 5.259262c0.45767212 2.4354248 -1.1495361 4.759384 -3.5897827 5.190689l-394.78516 69.7767c-2.4402428 0.43130493 -4.789459 -1.1933899 -5.2471237 -3.6288147z" fill-rule="evenodd"/><path stroke="#000000" stroke-width="8.595800524934383" stroke-linejoin="round" stroke-linecap="butt" d="m53.795883 297.00375l0 0c-0.4576645 -2.4354248 1.1495285 -4.7593994 3.5897675 -5.1907043l394.78516 -69.77669c1.1718445 -0.20710754 2.3829956 0.05885315 3.367035 0.7393799c0.9840088 0.68052673 1.6603088 1.7198944 1.8800964 2.8894196l0.98831177 5.259262c0.45767212 2.4354248 -1.1495361 4.759384 -3.5897827 5.190689l-394.78516 69.7767c-2.4402428 0.43130493 -4.789459 -1.1933899 -5.2471237 -3.6288147z" fill-rule="evenodd"/><path fill="#000000" fill-opacity="0.0" d="m219.93852 322.78174l31.784042 -51.5856" fill-rule="evenodd"/><path stroke="#000000" stroke-width="8.595800524934383" stroke-linejoin="round" stroke-linecap="butt" d="m219.93852 322.78174l31.784042 -51.5856" fill-rule="evenodd"/><path fill="#000000" d="m260.5317 321.21057l0 -49.41928l30.97168 49.41928z" fill-rule="evenodd"/><path stroke="#000000" stroke-width="8.595800524934383" stroke-linejoin="round" stroke-linecap="butt" d="m260.5317 321.21057l0 -49.41928l30.97168 49.41928z" fill-rule="evenodd"/><path fill="#000000" d="m113.70829 209.8201l0 0c0 -5.983139 4.8502884 -10.83342 10.83342 -10.83342l67.80427 0c2.8731995 0 5.628723 1.1413727 7.660385 3.1730347c2.031662 2.031662 3.1730347 4.7871857 3.1730347 7.660385l0 0l0 0c0 5.983124 -4.850281 10.83342 -10.83342 10.83342l-67.80427 0c-5.9831314 0 -10.83342 -4.850296 -10.83342 -10.83342z" fill-rule="evenodd"/><path stroke="#000000" stroke-width="1.8188976377952755" stroke-linejoin="round" stroke-linecap="butt" d="m113.70829 209.8201l0 0c0 -5.983139 4.8502884 -10.83342 10.83342 -10.83342l67.80427 0c2.8731995 0 5.628723 1.1413727 7.660385 3.1730347c2.031662 2.031662 3.1730347 4.7871857 3.1730347 7.660385l0 0l0 0c0 5.983124 -4.850281 10.83342 -10.83342 10.83342l-67.80427 0c-5.9831314 0 -10.83342 -4.850296 -10.83342 -10.83342z" fill-rule="evenodd"/><path fill="#000000" d="m158.44385 165.08208l0 0c5.9828033 0 10.832825 4.8500214 10.832825 10.832825l0 67.81038c0 2.8730469 -1.1413116 5.628418 -3.1728668 7.659973c-2.03154 2.03154 -4.786911 3.1728516 -7.659958 3.1728516l0 0l0 0c-5.9828033 0 -10.832825 -4.8500214 -10.832825 -10.832825l0 -67.81038c0 -5.9828033 4.8500214 -10.832825 10.832825 -10.832825z" fill-rule="evenodd"/><path stroke="#000000" stroke-width="1.8188976377952755" stroke-linejoin="round" stroke-linecap="butt" d="m158.44385 165.08208l0 0c5.9828033 0 10.832825 4.8500214 10.832825 10.832825l0 67.81038c0 2.8730469 -1.1413116 5.628418 -3.1728668 7.659973c-2.03154 2.03154 -4.786911 3.1728516 -7.659958 3.1728516l0 0l0 0c-5.9828033 0 -10.832825 -4.8500214 -10.832825 -10.832825l0 -67.81038c0 -5.9828033 4.8500214 -10.832825 10.832825 -10.832825z" fill-rule="evenodd"/><path fill="#000000" d="m291.5027 194.9098l0 0c0 -5.9838104 4.85083 -10.8346405 10.834656 -10.8346405l67.811035 0c2.8735046 0 5.6293335 1.1414948 7.6612244 3.1733856c2.0318909 2.0318909 3.1734009 4.787735 3.1734009 7.661255l0 0l0 0c0 5.9838104 -4.85083 10.834656 -10.834625 10.834656l-67.811035 0c-5.9838257 0 -10.834656 -4.8508453 -10.834656 -10.834656z" fill-rule="evenodd"/><path stroke="#000000" stroke-width="1.8188976377952755" stroke-linejoin="round" stroke-linecap="butt" d="m291.5027 194.9098l0 0c0 -5.9838104 4.85083 -10.8346405 10.834656 -10.8346405l67.811035 0c2.8735046 0 5.6293335 1.1414948 7.6612244 3.1733856c2.0318909 2.0318909 3.1734009 4.787735 3.1734009 7.661255l0 0l0 0c0 5.9838104 -4.85083 10.834656 -10.834625 10.834656l-67.811035 0c-5.9838257 0 -10.834656 -4.8508453 -10.834656 -10.834656z" fill-rule="evenodd"/><path fill="#000000" fill-opacity="0.0" d="m36.11811 156.82028l53.02211 -67.05451l58.484795 58.49076l-53.022118 67.054504z" fill-rule="evenodd"/><path fill="#000000" d="m91.651825 187.00041l-30.74461 -30.747757q-1.279171 -1.2792969 -1.4270821 -3.1831207q-0.1493454 -1.9272156 0.9845505 -3.3611908l16.417297 -20.762161q13.70369 -17.330399 28.263992 -2.768608q14.56031 14.56179 0.8566208 31.892189l-9.613907 12.158249l4.760742 4.7612305q1.3014221 1.3015442 1.4091339 3.231018q0.106285095 1.9060822 -1.0082321 3.315567l-4.0510178 5.123123q-1.1145172 1.4094696 -2.8295746 1.5379333q-1.7164993 0.10507202 -3.0179138 -1.1964722zm-3.8391495 -25.349289l7.161972 -9.057404q3.4113846 -4.314209 3.827118 -7.5858154q0.4157257 -3.2716217 -3.1437073 -6.831421q-3.559433 -3.5597992 -6.4000244 -2.7132874q-2.8405914 0.8464966 -6.2519836 5.1607056l-7.1619644 9.057404l11.96859 11.969818z" fill-rule="nonzero"/><path fill="#000000" fill-opacity="0.0" d="m89.71778 89.06027l68.18104 -46.67752l40.696945 75.17822l-68.181046 46.67752z" fill-rule="evenodd"/><path fill="#000000" d="m179.09756 107.244q1.2415161 2.2934036 -1.1307983 3.9175186l-6.8719788 4.704628q-1.3408813 0.917984 -3.3728943 0.98360443q-2.0394897 0.05181122 -3.5813293 -0.80513763l-9.286163 -4.814766q-5.2088623 -2.7017288 -8.973618 -0.12432861l-6.059723 4.148552l6.603943 12.199249q0.8750305 1.6164398 0.41819763 3.4819336q-0.45143127 1.842865 -1.9341278 2.8579407l-5.389282 3.68956q-1.4826965 1.0150757 -3.1715088 0.6374512q-1.6833954 -0.4002838 -2.5584412 -2.0167084l-20.67189 -38.18656q-0.86008453 -1.5888062 -0.44940186 -3.4416428q0.41609955 -1.8754807 1.9245834 -2.9082108l23.620003 -16.170525q6.8848724 -4.713463 13.555511 -3.7509766q6.670624 0.96248627 10.38768 7.828888q5.2651978 9.726242 -3.6563873 18.087433q0.15571594 -0.5610733 2.6656036 0.12548828q2.5098877 0.6865616 6.199341 2.5727844l10.030655 5.30867q1.1710205 0.69423676 1.7020264 1.6751556zm-45.0428 -2.6418228l11.268509 -7.714546q2.733307 -1.8712616 4.052704 -4.2325974q1.3322906 -2.3701553 0.16555786 -4.525406q-1.1741943 -2.1690598 -3.6582336 -1.9265137q-2.471161 0.23371124 -5.204483 2.1049728l-11.268494 7.714546l4.6444397 8.579544z" fill-rule="nonzero"/><path fill="#000000" fill-opacity="0.0" d="m158.65173 41.99219l77.60416 -20.850872l18.299957 85.63751l-77.60416 20.850876z" fill-rule="evenodd"/><path fill="#000000" d="m231.6568 88.49259q-5.8160553 8.325562 -19.472351 11.994766q-13.6562805 3.6692047 -22.235916 -0.78848267q-8.564545 -4.461746 -11.494125 -18.17115q-2.9295807 -13.709396 2.9081116 -22.008415q5.8495026 -8.318367 19.505798 -11.987572q13.6562805 -3.6692047 22.202469 0.7812958q8.542908 4.4351997 11.472488 18.1446q2.9295807 13.709404 -2.8864746 22.034958zm-17.427551 -28.614227q-3.8912048 -2.9022179 -10.953247 -1.004776q-7.046936 1.8933907 -9.372742 6.466011q-2.31073 4.5685654 -0.66937256 12.249496q1.6380768 7.665642 5.541092 10.5485q3.9148407 2.8635101 10.961792 0.9701233q7.062027 -1.8974457 9.364197 -6.4313583q2.3139954 -4.553261 0.6759186 -12.218895q-1.6413574 -7.6809387 -5.547638 -10.579102z" fill-rule="nonzero"/><path fill="#000000" fill-opacity="0.0" d="m229.3624 19.973753l79.65265 4.806532l-4.062866 87.93924l-79.65265 -4.806534z" fill-rule="evenodd"/><path fill="#000000" d="m251.45679 78.34423l5.7886963 0.975441l2.433075 0.1468277q4.3826294 0.26446533 6.283905 -1.2800751q1.9019775 -1.5601425 2.0959778 -5.7592087l1.2923584 -27.972942q0.08294678 -1.7951393 1.4061279 -3.0145264q1.339508 -1.2340584 3.1643066 -1.1239433l6.4414062 0.38869858q1.887207 0.11388016 3.1055298 1.502285q1.2346802 1.3737411 1.1517334 3.1688805l-1.287323 27.863674q-0.4348755 9.412773 -6.9256897 14.155418q-6.475189 4.7435837 -16.940521 4.112068l-9.794693 -0.5910492q-1.8092041 -0.109176636 -3.0289917 -1.466362q-1.2197876 -1.3571854 -1.1361389 -3.1679306l0.18103027 -3.9180908q0.08293152 -1.7951355 1.3742065 -3.000801q1.3068695 -1.2047195 3.1940613 -1.0908356l1.200943 0.07247162z" fill-rule="nonzero"/><path fill="#000000" fill-opacity="0.0" d="m486.5328 175.81816l-48.720245 -71.11636l-62.035522 53.819626l48.720245 71.11636z" fill-rule="evenodd"/><path fill="#000000" d="m430.45346 133.02475l2.4828186 -2.1539917q1.4255371 -1.2367401 3.1030579 -1.02742q1.6775513 0.20930481 2.7372437 1.756134l24.885193 36.324615q1.0596924 1.5468292 0.81274414 3.4257355q-0.24694824 1.8789062 -1.6724854 3.1156464l-2.482788 2.1539917q-1.437439 1.2470398 -3.1030884 1.0274353q-1.6537781 -0.22991943 -2.7134705 -1.7767487l-8.115509 -11.846115l-27.085175 23.498062q-1.3780212 1.1955261 -3.0613403 0.9501343q-1.6625977 -0.24281311 -2.678131 -1.7251892l-3.7089539 -5.4138947q-1.0155334 -1.4823761 -0.801178 -3.3535614q0.2262268 -1.881485 1.604248 -3.0769958l27.085175 -23.498077l-8.124329 -11.858994q-1.0596924 -1.546814 -0.83651733 -3.4051208q0.2350769 -1.8685913 1.6724854 -3.1156464z" fill-rule="nonzero"/><path fill="#000000" fill-opacity="0.0" d="m438.88705 105.058304l-65.142426 -51.856388l-45.27191 71.86104l65.142426 51.856384z" fill-rule="evenodd"/><path fill="#000000" d="m356.6448 118.34325q-1.8241882 -9.720215 5.3150635 -21.05252q7.1476746 -11.345596 15.9183655 -12.651764q8.770721 -1.30616 19.198334 6.99469l6.051178 4.817024q6.4301453 5.118698 9.128845 12.838951q2.7070618 7.7069473 -1.432373 14.27755q-1.3993835 2.2212372 -3.2663574 2.2128983q-1.8670044 -0.008331299 -3.0405579 -0.942543l-3.227295 -2.5690842q-3.0439148 -2.4231033 -2.2816772 -7.50811q0.82507324 -5.5343018 -3.2946472 -8.813774l-4.828705 -3.8438873q-5.5377502 -4.4083023 -8.99115 -3.4427109q-3.441162 0.9753189 -7.94928 8.131165q-4.508148 7.155838 -4.2008667 11.155022q0.32785034 3.9956207 5.8656006 8.403923l5.40329 4.301262q4.11969 3.2794647 8.453217 0.5380707q4.0269165 -2.5460968 7.119751 -0.08406067l3.227295 2.5690765q1.6992188 1.3526611 1.8102722 3.478119q0.11941528 2.1121674 -0.8442383 3.6417542q-4.1310425 6.557312 -11.484833 6.2553406q-7.333191 -0.30552673 -13.763336 -5.424225l-6.625763 -5.274399q-10.415375 -8.291107 -12.260132 -18.007767z" fill-rule="nonzero"/><path fill="#000000" fill-opacity="0.0" d="m373.03802 52.69609l-76.10193 -26.90981l-23.59195 83.97891l76.10193 26.90982z" fill-rule="evenodd"/><path fill="#000000" d="m296.13 94.08476l11.705841 -41.668743q0.49551392 -1.7638359 2.0570068 -2.5375328q1.5804749 -0.7835655 3.2745667 -0.18453217l37.71176 13.334972q1.7235718 0.6094475 2.5610352 2.297718q0.8564453 1.6784058 0.36941528 3.412094l-0.88516235 3.1507797q-0.48703003 1.7336884 -2.0465088 2.5578156q-1.5404968 0.81427 -3.264038 0.20481873l-27.429443 -9.699104l-2.134491 7.5980606l23.481476 8.303101q1.6940918 0.5990372 2.5547485 2.2623596q0.86068726 1.6633301 0.37365723 3.3970184l-0.88516235 3.1507797q-0.49127197 1.748764 -2.0465088 2.5578232q-1.5552063 0.8090515 -3.249298 0.21002197l-23.481476 -8.303101l-2.172638 7.7337418l27.370514 9.678268q1.6646118 0.5886154 2.514801 2.231659q0.8501892 1.6430435 0.36315918 3.3767319l-0.9020996 3.2110825q-0.49551392 1.7638397 -2.0654602 2.567688q-1.5657349 0.7887726 -3.2745667 0.18453217l-37.549744 -13.277679q-1.6940613 -0.59902954 -2.58844 -2.257698q-0.8753967 -1.668541 -0.36294556 -3.4926758z" fill-rule="nonzero"/></g></svg>