<svg version="1.1" viewBox="0.0 0.0 512.0 512.0" fill="none" stroke="none" stroke-linecap="square" stroke-miterlimit="10" xmlns:xlink="http://www.w3.org/1999/xlink" xmlns="http://www.w3.org/2000/svg"><clipPath id="p.0"><path d="m0 0l512.0 0l0 512.0l-512.0 0l0 -512.0z" clip-rule="nonzero"/></clipPath><g clip-path="url(#p.0)"><path fill="#000000" fill-opacity="0.0" d="m0 0l512.0 0l0 512.0l-512.0 0z" fill-rule="evenodd"/><path fill="#000000" fill-opacity="0.0" d="m21.406902 255.98958l0 0c0 -129.55643 105.026245 -234.58267 234.58267 -234.58267l0 0c62.215195 0 121.88222 24.71489 165.87502 68.70767c43.992767 43.992783 68.70767 103.659805 68.70767 165.875l0 0c0 129.55644 -105.026245 234.58269 -234.58269 234.58269l0 0c-129.55643 0 -234.58267 -105.026245 -234.58267 -234.58269z" fill-rule="evenodd"/><path stroke="#ffffff" stroke-width="4.299212598425197" stroke-linejoin="round" stroke-linecap="butt" d="m21.406902 255.98958l0 0c0 -129.55643 105.026245 -234.58267 234.58267 -234.58267l0 0c62.215195 0 121.88222 24.71489 165.87502 68.70767c43.992767 43.992783 68.70767 103.659805 68.70767 165.875l0 0c0 129.55644 -105.026245 234.58269 -234.58269 234.58269l0 0c-129.55643 0 -234.58267 -105.026245 -234.58267 -234.58269z" fill-rule="evenodd"/><path fill="#000000" fill-opacity="0.0" d="m5.280694 256.0051l0 0c0 -138.47125 112.25314 -250.7244 250.7244 -250.7244l0 0c66.49625 0 130.26898 26.415531 177.28894 73.43548c47.01996 47.01995 73.435486 110.79268 73.435486 177.28893l0 0c0 138.47128 -112.25314 250.72443 -250.72443 250.72443l0 0c-138.47125 0 -250.7244 -112.25314 -250.7244 -250.72443z" fill-rule="evenodd"/><path stroke="#ffffff" stroke-width="8.595800524934383" stroke-linejoin="round" stroke-linecap="butt" d="m5.280694 256.0051l0 0c0 -138.47125 112.25314 -250.7244 250.7244 -250.7244l0 0c66.49625 0 130.26898 26.415531 177.28894 73.43548c47.01996 47.01995 73.435486 110.79268 73.435486 177.28893l0 0c0 138.47128 -112.25314 250.72443 -250.72443 250.72443l0 0c-138.47125 0 -250.7244 -112.25314 -250.7244 -250.72443z" fill-rule="evenodd"/><path fill="#000000" fill-opacity="0.0" d="m60.70069 339.6737l390.77167 0l0 114.99213l-390.77167 0z" fill-rule="evenodd"/><path fill="#ffffff" d="m148.74393 436.5817q-18.25 0 -28.140617 -9.953125q-9.875 -9.96875 -9.875 -30.15625q0 -20.203125 10.3125 -30.0625q10.328117 -9.875 30.624992 -9.875l11.78125 0q12.15625 0 22.15625 5.953125q10.0 5.9375 10.0 15.25q0 3.96875 -2.421875 5.734375q-2.421875 1.765625 -4.71875 1.765625l-6.296875 0q-5.578125 0 -8.28125 -5.171875q-2.6875 -5.1875 -12.28125 -5.1875l-9.421875 0q-10.78125 0 -14.46875 4.4375q-3.671875 4.421875 -3.671875 17.171875q0 12.75 3.28125 17.28125q3.296875 4.53125 11.953125 4.53125l10.84375 0q7.875 0 11.0 -2.796875q3.140625 -2.796875 3.203125 -6.421875l-10.234375 0q-2.765625 0 -4.71875 -1.9375q-1.9375 -1.953125 -1.9375 -4.71875l0 -4.125q0 -2.765625 1.9375 -4.703125q1.953125 -1.953125 4.71875 -1.953125l26.546875 0q2.765625 0 4.703125 1.953125q1.953125 1.9375 1.953125 4.703125l0 5.875q0 15.546875 -9.40625 23.984375q-9.40625 8.421875 -27.234375 8.421875l-11.90625 0zm52.360046 -72.765625q-0.484375 -0.96875 -0.484375 -2.25q0 -1.28125 1.4375 -2.9375q1.4375 -1.671875 4.0 -1.671875l11.59375 0q5.21875 0 7.828125 6.015625l18.921875 42.15625l18.921875 -42.15625q2.59375 -5.953125 7.8125 -6.015625l11.609375 0q2.625 0 4.03125 1.671875q1.40625 1.671875 1.40625 2.921875q0 1.25 -0.40625 2.21875l-30.46875 66.015625q-2.9375 6.375 -9.09375 6.375l-7.625 0q-6.15625 0 -9.09375 -6.375l-30.390625 -65.96875zm95.7486 65.578125l0 -65.625q0 -2.859375 1.90625 -4.828125q1.921875 -1.984375 4.703125 -1.984375l21.515594 0q2.65625 0 4.9375 1.828125q2.28125 1.8125 3.078125 4.34375l13.984375 40.53125l13.984375 -40.53125q0.796875 -2.53125 3.078125 -4.34375q2.28125 -1.828125 4.9375 -1.828125l21.515625 0q2.78125 0 4.671875 1.984375q1.890625 1.984375 1.890625 4.828125l0 65.625q0 2.875 -1.953125 4.828125q-1.953125 1.9375 -4.71875 1.9375l-9.515625 0q-2.765625 0 -4.71875 -1.9375q-1.9375 -1.953125 -1.9375 -4.828125l1.6875 -51.65625l-17.09375 52.546875q-0.90625 2.4375 -3.1875 4.15625q-2.265625 1.71875 -4.890625 1.71875l-7.5625 0q-2.640625 0 -4.875 -1.703125q-2.21875 -1.71875 -3.203125 -4.15625l-17.03125 -52.5625l1.6875 51.65625q0 2.875 -1.953125 4.828125q-1.9374695 1.9375 -4.7030945 1.9375l-9.53125 0q-2.75 0 -4.734375 -1.9375q-1.96875 -1.953125 -1.96875 -4.828125z" fill-rule="nonzero"/><path fill="#ffffff" d="m124.33817 338.02365l0 0c0 -2.0470276 1.6594315 -3.7064514 3.7064438 -3.7064514l255.86322 0c0.9830017 0 1.9257507 0.39050293 2.6208496 1.0856018c0.6950989 0.6950989 1.0856018 1.6378479 1.0856018 2.6208496l0 0l0 0c0 2.046997 -1.6594238 3.7064514 -3.7064514 3.7064514l-255.86322 0c-2.0470123 0 -3.7064438 -1.6594543 -3.7064438 -3.7064514z" fill-rule="evenodd"/><path stroke="#ffffff" stroke-width="1.073490813648294" stroke-linejoin="round" stroke-linecap="butt" d="m124.33817 338.02365l0 0c0 -2.0470276 1.6594315 -3.7064514 3.7064438 -3.7064514l255.86322 0c0.9830017 0 1.9257507 0.39050293 2.6208496 1.0856018c0.6950989 0.6950989 1.0856018 1.6378479 1.0856018 2.6208496l0 0l0 0c0 2.046997 -1.6594238 3.7064514 -3.7064514 3.7064514l-255.86322 0c-2.0470123 0 -3.7064438 -1.6594543 -3.7064438 -3.7064514z" fill-rule="evenodd"/><path fill="#ffffff" d="m53.79417 313.0045l0 0c-0.45671844 -2.435852 1.1514091 -4.7602234 3.591858 -5.191681l394.7757 -69.790924c1.171936 -0.20718384 2.3829956 0.058792114 3.3667908 0.73942566c0.98376465 0.6806183 1.659668 1.7201385 1.8789978 2.8898773l0.9862671 5.260132l0 0c0.45672607 2.435852 -1.1513977 4.7602386 -3.591858 5.191681l-394.77567 69.790924c-2.4404488 0.43145752 -4.78907 -1.1934509 -5.2457886 -3.629303z" fill-rule="evenodd"/><path stroke="#ffffff" stroke-width="8.595800524934383" stroke-linejoin="round" stroke-linecap="butt" d="m53.79417 313.0045l0 0c-0.45671844 -2.435852 1.1514091 -4.7602234 3.591858 -5.191681l394.7757 -69.790924c1.171936 -0.20718384 2.3829956 0.058792114 3.3667908 0.73942566c0.98376465 0.6806183 1.659668 1.7201385 1.8789978 2.8898773l0.9862671 5.260132l0 0c0.45672607 2.435852 -1.1513977 4.7602386 -3.591858 5.191681l-394.77567 69.790924c-2.4404488 0.43145752 -4.78907 -1.1934509 -5.2457886 -3.629303z" fill-rule="evenodd"/><path fill="#000000" fill-opacity="0.0" d="m219.93852 338.78174l31.784042 -51.5856" fill-rule="evenodd"/><path stroke="#ffffff" stroke-width="8.595800524934383" stroke-linejoin="round" stroke-linecap="butt" d="m219.93852 338.78174l31.784042 -51.5856" fill-rule="evenodd"/><path fill="#ffffff" d="m260.5317 337.21057l0 -49.41928l30.97168 49.41928z" fill-rule="evenodd"/><path stroke="#ffffff" stroke-width="8.595800524934383" stroke-linejoin="round" stroke-linecap="butt" d="m260.5317 337.21057l0 -49.41928l30.97168 49.41928z" fill-rule="evenodd"/><path fill="#ffffff" d="m42.54741 256.49136l0 0c0 -3.5332184 2.8642235 -6.3974457 6.3974266 -6.3974457l40.043148 0c1.6967087 0 3.3239136 0.6740265 4.5236664 1.873764c1.1997528 1.1997528 1.873764 2.8269653 1.873764 4.5236816l0 0l0 0c0 3.5332031 -2.8642273 6.3974 -6.3974304 6.3974l-40.043148 0c-3.5332031 0 -6.3974266 -2.8641968 -6.3974266 -6.3974z" fill-rule="evenodd"/><path stroke="#ffffff" stroke-width="1.073490813648294" stroke-linejoin="round" stroke-linecap="butt" d="m42.54741 256.49136l0 0c0 -3.5332184 2.8642235 -6.3974457 6.3974266 -6.3974457l40.043148 0c1.6967087 0 3.3239136 0.6740265 4.5236664 1.873764c1.1997528 1.1997528 1.873764 2.8269653 1.873764 4.5236816l0 0l0 0c0 3.5332031 -2.8642273 6.3974 -6.3974304 6.3974l-40.043148 0c-3.5332031 0 -6.3974266 -2.8641968 -6.3974266 -6.3974z" fill-rule="evenodd"/><path fill="#ffffff" d="m68.96641 230.07234l0 0c3.5332031 0 6.3974304 2.8642273 6.3974304 6.3974304l0 40.043167c0 1.6966858 -0.67401123 3.3239136 -1.873764 4.523651c-1.1997528 1.1997375 -2.8269577 1.8737488 -4.5236664 1.8737488l0 0l0 0c-3.5331955 0 -6.397423 -2.8641968 -6.397423 -6.3974l0 -40.043167c0 -3.5332031 2.8642273 -6.3974304 6.397423 -6.3974304z" fill-rule="evenodd"/><path stroke="#ffffff" stroke-width="1.073490813648294" stroke-linejoin="round" stroke-linecap="butt" d="m68.96641 230.07234l0 0c3.5332031 0 6.3974304 2.8642273 6.3974304 6.3974304l0 40.043167c0 1.6966858 -0.67401123 3.3239136 -1.873764 4.523651c-1.1997528 1.1997375 -2.8269577 1.8737488 -4.5236664 1.8737488l0 0l0 0c-3.5331955 0 -6.397423 -2.8641968 -6.397423 -6.3974l0 -40.043167c0 -3.5332031 2.8642273 -6.3974304 6.397423 -6.3974304z" fill-rule="evenodd"/><path fill="#ffffff" d="m413.3928 206.10178l0 0c0 -3.5332031 2.8642273 -6.3974304 6.3974304 -6.3974304l40.04315 0c1.6967163 0 3.3239136 0.67401123 4.5236816 1.873764c1.1997375 1.1997528 1.8737488 2.8269653 1.8737488 4.5236664l0 0l0 0c0 3.5332031 -2.8642273 6.397415 -6.3974304 6.397415l-40.04315 0c-3.5332031 0 -6.3974304 -2.864212 -6.3974304 -6.397415z" fill-rule="evenodd"/><path stroke="#ffffff" stroke-width="1.073490813648294" stroke-linejoin="round" stroke-linecap="butt" d="m413.3928 206.10178l0 0c0 -3.5332031 2.8642273 -6.3974304 6.3974304 -6.3974304l40.04315 0c1.6967163 0 3.3239136 0.67401123 4.5236816 1.873764c1.1997375 1.1997528 1.8737488 2.8269653 1.8737488 4.5236664l0 0l0 0c0 3.5332031 -2.8642273 6.397415 -6.3974304 6.397415l-40.04315 0c-3.5332031 0 -6.3974304 -2.864212 -6.3974304 -6.397415z" fill-rule="evenodd"/><path fill="#000000" fill-opacity="0.0" d="m160.15515 261.8297l0 0c0 -10.863037 8.806244 -19.669281 19.669296 -19.669281l0 0c5.216614 0 10.219589 2.0722961 13.908295 5.7610016c3.6887054 3.6887054 5.7610016 8.691666 5.7610016 13.908279l0 0c0 10.863068 -8.806244 19.669312 -19.669296 19.669312l0 0c-10.863052 0 -19.669296 -8.806244 -19.669296 -19.669312z" fill-rule="evenodd"/><path stroke="#ffffff" stroke-width="12.0" stroke-linejoin="round" stroke-linecap="butt" d="m160.15515 261.8297l0 0c0 -10.863037 8.806244 -19.669281 19.669296 -19.669281l0 0c5.216614 0 10.219589 2.0722961 13.908295 5.7610016c3.6887054 3.6887054 5.7610016 8.691666 5.7610016 13.908279l0 0c0 10.863068 -8.806244 19.669312 -19.669296 19.669312l0 0c-10.863052 0 -19.669296 -8.806244 -19.669296 -19.669312z" fill-rule="evenodd"/><path fill="#ffffff" d="m173.30443 261.82968l0 0c0 -3.6007385 2.9189758 -6.519684 6.519699 -6.519684l0 0c1.729126 0 3.387436 0.68688965 4.6101074 1.9095764c1.2226715 1.2226562 1.9095764 2.8809814 1.9095764 4.6101074l0 0c0 3.600708 -2.9189606 6.519684 -6.519684 6.519684l0 0c-3.6007233 0 -6.519699 -2.9189758 -6.519699 -6.519684z" fill-rule="evenodd"/><path stroke="#ffffff" stroke-width="1.0" stroke-linejoin="round" stroke-linecap="butt" d="m173.30443 261.82968l0 0c0 -3.6007385 2.9189758 -6.519684 6.519699 -6.519684l0 0c1.729126 0 3.387436 0.68688965 4.6101074 1.9095764c1.2226715 1.2226562 1.9095764 2.8809814 1.9095764 4.6101074l0 0c0 3.600708 -2.9189606 6.519684 -6.519684 6.519684l0 0c-3.6007233 0 -6.519699 -2.9189758 -6.519699 -6.519684z" fill-rule="evenodd"/><path fill="#000000" fill-opacity="0.0" d="m320.31775 235.30637l0 0c0 -10.863052 8.806244 -19.669296 19.669281 -19.669296l0 0c5.2166443 0 10.2196045 2.0722961 13.908295 5.7610016c3.6887207 3.6887207 5.761017 8.691681 5.761017 13.908295l0 0c0 10.863052 -8.806244 19.669296 -19.669312 19.669296l0 0c-10.863037 0 -19.669281 -8.806244 -19.669281 -19.669296z" fill-rule="evenodd"/><path stroke="#ffffff" stroke-width="12.0" stroke-linejoin="round" stroke-linecap="butt" d="m320.31775 235.30637l0 0c0 -10.863052 8.806244 -19.669296 19.669281 -19.669296l0 0c5.2166443 0 10.2196045 2.0722961 13.908295 5.7610016c3.6887207 3.6887207 5.761017 8.691681 5.761017 13.908295l0 0c0 10.863052 -8.806244 19.669296 -19.669312 19.669296l0 0c-10.863037 0 -19.669281 -8.806244 -19.669281 -19.669296z" fill-rule="evenodd"/><path fill="#ffffff" d="m333.46704 235.30632l0 0c0 -3.6007233 2.9189453 -6.519684 6.519684 -6.519684l0 0c1.729126 0 3.3874207 0.68688965 4.6101074 1.9095764c1.2226868 1.2226715 1.9095764 2.8809814 1.9095764 4.6101074l0 0c0 3.6007233 -2.9189758 6.519684 -6.519684 6.519684l0 0c-3.6007385 0 -6.519684 -2.9189606 -6.519684 -6.519684z" fill-rule="evenodd"/><path stroke="#ffffff" stroke-width="1.0" stroke-linejoin="round" stroke-linecap="butt" d="m333.46704 235.30632l0 0c0 -3.6007233 2.9189453 -6.519684 6.519684 -6.519684l0 0c1.729126 0 3.3874207 0.68688965 4.6101074 1.9095764c1.2226868 1.2226715 1.9095764 2.8809814 1.9095764 4.6101074l0 0c0 3.6007233 -2.9189758 6.519684 -6.519684 6.519684l0 0c-3.6007385 0 -6.519684 -2.9189606 -6.519684 -6.519684z" fill-rule="evenodd"/><path fill="#000000" fill-opacity="0.0" d="m279.78897 162.851c5.451416 4.147415 16.665771 12.266846 22.078735 16.238846c5.4129333 3.9720001 8.003937 6.035431 10.398926 7.59317c2.3950195 1.5577545 2.1019287 1.5004425 3.9711304 1.7532806c1.8692017 0.2528534 5.6474304 0.075683594 7.24411 -0.23620605c1.5966797 -0.3119049 2.102356 -0.9343872 2.335968 -1.6351776c0.23358154 -0.7007904 -0.29177856 -1.6154785 -0.9343872 -2.5695496c-0.64260864 -0.95407104 -1.7528381 -2.5122528 -2.9212646 -3.1548615c-1.1684265 -0.64260864 -2.3368225 -0.2335968 -4.0892334 -0.7007904c-1.7524109 -0.4671936 -3.212616 -0.25283813 -6.4252014 -2.102356c-3.212616 -1.8495178 -8.450134 -5.91864 -12.850403 -8.994751c-4.4002686 -3.0761108 -10.260712 -6.9308777 -13.551178 -9.461945c-3.2904663 -2.5310516 -3.933075 -3.8744507 -6.1915894 -5.724411c-2.258545 -1.8499603 -5.4322205 -4.7519684 -7.3595886 -5.3753204c-1.9273987 -0.6233673 -3.8153992 0.6810913 -4.204712 1.6351624c-0.38934326 0.95407104 -0.21435547 1.9667511 1.8687439 4.0892487c2.08313 2.1224823 5.1784973 4.4982452 10.629944 8.64566z" fill-rule="evenodd"/><path stroke="#ffffff" stroke-width="3.0" stroke-linejoin="round" stroke-linecap="butt" d="m279.78897 162.851c5.451416 4.147415 16.665771 12.266846 22.078735 16.238846c5.4129333 3.9720001 8.003937 6.035431 10.398926 7.59317c2.3950195 1.5577545 2.1019287 1.5004425 3.9711304 1.7532806c1.8692017 0.2528534 5.6474304 0.075683594 7.24411 -0.23620605c1.5966797 -0.3119049 2.102356 -0.9343872 2.335968 -1.6351776c0.23358154 -0.7007904 -0.29177856 -1.6154785 -0.9343872 -2.5695496c-0.64260864 -0.95407104 -1.7528381 -2.5122528 -2.9212646 -3.1548615c-1.1684265 -0.64260864 -2.3368225 -0.2335968 -4.0892334 -0.7007904c-1.7524109 -0.4671936 -3.212616 -0.25283813 -6.4252014 -2.102356c-3.212616 -1.8495178 -8.450134 -5.91864 -12.850403 -8.994751c-4.4002686 -3.0761108 -10.260712 -6.9308777 -13.551178 -9.461945c-3.2904663 -2.5310516 -3.933075 -3.8744507 -6.1915894 -5.724411c-2.258545 -1.8499603 -5.4322205 -4.7519684 -7.3595886 -5.3753204c-1.9273987 -0.6233673 -3.8153992 0.6810913 -4.204712 1.6351624c-0.38934326 0.95407104 -0.21435547 1.9667511 1.8687439 4.0892487c2.08313 2.1224823 5.1784973 4.4982452 10.629944 8.64566z" fill-rule="evenodd"/><path fill="#000000" fill-opacity="0.0" d="m126.70992 180.59941c-0.44571686 0.67207336 -1.73143 1.7796326 -2.6742783 4.03244c-0.9428482 2.2528076 -2.0837173 5.690735 -2.9828186 9.484375c-0.8991089 3.7936249 -1.8402939 9.953903 -2.4118042 13.27742c-0.5715103 3.3235016 -0.080970764 4.223297 -1.0172653 6.6636353c-0.9363022 2.4403381 -3.7718582 5.739624 -4.6005325 7.9783783c-0.8286667 2.238739 -0.6511078 2.2224731 -0.37149048 5.454117c0.2796173 3.2316284 2.1752625 10.377396 2.0491867 13.935684c-0.12607574 3.5583038 -2.7446976 3.7955017 -2.8056488 7.4141235c-0.060943604 3.6186066 1.384964 10.957779 2.4399796 14.297562c1.0550079 3.3398132 1.9339066 4.632202 3.8900833 5.741211c1.9561768 1.1090088 4.9559555 0.79504395 7.846962 0.91293335c2.8910065 0.11785889 5.498581 -0.16009521 9.499054 -0.205719c4.0004883 -0.04562378 12.086533 -0.056640625 14.503845 -0.067993164" fill-rule="evenodd"/><path stroke="#ffffff" stroke-width="4.0" stroke-linejoin="round" stroke-linecap="butt" d="m126.70992 180.59941c-0.44571686 0.67207336 -1.73143 1.7796326 -2.6742783 4.03244c-0.9428482 2.2528076 -2.0837173 5.690735 -2.9828186 9.484375c-0.8991089 3.7936249 -1.8402939 9.953903 -2.4118042 13.27742c-0.5715103 3.3235016 -0.080970764 4.223297 -1.0172653 6.6636353c-0.9363022 2.4403381 -3.7718582 5.739624 -4.6005325 7.9783783c-0.8286667 2.238739 -0.6511078 2.2224731 -0.37149048 5.454117c0.2796173 3.2316284 2.1752625 10.377396 2.0491867 13.935684c-0.12607574 3.5583038 -2.7446976 3.7955017 -2.8056488 7.4141235c-0.060943604 3.6186066 1.384964 10.957779 2.4399796 14.297562c1.0550079 3.3398132 1.9339066 4.632202 3.8900833 5.741211c1.9561768 1.1090088 4.9559555 0.79504395 7.846962 0.91293335c2.8910065 0.11785889 5.498581 -0.16009521 9.499054 -0.205719c4.0004883 -0.04562378 12.086533 -0.056640625 14.503845 -0.067993164" fill-rule="evenodd"/><path fill="#000000" fill-opacity="0.0" d="m149.52298 278.79102c0.003250122 -1.6987305 -0.48936462 -4.7758484 0.019561768 -10.192322c0.50891113 -5.4164734 1.4318237 -16.862305 3.0339508 -22.306442c1.6021423 -5.4441376 3.1872864 -7.7907104 6.5788574 -10.358383c3.391571 -2.5676575 9.174149 -4.1574707 13.770569 -5.0476074c4.5964203 -0.89012146 10.123856 -0.73783875 13.807953 -0.29315186c3.6840973 0.4446869 5.7123566 1.1861725 8.296646 2.9612732c2.5843048 1.7751007 4.8094482 4.031494 7.209152 7.6893463c2.399704 3.6578522 4.8130646 11.579041 7.189087 14.257767c2.376007 2.6787415 -0.60206604 2.7494812 7.0670013 1.8146362c7.6690674 -0.9348755 28.274902 -5.3524017 38.94742 -7.4237366c10.672516 -2.07135 17.343872 -3.5144958 25.087677 -5.004303c7.7437744 -1.4898071 16.46991 -3.8257904 21.375061 -3.9345245c4.905121 -0.10871887 6.7206116 3.8395844 8.055756 3.282196c1.3351135 -0.5573883 -0.12036133 -2.8196564 -0.04498291 -6.626541c0.07537842 -3.8068848 -0.038635254 -11.558014 0.49725342 -16.214737c0.5358887 -4.6567383 0.81988525 -8.48053 2.7180786 -11.725632c1.8982239 -3.2451172 4.453247 -5.8675995 8.671173 -7.7450256c4.217926 -1.8774261 12.159515 -3.09227 16.636414 -3.5195465c4.4769287 -0.4272766 6.8262024 -0.28041077 10.225037 0.95591736c3.3988037 1.2363281 7.396942 3.8177032 10.167847 6.462082c2.7709045 2.6443634 4.7697144 6.4405212 6.4575806 9.404129c1.6878967 2.963623 2.4591064 7.1378937 3.6696777 8.377563c1.2105713 1.2396698 1.1611938 0.4273224 3.5937195 -0.9395752c2.4325562 -1.3668976 7.9177856 -5.142563 11.001587 -7.2618103c3.0837708 -2.1192474 5.7908936 -3.69487 7.50119 -5.453644c1.7102661 -1.7587738 2.631775 -1.9156952 2.760437 -5.098999c0.12866211 -3.1833038 -1.6570435 -11.667374 -1.9884338 -14.000839" fill-rule="evenodd"/><path stroke="#ffffff" stroke-width="4.0" stroke-linejoin="round" stroke-linecap="butt" d="m149.52298 278.79102c0.003250122 -1.6987305 -0.48936462 -4.7758484 0.019561768 -10.192322c0.50891113 -5.4164734 1.4318237 -16.862305 3.0339508 -22.306442c1.6021423 -5.4441376 3.1872864 -7.7907104 6.5788574 -10.358383c3.391571 -2.5676575 9.174149 -4.1574707 13.770569 -5.0476074c4.5964203 -0.89012146 10.123856 -0.73783875 13.807953 -0.29315186c3.6840973 0.4446869 5.7123566 1.1861725 8.296646 2.9612732c2.5843048 1.7751007 4.8094482 4.031494 7.209152 7.6893463c2.399704 3.6578522 4.8130646 11.579041 7.189087 14.257767c2.376007 2.6787415 -0.60206604 2.7494812 7.0670013 1.8146362c7.6690674 -0.9348755 28.274902 -5.3524017 38.94742 -7.4237366c10.672516 -2.07135 17.343872 -3.5144958 25.087677 -5.004303c7.7437744 -1.4898071 16.46991 -3.8257904 21.375061 -3.9345245c4.905121 -0.10871887 6.7206116 3.8395844 8.055756 3.282196c1.3351135 -0.5573883 -0.12036133 -2.8196564 -0.04498291 -6.626541c0.07537842 -3.8068848 -0.038635254 -11.558014 0.49725342 -16.214737c0.5358887 -4.6567383 0.81988525 -8.48053 2.7180786 -11.725632c1.8982239 -3.2451172 4.453247 -5.8675995 8.671173 -7.7450256c4.217926 -1.8774261 12.159515 -3.09227 16.636414 -3.5195465c4.4769287 -0.4272766 6.8262024 -0.28041077 10.225037 0.95591736c3.3988037 1.2363281 7.396942 3.8177032 10.167847 6.462082c2.7709045 2.6443634 4.7697144 6.4405212 6.4575806 9.404129c1.6878967 2.963623 2.4591064 7.1378937 3.6696777 8.377563c1.2105713 1.2396698 1.1611938 0.4273224 3.5937195 -0.9395752c2.4325562 -1.3668976 7.9177856 -5.142563 11.001587 -7.2618103c3.0837708 -2.1192474 5.7908936 -3.69487 7.50119 -5.453644c1.7102661 -1.7587738 2.631775 -1.9156952 2.760437 -5.098999c0.12866211 -3.1833038 -1.6570435 -11.667374 -1.9884338 -14.000839" fill-rule="evenodd"/><path fill="#cfe2f3" d="m130.92987 168.9443c9.691971 -2.4016724 103.560715 -25.740692 112.64249 -28.00682c9.081772 -2.2661285 -39.378082 9.742233 -58.151825 14.410034c-18.773758 4.667816 -64.18263 15.998459 -54.49066 13.5967865z" fill-rule="evenodd"/><path stroke="#ffffff" stroke-width="4.0" stroke-linejoin="round" stroke-linecap="butt" d="m130.92987 168.9443c9.691971 -2.4016724 103.560715 -25.740692 112.64249 -28.00682c9.081772 -2.2661285 -39.378082 9.742233 -58.151825 14.410034c-18.773758 4.667816 -64.18263 15.998459 -54.49066 13.5967865z" fill-rule="evenodd"/><path fill="#000000" fill-opacity="0.0" d="m124.91267 182.91263c0.34207916 -0.35595703 0.7863388 -1.3829193 2.0524979 -2.1357422c1.266159 -0.7528076 2.672058 -1.3638763 5.5444336 -2.3811188c2.8723602 -1.0172424 6.614853 -2.2215576 11.689774 -3.7223053c5.0749207 -1.5007629 12.45076 -3.6132202 18.759735 -5.282257c6.30896 -1.6690216 12.213104 -3.0114288 19.09407 -4.731949c6.880951 -1.72052 14.995529 -3.922226 22.191666 -5.5911713c7.1961365 -1.6689453 13.782379 -3.2434998 20.985123 -4.42247c7.2027283 -1.1789856 16.76268 -2.2731018 22.231308 -2.651413c5.468628 -0.37831116 7.068344 -0.21490479 10.580475 0.38153076c3.512146 0.59643555 8.336121 2.4999084 10.492371 3.1970825c2.15625 0.69718933 2.0376282 0.82170105 2.4451294 0.9860382" fill-rule="evenodd"/><path stroke="#ffffff" stroke-width="4.0" stroke-linejoin="round" stroke-linecap="butt" d="m124.91267 182.91263c0.34207916 -0.35595703 0.7863388 -1.3829193 2.0524979 -2.1357422c1.266159 -0.7528076 2.672058 -1.3638763 5.5444336 -2.3811188c2.8723602 -1.0172424 6.614853 -2.2215576 11.689774 -3.7223053c5.0749207 -1.5007629 12.45076 -3.6132202 18.759735 -5.282257c6.30896 -1.6690216 12.213104 -3.0114288 19.09407 -4.731949c6.880951 -1.72052 14.995529 -3.922226 22.191666 -5.5911713c7.1961365 -1.6689453 13.782379 -3.2434998 20.985123 -4.42247c7.2027283 -1.1789856 16.76268 -2.2731018 22.231308 -2.651413c5.468628 -0.37831116 7.068344 -0.21490479 10.580475 0.38153076c3.512146 0.59643555 8.336121 2.4999084 10.492371 3.1970825c2.15625 0.69718933 2.0376282 0.82170105 2.4451294 0.9860382" fill-rule="evenodd"/><path fill="#000000" fill-opacity="0.0" d="m308.2303 175.87177c2.8294678 -0.3154602 10.490631 -1.2513428 16.976868 -1.8927917c6.486206 -0.6414337 16.246857 -1.4650726 21.94046 -1.9558563c5.693634 -0.49076843 8.738373 -1.033905 12.221191 -0.9887848c3.4828186 0.04512024 6.0789795 0.318161 8.675751 1.259491c2.5967712 0.9413452 5.313263 2.0780792 6.904785 4.38855c1.5915527 2.3104858 1.9520874 7.258026 2.6444397 9.474289c0.6923218 2.2162628 0.50598145 2.5453491 1.509552 3.8233032c1.0035706 1.2779694 3.7598877 3.2037506 4.5118713 3.844513" fill-rule="evenodd"/><path stroke="#ffffff" stroke-width="4.0" stroke-linejoin="round" stroke-linecap="butt" d="m308.2303 175.87177c2.8294678 -0.3154602 10.490631 -1.2513428 16.976868 -1.8927917c6.486206 -0.6414337 16.246857 -1.4650726 21.94046 -1.9558563c5.693634 -0.49076843 8.738373 -1.033905 12.221191 -0.9887848c3.4828186 0.04512024 6.0789795 0.318161 8.675751 1.259491c2.5967712 0.9413452 5.313263 2.0780792 6.904785 4.38855c1.5915527 2.3104858 1.9520874 7.258026 2.6444397 9.474289c0.6923218 2.2162628 0.50598145 2.5453491 1.509552 3.8233032c1.0035706 1.2779694 3.7598877 3.2037506 4.5118713 3.844513" fill-rule="evenodd"/><path fill="#000000" fill-opacity="0.0" d="m139.20953 175.01656c-0.12620544 -1.1674347 1.070755 -6.7565155 1.8340912 -8.204193c0.7633362 -1.4476776 2.6197052 -1.6493073 2.7459106 -0.4818573c0.12620544 1.1674347 -1.2253265 6.038803 -1.9886627 7.4864807c-0.7633362 1.4476776 -2.4651337 2.3670197 -2.591339 1.1995697z" fill-rule="evenodd"/><path stroke="#ffffff" stroke-width="3.0" stroke-linejoin="round" stroke-linecap="butt" d="m139.20953 175.01656c-0.12620544 -1.1674347 1.070755 -6.7565155 1.8340912 -8.204193c0.7633362 -1.4476776 2.6197052 -1.6493073 2.7459106 -0.4818573c0.12620544 1.1674347 -1.2253265 6.038803 -1.9886627 7.4864807c-0.7633362 1.4476776 -2.4651337 2.3670197 -2.591339 1.1995697z" fill-rule="evenodd"/><path fill="#000000" fill-opacity="0.0" d="m233.39406 153.29329c-0.8756561 -0.716568 -3.9720001 -5.2331085 -4.4982605 -6.6763c-0.5262451 -1.4431763 0.4651184 -2.6993713 1.3407593 -1.9828033c0.8756561 0.71655273 3.386856 4.8390045 3.9131012 6.282181c0.5262604 1.4431915 0.12004089 3.0934906 -0.7556 2.3769226z" fill-rule="evenodd"/><path stroke="#ffffff" stroke-width="3.0" stroke-linejoin="round" stroke-linecap="butt" d="m233.39406 153.29329c-0.8756561 -0.716568 -3.9720001 -5.2331085 -4.4982605 -6.6763c-0.5262451 -1.4431763 0.4651184 -2.6993713 1.3407593 -1.9828033c0.8756561 0.71655273 3.386856 4.8390045 3.9131012 6.282181c0.5262604 1.4431915 0.12004089 3.0934906 -0.7556 2.3769226z" fill-rule="evenodd"/><path fill="#000000" fill-opacity="0.0" d="m183.36003 162.80327c-0.2397461 -0.78804016 0.37101746 -4.859421 0.97180176 -5.9891357c0.60076904 -1.129715 2.3930817 -1.5772095 2.6328278 -0.7891693c0.23976135 0.7880554 -0.5935669 4.3877106 -1.1943359 5.517441c-0.60076904 1.129715 -2.1705322 2.0489044 -2.4102936 1.2608643z" fill-rule="evenodd"/><path stroke="#ffffff" stroke-width="3.0" stroke-linejoin="round" stroke-linecap="butt" d="m183.36003 162.80327c-0.2397461 -0.78804016 0.37101746 -4.859421 0.97180176 -5.9891357c0.60076904 -1.129715 2.3930817 -1.5772095 2.6328278 -0.7891693c0.23976135 0.7880554 -0.5935669 4.3877106 -1.1943359 5.517441c-0.60076904 1.129715 -2.1705322 2.0489044 -2.4102936 1.2608643z" fill-rule="evenodd"/><path fill="#000000" fill-opacity="0.0" d="m264.41663 154.49626c1.791626 0.95851135 6.946045 3.438675 10.749634 5.751114c3.8036194 2.312439 10.059998 6.7695923 12.071991 8.123505" fill-rule="evenodd"/><path stroke="#ffffff" stroke-width="2.0" stroke-linejoin="round" stroke-linecap="butt" d="m264.41663 154.49626c1.791626 0.95851135 6.946045 3.438675 10.749634 5.751114c3.8036194 2.312439 10.059998 6.7695923 12.071991 8.123505" fill-rule="evenodd"/><path fill="#000000" fill-opacity="0.0" d="m363.10916 211.86122c2.462799 -0.5131836 10.641571 -3.0077515 14.776825 -3.0790863c4.135254 -0.07133484 8.362274 2.2092438 10.0347595 2.6510925" fill-rule="evenodd"/><path stroke="#ffffff" stroke-width="3.0" stroke-linejoin="round" stroke-linecap="butt" d="m363.10916 211.86122c2.462799 -0.5131836 10.641571 -3.0077515 14.776825 -3.0790863c4.135254 -0.07133484 8.362274 2.2092438 10.0347595 2.6510925" fill-rule="evenodd"/><path fill="#000000" fill-opacity="0.0" d="m357.9703 204.3503c0.67681885 -0.90948486 2.2822876 -4.1653748 4.060974 -5.4569244c1.778656 -1.2915344 1.6772156 -1.2135925 6.6110535 -2.292328c4.9338684 -1.0787201 19.160004 -3.4833832 22.992004 -4.1800537" fill-rule="evenodd"/><path stroke="#ffffff" stroke-width="3.0" stroke-linejoin="round" stroke-linecap="butt" d="m357.9703 204.3503c0.67681885 -0.90948486 2.2822876 -4.1653748 4.060974 -5.4569244c1.778656 -1.2915344 1.6772156 -1.2135925 6.6110535 -2.292328c4.9338684 -1.0787201 19.160004 -3.4833832 22.992004 -4.1800537" fill-rule="evenodd"/><path fill="#000000" fill-opacity="0.0" d="m379.0307 194.98563c0.27020264 1.4707642 -0.7625427 7.1151733 1.6212158 8.824631c2.383728 1.7094421 10.567688 1.1934052 12.681244 1.4320984" fill-rule="evenodd"/><path stroke="#ffffff" stroke-width="3.0" stroke-linejoin="round" stroke-linecap="butt" d="m379.0307 194.98563c0.27020264 1.4707642 -0.7625427 7.1151733 1.6212158 8.824631c2.383728 1.7094421 10.567688 1.1934052 12.681244 1.4320984" fill-rule="evenodd"/><path fill="#000000" fill-opacity="0.0" d="m377.51746 208.98271c0.5663147 -0.7909546 2.831482 -3.9547882 3.3977966 -4.745743" fill-rule="evenodd"/><path stroke="#ffffff" stroke-width="3.0" stroke-linejoin="round" stroke-linecap="butt" d="m377.51746 208.98271c0.5663147 -0.7909546 2.831482 -3.9547882 3.3977966 -4.745743" fill-rule="evenodd"/><path fill="#000000" fill-opacity="0.0" d="m387.488 204.44476c-0.87768555 -0.3549347 -3.119751 -2.5065765 -3.384491 -3.8208466c-0.26474 -1.31427 0.94821167 -3.5660095 1.796051 -4.064804c0.8478699 -0.49879456 2.7127686 0.039627075 3.2911072 1.0720367c0.5783386 1.0323944 0.462677 3.986786 0.17889404 5.1223907c-0.28378296 1.1356049 -1.0039062 2.0461578 -1.8815613 1.6912231z" fill-rule="evenodd"/><path stroke="#ffffff" stroke-width="3.0" stroke-linejoin="round" stroke-linecap="butt" d="m387.488 204.44476c-0.87768555 -0.3549347 -3.119751 -2.5065765 -3.384491 -3.8208466c-0.26474 -1.31427 0.94821167 -3.5660095 1.796051 -4.064804c0.8478699 -0.49879456 2.7127686 0.039627075 3.2911072 1.0720367c0.5783386 1.0323944 0.462677 3.986786 0.17889404 5.1223907c-0.28378296 1.1356049 -1.0039062 2.0461578 -1.8815613 1.6912231z" fill-rule="evenodd"/><path fill="#000000" fill-opacity="0.0" d="m378.13187 188.95088c-1.9064636 0.3274231 -7.8945312 1.9865723 -11.43869 1.9645996c-3.544159 -0.021972656 -7.2518616 -0.5914459 -9.826294 -2.096405c-2.5744324 -1.5049744 -6.7716675 -5.2882385 -5.62027 -6.9333954c1.1513977 -1.6451569 8.692047 -2.0844574 12.5286255 -2.9375458c3.836609 -0.8530884 8.742493 -1.8174744 10.490997 -2.1809845" fill-rule="evenodd"/><path stroke="#ffffff" stroke-width="3.0" stroke-linejoin="round" stroke-linecap="butt" d="m378.13187 188.95088c-1.9064636 0.3274231 -7.8945312 1.9865723 -11.43869 1.9645996c-3.544159 -0.021972656 -7.2518616 -0.5914459 -9.826294 -2.096405c-2.5744324 -1.5049744 -6.7716675 -5.2882385 -5.62027 -6.9333954c1.1513977 -1.6451569 8.692047 -2.0844574 12.5286255 -2.9375458c3.836609 -0.8530884 8.742493 -1.8174744 10.490997 -2.1809845" fill-rule="evenodd"/><path fill="#000000" fill-opacity="0.0" d="m363.34067 179.08937c0.77459717 1.8903809 3.8730469 9.45195 4.6476746 11.342331" fill-rule="evenodd"/><path stroke="#ffffff" stroke-width="3.0" stroke-linejoin="round" stroke-linecap="butt" d="m363.34067 179.08937c0.77459717 1.8903809 3.8730469 9.45195 4.6476746 11.342331" fill-rule="evenodd"/><path fill="#000000" fill-opacity="0.0" d="m360.10672 190.33144c-1.2861633 1.6708832 -6.4308777 8.354355 -7.717041 10.025238" fill-rule="evenodd"/><path stroke="#ffffff" stroke-width="3.0" stroke-linejoin="round" stroke-linecap="butt" d="m360.10672 190.33144c-1.2861633 1.6708832 -6.4308777 8.354355 -7.717041 10.025238" fill-rule="evenodd"/><path fill="#000000" fill-opacity="0.0" d="m390.45065 192.01651c-1.1884155 -3.446228 -6.8354797 -20.66652 -7.130432 -20.677338c-0.2949524 -0.010803223 4.4672546 17.177048 5.3606873 20.612457" fill-rule="evenodd"/><path stroke="#ffffff" stroke-width="4.0" stroke-linejoin="round" stroke-linecap="butt" d="m390.45065 192.01651c-1.1884155 -3.446228 -6.8354797 -20.66652 -7.130432 -20.677338c-0.2949524 -0.010803223 4.4672546 17.177048 5.3606873 20.612457" fill-rule="evenodd"/><path fill="#000000" fill-opacity="0.0" d="m112.59562 222.30083c1.1252899 -0.29971313 5.0869293 -2.021576 6.7517548 -1.7982941c1.6648254 0.22328186 2.058548 0.7194214 3.2371979 3.13797c1.1786499 2.4185638 1.9897385 8.373657 3.8346863 11.373367c1.8449478 2.99971 2.1194382 6.0844574 7.2350082 6.624893c5.11557 0.5404358 19.54866 -2.8185577 23.458405 -3.3822784" fill-rule="evenodd"/><path stroke="#ffffff" stroke-width="3.0" stroke-linejoin="round" stroke-linecap="butt" d="m112.59562 222.30083c1.1252899 -0.29971313 5.0869293 -2.021576 6.7517548 -1.7982941c1.6648254 0.22328186 2.058548 0.7194214 3.2371979 3.13797c1.1786499 2.4185638 1.9897385 8.373657 3.8346863 11.373367c1.8449478 2.99971 2.1194382 6.0844574 7.2350082 6.624893c5.11557 0.5404358 19.54866 -2.8185577 23.458405 -3.3822784" fill-rule="evenodd"/><path fill="#000000" fill-opacity="0.0" d="m124.744896 230.00595c-0.928421 0.27227783 -3.6583939 1.1812439 -5.5705414 1.6336212c-1.9121475 0.45236206 -4.918625 0.90049744 -5.9023438 1.0805969" fill-rule="evenodd"/><path stroke="#ffffff" stroke-width="3.0" stroke-linejoin="round" stroke-linecap="butt" d="m124.744896 230.00595c-0.928421 0.27227783 -3.6583939 1.1812439 -5.5705414 1.6336212c-1.9121475 0.45236206 -4.918625 0.90049744 -5.9023438 1.0805969" fill-rule="evenodd"/><path fill="#000000" fill-opacity="0.0" d="m126.70812 236.06656c-1.126831 0.2682495 -4.7530212 1.2059021 -6.760971 1.6095276c-2.0079498 0.40364075 -4.4056015 0.6768799 -5.286728 0.81225586" fill-rule="evenodd"/><path stroke="#ffffff" stroke-width="3.0" stroke-linejoin="round" stroke-linecap="butt" d="m126.70812 236.06656c-1.126831 0.2682495 -4.7530212 1.2059021 -6.760971 1.6095276c-2.0079498 0.40364075 -4.4056015 0.6768799 -5.286728 0.81225586" fill-rule="evenodd"/><path fill="#000000" fill-opacity="0.0" d="m112.81509 253.62376c0.6683655 0.03881836 3.168274 -0.60258484 4.010208 0.23284912c0.8419342 0.83543396 1.5506516 3.8341217 1.0413971 4.77977c-0.5092468 0.9456482 -3.4140778 0.7451172 -4.0968933 0.8941345" fill-rule="evenodd"/><path stroke="#ffffff" stroke-width="3.0" stroke-linejoin="round" stroke-linecap="butt" d="m112.81509 253.62376c0.6683655 0.03881836 3.168274 -0.60258484 4.010208 0.23284912c0.8419342 0.83543396 1.5506516 3.8341217 1.0413971 4.77977c-0.5092468 0.9456482 -3.4140778 0.7451172 -4.0968933 0.8941345" fill-rule="evenodd"/><path fill="#000000" fill-opacity="0.0" d="m122.07094 189.26451c-1.1682053 -0.6157074 -6.7087097 -2.558487 -7.0092316 -3.6942444c-0.30051422 -1.1357727 3.224289 -2.2694702 5.2061157 -3.1203613c1.9818268 -0.8508911 5.570694 -1.6541901 6.6848373 -1.9850311" fill-rule="evenodd"/><path stroke="#ffffff" stroke-width="3.0" stroke-linejoin="round" stroke-linecap="butt" d="m122.07094 189.26451c-1.1682053 -0.6157074 -6.7087097 -2.558487 -7.0092316 -3.6942444c-0.30051422 -1.1357727 3.224289 -2.2694702 5.2061157 -3.1203613c1.9818268 -0.8508911 5.570694 -1.6541901 6.6848373 -1.9850311" fill-rule="evenodd"/><path fill="#000000" fill-opacity="0.0" d="m178.9458 204.47726c-7.459137 1.281601 -20.606705 3.8661041 -26.4236 4.42334c-5.81691 0.55722046 -6.5237885 -0.03302002 -8.477798 -1.0799713c-1.9539948 -1.046936 -2.911026 -2.170288 -3.2462463 -5.201706c-0.33520508 -3.031433 0.43333435 -9.686386 1.2349854 -12.986862c0.801651 -3.300476 1.0644226 -4.987686 3.5749512 -6.815979c2.5105438 -1.8283081 6.1885834 -2.5095367 11.488266 -4.153824c5.2996826 -1.6442871 12.893143 -3.816864 20.30983 -5.711914c7.4167023 -1.8950348 16.546738 -3.995224 24.190369 -5.6583557c7.643631 -1.6631165 15.085144 -3.110855 21.671448 -4.320389c6.5863037 -1.2095337 12.384232 -2.3604584 17.846375 -2.9368134c5.462158 -0.5763397 10.880524 -0.8903198 14.926544 -0.52130127c4.046051 0.3690338 5.7932434 1.1715393 9.349701 2.7354279c3.556427 1.5639038 6.9981995 3.403595 11.988922 6.647949c4.9907227 3.2443695 15.251038 10.286194 17.955444 12.818207c2.7043762 2.5320282 -0.16705322 1.7460175 -1.729065 2.373932c-1.5620117 0.62789917 -2.5592346 0.43426514 -7.6430054 1.3934937c-5.08374 0.9592285 -14.108185 2.7747345 -22.859589 4.3618774c-8.751404 1.587143 -18.67781 3.2665405 -29.648865 5.16098c-10.971054 1.8944397 -27.092697 4.627014 -36.177475 6.205673c-9.084778 1.5786438 -10.872055 1.9846344 -18.331192 3.2662354z" fill-rule="evenodd"/><path stroke="#ffffff" stroke-width="3.0" stroke-linejoin="round" stroke-linecap="butt" d="m178.9458 204.47726c-7.459137 1.281601 -20.606705 3.8661041 -26.4236 4.42334c-5.81691 0.55722046 -6.5237885 -0.03302002 -8.477798 -1.0799713c-1.9539948 -1.046936 -2.911026 -2.170288 -3.2462463 -5.201706c-0.33520508 -3.031433 0.43333435 -9.686386 1.2349854 -12.986862c0.801651 -3.300476 1.0644226 -4.987686 3.5749512 -6.815979c2.5105438 -1.8283081 6.1885834 -2.5095367 11.488266 -4.153824c5.2996826 -1.6442871 12.893143 -3.816864 20.30983 -5.711914c7.4167023 -1.8950348 16.546738 -3.995224 24.190369 -5.6583557c7.643631 -1.6631165 15.085144 -3.110855 21.671448 -4.320389c6.5863037 -1.2095337 12.384232 -2.3604584 17.846375 -2.9368134c5.462158 -0.5763397 10.880524 -0.8903198 14.926544 -0.52130127c4.046051 0.3690338 5.7932434 1.1715393 9.349701 2.7354279c3.556427 1.5639038 6.9981995 3.403595 11.988922 6.647949c4.9907227 3.2443695 15.251038 10.286194 17.955444 12.818207c2.7043762 2.5320282 -0.16705322 1.7460175 -1.729065 2.373932c-1.5620117 0.62789917 -2.5592346 0.43426514 -7.6430054 1.3934937c-5.08374 0.9592285 -14.108185 2.7747345 -22.859589 4.3618774c-8.751404 1.587143 -18.67781 3.2665405 -29.648865 5.16098c-10.971054 1.8944397 -27.092697 4.627014 -36.177475 6.205673c-9.084778 1.5786438 -10.872055 1.9846344 -18.331192 3.2662354z" fill-rule="evenodd"/><path fill="#000000" fill-opacity="0.0" d="m141.17973 233.3087c0.7654877 1.3282928 1.3967743 1.1828156 3.104538 1.1441803c1.7077637 -0.038619995 5.6518707 -0.77116394 7.142029 -1.3759918c1.4901581 -0.6048279 1.6518097 -0.78860474 1.7989349 -2.252945c0.14712524 -1.464325 -0.28616333 -5.2109985 -0.9161835 -6.533081c-0.6300354 -1.3220825 -1.1214905 -1.3456268 -2.8639832 -1.3994446c-1.7425079 -0.05381775 -5.9654236 0.47795105 -7.591034 1.0765533c-1.6256256 0.59861755 -2.050293 0.95832825 -2.162674 2.5151215c-0.11238098 1.5567932 0.72288513 5.497299 1.4883728 6.8256073z" fill-rule="evenodd"/><path stroke="#ffffff" stroke-width="3.0" stroke-linejoin="round" stroke-linecap="butt" d="m141.17973 233.3087c0.7654877 1.3282928 1.3967743 1.1828156 3.104538 1.1441803c1.7077637 -0.038619995 5.6518707 -0.77116394 7.142029 -1.3759918c1.4901581 -0.6048279 1.6518097 -0.78860474 1.7989349 -2.252945c0.14712524 -1.464325 -0.28616333 -5.2109985 -0.9161835 -6.533081c-0.6300354 -1.3220825 -1.1214905 -1.3456268 -2.8639832 -1.3994446c-1.7425079 -0.05381775 -5.9654236 0.47795105 -7.591034 1.0765533c-1.6256256 0.59861755 -2.050293 0.95832825 -2.162674 2.5151215c-0.11238098 1.5567932 0.72288513 5.497299 1.4883728 6.8256073z" fill-rule="evenodd"/><path fill="#cfe2f3" d="m309.09232 197.80414c-0.1951294 0.08998108 -3.1451416 0.71383667 -3.5400085 0.7486267c-0.39486694 0.034805298 0.5807495 -0.41505432 1.1707458 -0.53982544c0.58999634 -0.12477112 2.564392 -0.2987671 2.3692627 -0.20880127z" fill-rule="evenodd"/><path stroke="#ffffff" stroke-width="3.0" stroke-linejoin="round" stroke-linecap="butt" d="m309.09232 197.80414c-0.1951294 0.08998108 -3.1451416 0.71383667 -3.5400085 0.7486267c-0.39486694 0.034805298 0.5807495 -0.41505432 1.1707458 -0.53982544c0.58999634 -0.12477112 2.564392 -0.2987671 2.3692627 -0.20880127z" fill-rule="evenodd"/><path fill="#cfe2f3" d="m256.6437 203.6387c-0.99165344 0.25390625 -10.617508 2.15477 -11.551041 2.2810364c-0.93351746 0.12626648 4.0247345 -1.14328 5.9499207 -1.5234375c1.9251709 -0.38017273 6.5927887 -1.0115051 5.60112 -0.7575989z" fill-rule="evenodd"/><path stroke="#ffffff" stroke-width="3.0" stroke-linejoin="round" stroke-linecap="butt" d="m256.6437 203.6387c-0.99165344 0.25390625 -10.617508 2.15477 -11.551041 2.2810364c-0.93351746 0.12626648 4.0247345 -1.14328 5.9499207 -1.5234375c1.9251709 -0.38017273 6.5927887 -1.0115051 5.60112 -0.7575989z" fill-rule="evenodd"/><path fill="#cfe2f3" d="m199.03055 213.84201c-1.0433197 0.2657776 -10.566177 2.1083221 -11.427429 2.2110596c-0.86125183 0.10273743 4.3553467 -1.2261505 6.259918 -1.5946655c1.9045715 -0.368515 6.2108307 -0.88217163 5.167511 -0.61639404z" fill-rule="evenodd"/><path stroke="#ffffff" stroke-width="3.0" stroke-linejoin="round" stroke-linecap="butt" d="m199.03055 213.84201c-1.0433197 0.2657776 -10.566177 2.1083221 -11.427429 2.2110596c-0.86125183 0.10273743 4.3553467 -1.2261505 6.259918 -1.5946655c1.9045715 -0.368515 6.2108307 -0.88217163 5.167511 -0.61639404z" fill-rule="evenodd"/><path fill="#000000" fill-opacity="0.0" d="m294.55698 184.49315c0.86468506 2.376999 3.7786865 8.516876 5.1881714 14.261993c1.4095154 5.745117 2.724701 15.068878 3.2687988 20.208725c0.5440674 5.1398315 0.40667725 8.072662 -0.004272461 10.630325c-0.4109192 2.557663 -1.1114807 3.67807 -2.4613342 4.7156677c-1.349884 1.0375824 -3.1148376 0.9425354 -5.6378784 1.509903c-2.5230713 0.56736755 -1.7740479 0.5092621 -9.500488 1.8943024c-7.7264404 1.385025 -26.915314 4.6304474 -36.858154 6.4158936c-9.942841 1.7854309 -17.517136 3.341095 -22.798843 4.2967377c-5.281723 0.9556427 -6.801132 1.3120117 -8.891464 1.437088c-2.090332 0.12509155 -2.5679932 -0.13002014 -3.650528 -0.6865692c-1.08255 -0.5565491 -1.9643555 -1.3183746 -2.8447266 -2.6527405c-0.8803711 -1.3343506 -1.4131927 -3.4822235 -2.4374847 -5.3533783c-1.0242767 -1.87117 -2.3686066 -4.221344 -3.708252 -5.8736115c-1.3396454 -1.6522522 -2.8181458 -2.8313599 -4.3296204 -4.0399323c-1.5114746 -1.2085876 -3.0948486 -2.3831482 -4.7392273 -3.211563c-1.6443787 -0.8284302 -3.403244 -1.3504181 -5.12706 -1.7589569c-1.7238159 -0.40855408 -3.8634644 -0.16662598 -5.2158356 -0.6923065c-1.3523865 -0.52568054 -2.1789398 -1.2465515 -2.898468 -2.461792c-0.71951294 -1.2152252 -1.1441345 -1.7435455 -1.4186554 -4.8296204c-0.27453613 -3.0860748 -0.19044495 -11.405655 -0.22853088 -13.686783" fill-rule="evenodd"/><path stroke="#ffffff" stroke-width="3.0" stroke-linejoin="round" stroke-linecap="butt" d="m294.55698 184.49315c0.86468506 2.376999 3.7786865 8.516876 5.1881714 14.261993c1.4095154 5.745117 2.724701 15.068878 3.2687988 20.208725c0.5440674 5.1398315 0.40667725 8.072662 -0.004272461 10.630325c-0.4109192 2.557663 -1.1114807 3.67807 -2.4613342 4.7156677c-1.349884 1.0375824 -3.1148376 0.9425354 -5.6378784 1.509903c-2.5230713 0.56736755 -1.7740479 0.5092621 -9.500488 1.8943024c-7.7264404 1.385025 -26.915314 4.6304474 -36.858154 6.4158936c-9.942841 1.7854309 -17.517136 3.341095 -22.798843 4.2967377c-5.281723 0.9556427 -6.801132 1.3120117 -8.891464 1.437088c-2.090332 0.12509155 -2.5679932 -0.13002014 -3.650528 -0.6865692c-1.08255 -0.5565491 -1.9643555 -1.3183746 -2.8447266 -2.6527405c-0.8803711 -1.3343506 -1.4131927 -3.4822235 -2.4374847 -5.3533783c-1.0242767 -1.87117 -2.3686066 -4.221344 -3.708252 -5.8736115c-1.3396454 -1.6522522 -2.8181458 -2.8313599 -4.3296204 -4.0399323c-1.5114746 -1.2085876 -3.0948486 -2.3831482 -4.7392273 -3.211563c-1.6443787 -0.8284302 -3.403244 -1.3504181 -5.12706 -1.7589569c-1.7238159 -0.40855408 -3.8634644 -0.16662598 -5.2158356 -0.6923065c-1.3523865 -0.52568054 -2.1789398 -1.2465515 -2.898468 -2.461792c-0.71951294 -1.2152252 -1.1441345 -1.7435455 -1.4186554 -4.8296204c-0.27453613 -3.0860748 -0.19044495 -11.405655 -0.22853088 -13.686783" fill-rule="evenodd"/><path fill="#000000" fill-opacity="0.0" d="m235.49985 194.49683c0.58638 1.563446 2.3851166 5.2829895 3.5182495 9.380737c1.1331177 4.097748 2.5312958 10.458618 3.2805023 15.205704c0.74920654 4.747101 0.90852356 8.983017 1.2147369 13.276825c0.30619812 4.293808 0.5187683 10.405045 0.6225128 12.486053" fill-rule="evenodd"/><path stroke="#ffffff" stroke-width="3.0" stroke-linejoin="round" stroke-linecap="butt" d="m235.49985 194.49683c0.58638 1.563446 2.3851166 5.2829895 3.5182495 9.380737c1.1331177 4.097748 2.5312958 10.458618 3.2805023 15.205704c0.74920654 4.747101 0.90852356 8.983017 1.2147369 13.276825c0.30619812 4.293808 0.5187683 10.405045 0.6225128 12.486053" fill-rule="evenodd"/><path fill="#cfe2f3" d="m214.90155 240.30382c0.020553589 -7.171631E-4 1.4924469 -3.772766 12.529709 -6.4407043c11.037277 -2.667923 42.20137 -8.279663 53.693893 -9.566879c11.492523 -1.2872162 15.218201 1.8139954 15.261261 1.8435669c0.043029785 0.029571533 -3.4898682 -2.954071 -15.00296 -1.6661377c-11.513062 1.2879333 -42.995148 6.7554016 -54.075455 9.393753c-11.080322 2.6383667 -12.426987 6.4371185 -12.406448 6.4364014z" fill-rule="evenodd"/><path stroke="#ffffff" stroke-width="3.0" stroke-linejoin="round" stroke-linecap="butt" d="m214.90155 240.30382c0.020553589 -7.171631E-4 1.4924469 -3.772766 12.529709 -6.4407043c11.037277 -2.667923 42.20137 -8.279663 53.693893 -9.566879c11.492523 -1.2872162 15.218201 1.8139954 15.261261 1.8435669c0.043029785 0.029571533 -3.4898682 -2.954071 -15.00296 -1.6661377c-11.513062 1.2879333 -42.995148 6.7554016 -54.075455 9.393753c-11.080322 2.6383667 -12.426987 6.4371185 -12.406448 6.4364014z" fill-rule="evenodd"/><path fill="#000000" fill-opacity="0.0" d="m278.79922 175.6611c0.7055664 -1.5774994 2.9274902 -1.5194244 4.963806 -1.1108551c2.036316 0.4085846 5.8238525 2.2987823 7.2540894 3.5622864c1.4302368 1.263504 1.5106201 3.0013275 1.327301 4.018753c-0.18328857 1.0174103 -0.70977783 1.4319 -2.427124 2.0858002c-1.7173462 0.65390015 -6.1456604 1.8712158 -7.876953 1.8375854c-1.7312927 -0.03363037 -1.9706116 -0.30714417 -2.5108032 -2.0393982c-0.54019165 -1.7322693 -1.4358826 -6.7766724 -0.73031616 -8.354172z" fill-rule="evenodd"/><path stroke="#ffffff" stroke-width="3.0" stroke-linejoin="round" stroke-linecap="butt" d="m278.79922 175.6611c0.7055664 -1.5774994 2.9274902 -1.5194244 4.963806 -1.1108551c2.036316 0.4085846 5.8238525 2.2987823 7.2540894 3.5622864c1.4302368 1.263504 1.5106201 3.0013275 1.327301 4.018753c-0.18328857 1.0174103 -0.70977783 1.4319 -2.427124 2.0858002c-1.7173462 0.65390015 -6.1456604 1.8712158 -7.876953 1.8375854c-1.7312927 -0.03363037 -1.9706116 -0.30714417 -2.5108032 -2.0393982c-0.54019165 -1.7322693 -1.4358826 -6.7766724 -0.73031616 -8.354172z" fill-rule="evenodd"/><path fill="#000000" fill-opacity="0.0" d="m230.55069 161.96504c0.9323578 2.822815 3.8602753 11.75499 5.594101 16.936874c1.733841 5.181885 4.007431 11.795364 4.808914 14.154434" fill-rule="evenodd"/><path stroke="#ffffff" stroke-width="3.0" stroke-linejoin="round" stroke-linecap="butt" d="m230.55069 161.96504c0.9323578 2.822815 3.8602753 11.75499 5.594101 16.936874c1.733841 5.181885 4.007431 11.795364 4.808914 14.154434" fill-rule="evenodd"/><path fill="#000000" fill-opacity="0.0" d="m224.77602 163.16724c0.51457214 2.2019043 1.872055 7.94928 3.0874329 13.2114105c1.2153625 5.262146 3.5039825 15.3012085 4.204788 18.361435" fill-rule="evenodd"/><path stroke="#ffffff" stroke-width="3.0" stroke-linejoin="round" stroke-linecap="butt" d="m224.77602 163.16724c0.51457214 2.2019043 1.872055 7.94928 3.0874329 13.2114105c1.2153625 5.262146 3.5039825 15.3012085 4.204788 18.361435" fill-rule="evenodd"/><path fill="#000000" fill-opacity="0.0" d="m188.8331 170.67511c0.6515198 2.5516357 2.6370544 10.215958 3.909134 15.309799c1.2720795 5.093857 3.1027832 12.71106 3.723343 15.253281" fill-rule="evenodd"/><path stroke="#ffffff" stroke-width="3.0" stroke-linejoin="round" stroke-linecap="butt" d="m188.8331 170.67511c0.6515198 2.5516357 2.6370544 10.215958 3.909134 15.309799c1.2720795 5.093857 3.1027832 12.71106 3.723343 15.253281" fill-rule="evenodd"/><path fill="#ffffff" d="m175.14793 176.34352c0.56347656 1.2206879 0.5058899 1.0756378 0.7422943 5.1631165c0.23641968 4.0874786 1.019989 15.482925 0.6762085 19.36177c-0.34379578 3.87883 -4.1101074 3.44841 -2.7389069 3.9112854c1.3711853 0.4628601 9.556152 -0.6261139 10.966095 -1.1340332c1.4099426 -0.5079346 -1.9475708 -0.53685 -2.5064087 -1.9135132c-0.55885315 -1.376648 -0.6063385 -2.7488403 -0.84664917 -6.3464355c-0.24031067 -3.5975952 -0.48501587 -11.782272 -0.59524536 -15.23909c-0.11021423 -3.456833 -0.3946228 -4.156357 -0.066085815 -5.5018616c0.32852173 -1.3455048 2.5987701 -2.3093262 2.0372772 -2.5711365c-0.56147766 -0.2618103 -3.6883545 0.6487732 -5.406204 1.0002594c-1.7178345 0.3514862 -4.5237885 0.56370544 -4.9008484 1.1086426c-0.37705994 0.5449524 2.0750122 0.9403076 2.6384735 2.1609955z" fill-rule="evenodd"/><path stroke="#ffffff" stroke-width="2.0" stroke-linejoin="round" stroke-linecap="butt" d="m175.14793 176.34352c0.56347656 1.2206879 0.5058899 1.0756378 0.7422943 5.1631165c0.23641968 4.0874786 1.019989 15.482925 0.6762085 19.36177c-0.34379578 3.87883 -4.1101074 3.44841 -2.7389069 3.9112854c1.3711853 0.4628601 9.556152 -0.6261139 10.966095 -1.1340332c1.4099426 -0.5079346 -1.9475708 -0.53685 -2.5064087 -1.9135132c-0.55885315 -1.376648 -0.6063385 -2.7488403 -0.84664917 -6.3464355c-0.24031067 -3.5975952 -0.48501587 -11.782272 -0.59524536 -15.23909c-0.11021423 -3.456833 -0.3946228 -4.156357 -0.066085815 -5.5018616c0.32852173 -1.3455048 2.5987701 -2.3093262 2.0372772 -2.5711365c-0.56147766 -0.2618103 -3.6883545 0.6487732 -5.406204 1.0002594c-1.7178345 0.3514862 -4.5237885 0.56370544 -4.9008484 1.1086426c-0.37705994 0.5449524 2.0750122 0.9403076 2.6384735 2.1609955z" fill-rule="evenodd"/><path fill="#000000" fill-opacity="0.0" d="m302.75473 231.25203c0.5794983 -0.19924927 2.3122864 -0.97579956 3.4771118 -1.1954803c1.164856 -0.21969604 2.9266663 -0.10221863 3.5119934 -0.122665405" fill-rule="evenodd"/><path stroke="#ffffff" stroke-width="3.0" stroke-linejoin="round" stroke-linecap="butt" d="m302.75473 231.25203c0.5794983 -0.19924927 2.3122864 -0.97579956 3.4771118 -1.1954803c1.164856 -0.21969604 2.9266663 -0.10221863 3.5119934 -0.122665405" fill-rule="evenodd"/><path fill="#000000" fill-opacity="0.0" d="m59.086273 128.27118l47.627716 -53.07495l52.54413 46.305183l-47.627716 53.074944z" fill-rule="evenodd"/><path fill="#ffffff" d="m108.69252 153.0253l-28.146988 -24.804886q-1.1723099 -1.0331116 -1.2963028 -2.579361q-0.11356354 -1.5578842 0.9404373 -2.7324295l15.350838 -17.10653q12.814972 -14.28064 26.132332 -2.5445404q13.317368 11.736092 0.502388 26.016724l-8.995529 10.024368l4.3726883 3.853485q1.1723022 1.0330963 1.26371 2.5922852q0.09140015 1.5591736 -0.9626007 2.7337189l-3.7777023 4.2097626q-1.0435638 1.1629181 -2.6155472 1.2770538q-1.5836945 0.10379028 -2.767723 -0.9396515zm-3.343811 -20.627808l6.699684 -7.4659424q3.1933136 -3.5585327 3.6032257 -6.2378464q0.42035675 -2.6909409 -2.838646 -5.562973q-3.2590027 -2.8720398 -5.9067307 -2.1439972q-2.637291 0.7164078 -5.830597 4.274933l-6.699692 7.4659348l10.972755 9.669891z" fill-rule="nonzero"/><path fill="#000000" fill-opacity="0.0" d="m107.21952 74.6477l61.216133 -36.92906l36.531647 59.506226l-61.216125 36.929054z" fill-rule="evenodd"/><path fill="#ffffff" d="m188.10626 89.94404q1.1772156 1.9175415 -0.950058 3.2008362l-6.194504 3.7368774q-1.2174988 0.73446655 -3.067459 0.73734283q-1.8499603 0.0028762817 -3.2918396 -0.7331238l-8.560577 -4.178726q-4.829544 -2.341957 -8.227829 -0.2919159l-5.4720306 3.3010483l6.278427 10.226913q0.81752014 1.3316345 0.44802856 2.8501358q-0.36949158 1.5184937 -1.7207642 2.3336716l-4.843231 2.9217072q-1.3379059 0.8070984 -2.8734436 0.45606995q-1.5437317 -0.36434174 -2.3694 -1.7092896l-19.628311 -31.972443q-0.8175049 -1.3316269 -0.4829483 -2.8473053q0.34792328 -1.5237427 1.6992111 -2.338913l21.286087 -12.840984q6.194504 -3.7368813 12.311447 -2.7919884q6.1087646 0.9315796 9.632217 6.670906q4.9949646 8.136261 -3.0065765 14.842781q0.14422607 -0.4519577 2.4564514 0.17869568q2.3174438 0.60926056 5.6999054 2.2366104l9.28746 4.616127q1.0992432 0.5959854 1.5897369 1.3949661zm-41.225235 -3.1229553l10.168091 -6.133972q2.4617462 -1.4850616 3.6265259 -3.410347q1.1647949 -1.9252853 0.052993774 -3.7362976q-1.1199799 -1.8243332 -3.3802338 -1.6834335q-2.260254 0.14089203 -4.722 1.6259613l-10.168091 6.133972l4.422714 7.204117z" fill-rule="nonzero"/><path fill="#000000" fill-opacity="0.0" d="m169.12317 37.39926l69.68329 -16.518225l16.422165 67.765335l-69.68327 16.518227z" fill-rule="evenodd"/><path fill="#ffffff" d="m234.50671 75.713295q-4.94693 6.9856567 -16.897018 9.81839q-11.934891 2.829132 -19.561401 -1.1760178q-7.630188 -4.02034 -10.493286 -15.83477q-2.8667755 -11.82962 2.0990448 -18.803688q4.9621277 -6.989258 16.897018 -9.818386q11.9500885 -2.832737 19.561401 1.1760178q7.6228333 3.9899673 10.489609 15.819584q2.8630981 11.81443 -2.0953674 18.81887zm-15.899826 -24.942684q-3.4864197 -2.5778465 -9.674332 -1.111023q-6.1878967 1.4668236 -8.129181 5.331295q-1.9449615 3.8492851 -0.34043884 10.470222q1.6045074 6.620941 5.102463 9.18q3.4979553 2.5590591 9.685852 1.0922318q6.1878967 -1.4668198 8.117645 -5.3125q1.9297638 -3.8456879 0.32525635 -10.466625q-1.6045074 -6.620941 -5.087265 -9.183601z" fill-rule="nonzero"/><path fill="#000000" fill-opacity="0.0" d="m232.62234 19.97445l71.52692 3.7910671l-3.6531372 69.59317l-71.52695 -3.791069z" fill-rule="evenodd"/><path fill="#ffffff" d="m252.83258 67.20383l5.0275574 0.79846954l2.1220093 0.112472534q3.8071594 0.20178223 5.4748535 -1.1649857q1.6676941 -1.3667755 1.858551 -5.0023956l1.2744751 -24.279076q0.08190918 -1.5603523 1.2330933 -2.6259155q1.1668091 -1.0647354 2.7427063 -0.9812088l5.6015015 0.29689026q1.6227417 0.086006165 2.6871948 1.2690048q1.0644531 1.1829948 0.98254395 2.7433472l-1.2695923 24.185455q-0.42837524 8.160637 -6.091675 12.319847q-5.647705 4.160034 -14.744324 3.6779022l-8.519302 -0.45154572q-1.5603027 -0.08269501 -2.60997 -1.24926q-1.0496674 -1.1665726 -0.9677582 -2.726921l0.17855835 -3.4015656q0.08190918 -1.5603561 1.2010803 -2.611969q1.1347656 -1.0507889 2.7730865 -0.9639511l1.0454102 0.055404663z" fill-rule="nonzero"/><path fill="#000000" fill-opacity="0.0" d="m463.56497 143.3056l-43.769714 -56.256737l-55.68515 42.58181l43.769714 56.256744z" fill-rule="evenodd"/><path fill="#ffffff" d="m412.6649 108.49643l2.246643 -1.7179871q1.2908936 -0.9871216 2.8313904 -0.78829193q1.5404968 0.19883728 2.5383606 1.4813766l23.478455 30.17662q0.99786377 1.282547 0.80062866 2.810196q-0.1972351 1.5276642 -1.4880981 2.5147858l-2.246643 1.7179871q-1.2908936 0.9871216 -2.8313904 0.78829956q-1.5281067 -0.20832825 -2.5259705 -1.4908752l-7.6662292 -9.8533325l-24.588928 18.802872q-1.2536316 0.9586487 -2.7913208 0.73799133q-1.5252686 -0.23014832 -2.4943542 -1.4756927l-3.4924927 -4.4888763q-0.9595032 -1.2332153 -0.7966919 -2.7542267q0.17523193 -1.5305023 1.428894 -2.489151l24.588898 -18.802864l-7.6662292 -9.85334q-0.99786377 -1.2825394 -0.8130493 -2.800705q0.1972351 -1.5276642 1.4881287 -2.5147858z" fill-rule="nonzero"/><path fill="#000000" fill-opacity="0.0" d="m420.77844 87.30812l-58.484802 -41.02477l-40.66281 56.866016l58.484802 41.024765z" fill-rule="evenodd"/><path fill="#ffffff" d="m346.29834 98.35037q-1.546814 -7.936844 5.1788635 -17.342567q6.7347717 -9.4184265 14.807343 -10.607666q8.0816345 -1.2019501 17.534698 5.4290085l5.500458 3.858345q5.8457947 4.100601 8.212952 10.379845q2.3799744 6.2882156 -1.500946 11.715576q-1.3178711 1.84301 -3.0252075 1.8668671q-1.707367 0.023849487 -2.7818604 -0.72987366l-2.9292908 -2.0547867q-2.763031 -1.9381485 -1.9891357 -6.1095047q0.8421936 -4.562401 -2.9057617 -7.191452l-4.3875732 -3.0776978q-5.0399475 -3.5353165 -8.22641 -2.6785965q-3.1864624 0.8567276 -7.4400024 6.8052063q-4.244446 5.9357758 -4.011841 9.209938q0.2326355 3.27417 5.2725525 6.8094864l4.899231 3.4366074q3.7479858 2.6290588 7.791809 0.33156586q3.7304688 -2.1547012 6.519043 -0.19861603l2.9421082 2.0637665q1.5477905 1.0857162 1.6178284 2.814392q0.09188843 1.7249374 -0.8169861 2.9959793q-3.88089 5.427353 -10.637939 5.2872467q-6.744232 -0.13113403 -12.590057 -4.231735l-6.024872 -4.2262344q-9.4530945 -6.6309586 -11.009003 -14.5550995z" fill-rule="nonzero"/><path fill="#000000" fill-opacity="0.0" d="m361.64505 45.870045l-68.351746 -21.290907l-21.167877 66.44523l68.351776 21.290909z" fill-rule="evenodd"/><path fill="#ffffff" d="m292.5598 80.11482l11.387909 -35.74627q0.47903442 -1.5036964 1.8804016 -2.1964035q1.4060974 -0.707592 2.8979187 -0.24291229l33.16278 10.329887q1.5067139 0.46932983 2.2094727 1.8665466q0.7176819 1.4018669 0.2434082 2.8906746l-0.85849 2.694744q-0.47903442 1.5036926 -1.8749695 2.2308235q-1.395935 0.7271309 -2.8877563 0.26244736l-24.13736 -7.5185585l-2.0821838 6.535866l20.661469 6.435848q1.4918213 0.46468353 2.2142334 1.8516617q0.7224426 1.3869781 0.24813843 2.8757858l-0.85849 2.6947403q-0.47427368 1.4888077 -1.8702087 2.2159348q-1.395935 0.7271347 -2.8877563 0.26245117l-20.661469 -6.435852l-2.1201172 6.6549683l24.077698 7.499977q1.4768982 0.4600296 2.189148 1.8274765q0.71224976 1.3674393 0.23321533 2.8711395l-0.8774414 2.7542953q-0.47906494 1.5036926 -1.8898926 2.2261734q-1.4061279 0.7075958 -2.8979187 0.24291229l-33.028534 -10.288063q-1.4917908 -0.46468353 -2.2338867 -1.8414154q-0.7373352 -1.3916321 -0.23931885 -2.9548798z" fill-rule="nonzero"/></g></svg>