<svg version="1.1" viewBox="0.0 0.0 32.0 32.0" fill="none" stroke="none" stroke-linecap="square" stroke-miterlimit="10" xmlns:xlink="http://www.w3.org/1999/xlink" xmlns="http://www.w3.org/2000/svg"><clipPath id="p.0"><path d="m0 0l32.0 0l0 32.0l-32.0 0l0 -32.0z" clip-rule="nonzero"/></clipPath><g clip-path="url(#p.0)"><path fill="#000000" fill-opacity="0.0" d="m0 0l32.0 0l0 32.0l-32.0 0z" fill-rule="evenodd"/><path fill="#ffffff" d="m0.46850392 15.996063l0 0c0 -8.575634 6.951925 -15.527559 15.527559 -15.527559l0 0c4.118164 0 8.067659 1.6359346 10.979643 4.547917c2.9119816 2.911982 4.5479164 6.8614774 4.5479164 10.979643l0 0c0 8.575634 -6.9519253 15.527559 -15.527559 15.527559l0 0c-8.575634 0 -15.527559 -6.9519253 -15.527559 -15.527559z" fill-rule="evenodd"/><path stroke="#000000" stroke-width="0.5328083989501312" stroke-linejoin="round" stroke-linecap="butt" d="m0.46850392 15.996063l0 0c0 -8.575634 6.951925 -15.527559 15.527559 -15.527559l0 0c4.118164 0 8.067659 1.6359346 10.979643 4.547917c2.9119816 2.911982 4.5479164 6.8614774 4.5479164 10.979643l0 0c0 8.575634 -6.9519253 15.527559 -15.527559 15.527559l0 0c-8.575634 0 -15.527559 -6.9519253 -15.527559 -15.527559z" fill-rule="evenodd"/><path fill="#000000" fill-opacity="0.0" d="m1.4692278 16.002703l0 0c0 -8.0276985 6.5077353 -14.535433 14.535434 -14.535433l0 0c3.8550358 0 7.5521793 1.5314072 10.278103 4.25733c2.7259216 2.725922 4.25733 6.4230666 4.25733 10.278103l0 0c0 8.0276985 -6.507736 14.535433 -14.535433 14.535433l0 0c-8.0276985 0 -14.535434 -6.5077343 -14.535434 -14.535433z" fill-rule="evenodd"/><path stroke="#000000" stroke-width="0.26771653543307083" stroke-linejoin="round" stroke-linecap="butt" d="m1.4692278 16.002703l0 0c0 -8.0276985 6.5077353 -14.535433 14.535434 -14.535433l0 0c3.8550358 0 7.5521793 1.5314072 10.278103 4.25733c2.7259216 2.725922 4.25733 6.4230666 4.25733 10.278103l0 0c0 8.0276985 -6.507736 14.535433 -14.535433 14.535433l0 0c-8.0276985 0 -14.535434 -6.5077343 -14.535434 -14.535433z" fill-rule="evenodd"/><path fill="#000000" fill-opacity="0.0" d="m2.6153128 10.333284l2.3357422 -3.752327l3.7056499 2.2611084l-2.335742 3.752327z" fill-rule="evenodd"/><path fill="#000000" d="m5.9267907 11.31161l-1.9874499 -1.2126989q-0.06669307 -0.04069519 -0.08701873 -0.12631035q-0.033664227 -0.09375477 0.015878677 -0.17334461l0.7514019 -1.2071133q0.6192875 -0.9948745 1.552989 -0.42514992q0.9203625 0.5615854 0.30107498 1.5564594l-0.4458866 0.71630955l0.32012606 0.19533443q0.06669283 0.040694237 0.09210014 0.14771366q0.02032566 0.08561611 -0.020960331 0.15194035l-0.1899147 0.30509472q-0.04128599 0.06632519 -0.13592625 0.100094795q-0.09972143 0.012365341 -0.16641426 -0.02832985zm-0.43255424 -1.1974049l0.3302865 -0.5305996q0.1568861 -0.25203514 0.15116882 -0.4202528q0.0025405884 -0.18148327 -0.22421551 -0.3198452q-0.24009466 -0.14650059 -0.40269804 -0.06268406q-0.15434599 0.07055092 -0.3112321 0.32258606l-0.3302865 0.53059864l0.7869768 0.48019695z" fill-rule="nonzero"/><path fill="#000000" fill-opacity="0.0" d="m4.976007 6.5420337l3.3389583 -2.9129822l2.8703918 3.239239l-3.3389578 2.9129825z" fill-rule="evenodd"/><path fill="#000000" d="m10.063617 6.636222q0.08290386 0.09355688 -0.023062706 0.18600416l-0.3296728 0.28761435q-0.07064438 0.06163168 -0.18274021 0.07648468q-0.11209583 0.0148534775 -0.19923306 -0.012804031l-0.5685072 -0.14682245q-0.31604767 -0.09751177 -0.5044317 0.06683922l-0.30612564 0.2670703l0.49742317 0.56134176q0.05181408 0.05847311 0.044758797 0.16830587q-0.0056438446 0.08786583 -0.06451416 0.13922596l-0.2708025 0.23625469q-0.058870316 0.051359177 -0.15919256 0.055940628q-0.09891081 -0.017385483 -0.15072584 -0.075858116l-1.5440826 -1.7424984q-0.051815033 -0.05847311 -0.04617071 -0.14633942q-0.0047187805 -0.09956074 0.0659256 -0.16119242l1.1538558 -1.0066495q0.34144688 -0.29788637 0.7191868 -0.29566717q0.37915134 -0.019747257 0.64858913 0.28431273q0.38342953 0.43270063 0.054242134 0.8857751q-0.06782246 0.017698765 0.07536316 0.037929535q0.14318466 0.02023077 0.37350655 0.06811857l0.6320963 0.19502354q0.053225517 0.036506653 0.08431435 0.07159042zm-2.5282922 0.2566018l0.5651536 -0.49305296q0.1295147 -0.11299133 0.18225479 -0.24194527q0.054151535 -0.15092087 -0.028751373 -0.24447775q-0.09326744 -0.10525131 -0.24068546 -0.059582233q-0.14600706 0.023702145 -0.27552176 0.13669348l-0.5651536 0.49305296l0.3627038 0.40931177z" fill-rule="nonzero"/><path fill="#000000" fill-opacity="0.0" d="m8.353492 3.6021574l4.0754957 -1.7581854l1.731863 3.9597943l-4.0754957 1.7581859z" fill-rule="evenodd"/><path fill="#000000" d="m12.732886 5.259307q-0.22092533 0.46968174 -0.9095764 0.76676846q-0.68865013 0.29708672 -1.1994162 0.14305973q-0.5026798 -0.17453241 -0.796957 -0.84737825q-0.30053806 -0.68716145 -0.07961273 -1.1568427q0.23527241 -0.4758711 0.9239235 -0.7729578q0.68865013 -0.29708672 1.1850691 -0.13687015q0.510766 0.15402699 0.8113041 0.84118867q0.29427624 0.67284536 0.065265656 1.163032zm-1.211483 -1.3662457q-0.23921108 -0.11802387 -0.6122303 0.04289794q-0.37301922 0.16092181 -0.44943905 0.41511083q-0.07641983 0.25418854 0.09889412 0.65503263q0.16905308 0.3865285 0.40826416 0.50455236q0.23921204 0.11802387 0.6122303 -0.042898178q0.37301922 -0.16092205 0.44943905 -0.4151106q0.076420784 -0.25418854 -0.09263229 -0.640717q-0.17531395 -0.4008441 -0.414526 -0.51886797z" fill-rule="nonzero"/><path fill="#000000" fill-opacity="0.0" d="m12.041764 1.8551812l4.406657 -0.5383098l0.5261841 4.287406l-4.4066563 0.53831005z" fill-rule="evenodd"/><path fill="#000000" d="m13.776802 4.544819l0.31400108 -0.006875515l0.1395874 -0.017051697q0.23264599 -0.028419495 0.3161869 -0.11733055q0.09714794 -0.10631418 0.06859779 -0.33894396l-0.18462467 -1.5043383q-0.009516716 -0.07754326 0.044909477 -0.14715648q0.06803131 -0.087016344 0.14558029 -0.09648943l0.35672283 -0.043576717q0.07754803 -0.009473324 0.14910412 0.060491323q0.08516216 0.05256152 0.09467888 0.13010454l0.18272114 1.4888296q0.06090641 0.49627686 -0.23053646 0.8152194q-0.29334736 0.30343437 -0.85169697 0.37164164l-0.52732944 0.06441784q-0.07754898 0.009473324 -0.16271019 -0.043088436q-0.07155609 -0.06996441 -0.08107281 -0.14750767l-0.026646614 -0.21712112q-0.009516716 -0.07754326 0.044908524 -0.14715624q0.052521706 -0.08512163 0.14558029 -0.09648943l0.06203842 -0.00757885z" fill-rule="nonzero"/><path fill="#000000" fill-opacity="0.0" d="m27.465645 6.8982925l-3.2772064 -2.9629934l-2.940508 3.1985161l3.2772064 2.9629931z" fill-rule="evenodd"/><path fill="#000000" d="m23.969576 5.3411193l0.12690353 -0.1380372q0.05287552 -0.05751562 0.14153671 -0.061612606q0.1108284 -0.0051207542 0.18036842 0.05775261l1.7501183 1.5823202q0.06954193 0.06287384 0.06302643 0.16230488q0.004058838 0.087928295 -0.04881668 0.14544392l-0.12690353 0.13803768q-0.06344986 0.06901884 -0.15211296 0.07311535q-0.088661194 0.004096985 -0.15820312 -0.058776855l-0.5795078 -0.52394676l-1.3007545 1.4148841q-0.06345177 0.06901932 -0.16370201 0.06263733q-0.0886631 0.004096031 -0.14661407 -0.048297882l-0.26657295 -0.24101591q-0.06954193 -0.06287384 -0.07360077 -0.15080214q-0.0040607452 -0.087928295 0.05939102 -0.15694666l1.3007526 -1.414885l-0.57950974 -0.52394676q-0.069540024 -0.06287384 -0.08518982 -0.16128111q-0.0040607452 -0.087928295 0.05939102 -0.15694714z" fill-rule="nonzero"/><path fill="#000000" fill-opacity="0.0" d="m24.25124 3.9405441l-4.0114117 -1.8748529l-1.8698082 3.9087894l4.0114117 1.8748531z" fill-rule="evenodd"/><path fill="#000000" d="m19.822535 5.41939q-0.17722702 -0.46227407 0.12620354 -1.0965881q0.31017303 -0.6484101 0.78408813 -0.8063543q0.4739132 -0.15794396 1.1250553 0.14638638l0.36803627 0.17201257q0.39634705 0.18524432 0.6066189 0.5422318q0.21701431 0.3428917 0.03495598 0.72347975q-0.06068611 0.126863 -0.15843391 0.15016699q-0.091005325 0.009208202 -0.16178131 -0.023870945l-0.21232986 -0.09923792q-0.18401718 -0.08600664 -0.18196106 -0.34375572q0.015542984 -0.28594112 -0.25340652 -0.41164255l-0.29726028 -0.13893318q-0.35387993 -0.16539717 -0.54870605 -0.08398104q-0.18067169 0.08803129 -0.38295937 0.51090765q-0.19554329 0.4087801 -0.14973068 0.6026659q0.05996895 0.20050144 0.41384888 0.3658986l0.3397255 0.15878105q0.25479507 0.11908531 0.47592354 -0.053521156q0.20697212 -0.17922306 0.3909912 -0.093216896l0.19817352 0.09262228q0.113241196 0.052927017 0.115249634 0.15735006q0.022907257 0.0969429 -0.017551422 0.18151808q-0.17531395 0.36649275 -0.58787346 0.43238163q-0.3916607 0.058408737 -0.78800774 -0.12683582l-0.41050148 -0.1918602q-0.6511402 -0.30433035 -0.82836723 -0.7666049z" fill-rule="nonzero"/><path fill="#000000" fill-opacity="0.0" d="m20.195791 2.0474417l-4.4012356 -0.5640811l-0.57676125 4.283731l4.4012356 0.5640812z" fill-rule="evenodd"/><path fill="#000000" d="m16.352655 4.901076l0.31066322 -2.3073523q0.01042366 -0.077427864 0.08075714 -0.13142514q0.08791542 -0.0674963 0.16540718 -0.057564735l2.1387558 0.27411222q0.07749176 0.009931564 0.12905884 0.09530473q0.069150925 0.0718739 0.058727264 0.149302l-0.0250206 0.18582702q-0.010425568 0.077427864 -0.09834099 0.14492416q-0.07033348 0.05399704 -0.14782333 0.044065475l-1.565321 -0.20061827l-0.06046486 0.44908214l1.3328476 0.17082334q0.09298897 0.0119178295 0.14664268 0.08180547q0.069150925 0.07187414 0.056640625 0.16478753l-0.02293396 0.17034149q-0.0125103 0.09291363 -0.09834099 0.14492416q-0.07033348 0.05399704 -0.16332245 0.04207945l-1.3328476 -0.17082357l-0.06046486 0.4490819l1.5498238 0.19863176q0.09298897 0.011918068 0.14455605 0.09729147q0.053653717 0.06988764 0.04322815 0.1473155l-0.025018692 0.18582678q-0.010425568 0.077427864 -0.08284378 0.14691067q-0.07033157 0.05399704 -0.16332245 0.042078972l-2.1232567 -0.27212572q-0.07749176 -0.009931564 -0.14664268 -0.08180523q-0.051567078 -0.0853734 -0.041143417 -0.16280127z" fill-rule="nonzero"/><path fill="#000000" fill-opacity="0.0" d="m3.9039538 21.18775l24.220472 0l0 7.1181107l-24.220472 0z" fill-rule="evenodd"/><path fill="#000000" d="m9.373466 27.193945q-1.140625 0 -1.7499995 -0.609375q-0.59375 -0.625 -0.59375 -1.875q0 -1.25 0.625 -1.84375q0.6406245 -0.609375 1.8906245 -0.609375l0.734375 0q0.75 0 1.359375 0.375q0.625 0.359375 0.625 0.921875q0 0.25 -0.15625 0.359375q-0.140625 0.09375 -0.28125 0.09375l-0.390625 0q-0.34375 0 -0.515625 -0.3125q-0.15625 -0.328125 -0.75 -0.328125l-0.59375 0q-0.671875 0 -0.90625 0.28125q-0.21875 0.28125 -0.21875 1.078125q0 0.78125 0.203125 1.078125q0.203125 0.28125 0.75 0.28125l0.671875 0q0.484375 0 0.671875 -0.171875q0.203125 -0.1875 0.21875 -0.421875l-0.65625 0q-0.171875 0 -0.28125 -0.125q-0.109375 -0.125 -0.109375 -0.28125l0 -0.25q0 -0.15625 0.109375 -0.28125q0.109375 -0.125 0.28125 -0.125l1.65625 0q0.171875 0 0.28125 0.125q0.109375 0.125 0.109375 0.28125l0 0.359375q0 0.96875 -0.578125 1.484375q-0.578125 0.515625 -1.671875 0.515625l-0.734375 0zm3.251114 -4.5q-0.046875 -0.046875 -0.046875 -0.125q0 -0.078125 0.078125 -0.171875q0.09375 -0.109375 0.25 -0.109375l0.71875 0q0.3125 0 0.46875 0.375l1.1875 2.609375l1.187501 -2.609375q0.15625 -0.375 0.46875 -0.375l0.71875 0q0.15625 0 0.234375 0.109375q0.09375 0.09375 0.09375 0.171875q0 0.0625 -0.03125 0.125l-1.890625 4.09375q-0.17187595 0.375 -0.54687595 0.375l-0.46875 0q-0.375 0 -0.546875 -0.375l-1.875 -4.09375zm5.9105997 4.0625l0 -4.0625q0 -0.171875 0.109375 -0.28125q0.125 -0.125 0.28125 -0.125l1.34375 0q0.15625 0 0.296875 0.109375q0.140625 0.09375 0.1875 0.265625l0.875 2.53125l0.875 -2.53125q0.046875 -0.171875 0.1875 -0.265625q0.140625 -0.109375 0.296875 -0.109375l1.328125 0q0.15625 0 0.265625 0.125q0.125 0.109375 0.125 0.28125l0 4.0625q0 0.15625 -0.109375 0.28125q-0.109375 0.125 -0.28125 0.125l-0.59375 0q-0.15625 0 -0.28125 -0.125q-0.125 -0.125 -0.125 -0.28125l0.09375 -3.203125l-1.0625 3.25q-0.046875 0.15625 -0.1875 0.265625q-0.140625 0.09375 -0.296875 0.09375l-0.46875 0q-0.15625 0 -0.296875 -0.09375q-0.140625 -0.109375 -0.203125 -0.265625l-1.0625 -3.25l0.09375 3.203125q0 0.15625 -0.109375 0.28125q-0.109375 0.125 -0.28125 0.125l-0.59375 0q-0.15625 0 -0.28125 -0.125q-0.125 -0.125 -0.125 -0.28125z" fill-rule="nonzero"/><path fill="#000000" d="m7.848311 21.088608l0 0c0 -0.12685394 0.10283613 -0.22969055 0.22969103 -0.22969055l15.856044 0c0.060918808 0 0.1193409 0.02420044 0.16241646 0.067276c0.04307556 0.04307556 0.067276 0.10149765 0.067276 0.16241455l0 0l0 0c0 0.12685585 -0.10283661 0.22969246 -0.22969246 0.22969246l-15.856044 0c-0.1268549 0 -0.22969103 -0.10283661 -0.22969103 -0.22969246z" fill-rule="evenodd"/><path stroke="#000000" stroke-width="0.06561679790026247" stroke-linejoin="round" stroke-linecap="butt" d="m7.848311 21.088608l0 0c0 -0.12685394 0.10283613 -0.22969055 0.22969103 -0.22969055l15.856044 0c0.060918808 0 0.1193409 0.02420044 0.16241646 0.067276c0.04307556 0.04307556 0.067276 0.10149765 0.067276 0.16241455l0 0l0 0c0 0.12685585 -0.10283661 0.22969246 -0.22969246 0.22969246l-15.856044 0c-0.1268549 0 -0.22969103 -0.10283661 -0.22969103 -0.22969246z" fill-rule="evenodd"/><path fill="#000000" d="m3.4766438 19.538153l0 0c-0.028303385 -0.15095139 0.071353674 -0.29499626 0.22259021 -0.32173347l24.464558 -4.324998c0.072626114 -0.012839317 0.14767647 0.003643036 0.20864296 0.045822144c0.060964584 0.042179108 0.10284996 0.106598854 0.11644173 0.17908764l0.061120987 0.32597542c0.028303146 0.15095139 -0.07135391 0.2949953 -0.2225895 0.32173157l-24.464558 4.324999c-0.15123653 0.026737213 -0.29678226 -0.07395935 -0.32508564 -0.22491074z" fill-rule="evenodd"/><path stroke="#000000" stroke-width="0.5328083989501312" stroke-linejoin="round" stroke-linecap="butt" d="m3.4766438 19.538153l0 0c-0.028303385 -0.15095139 0.071353674 -0.29499626 0.22259021 -0.32173347l24.464558 -4.324998c0.072626114 -0.012839317 0.14767647 0.003643036 0.20864296 0.045822144c0.060964584 0.042179108 0.10284996 0.106598854 0.11644173 0.17908764l0.061120987 0.32597542c0.028303146 0.15095139 -0.07135391 0.2949953 -0.2225895 0.32173157l-24.464558 4.324999c-0.15123653 0.026737213 -0.29678226 -0.07395935 -0.32508564 -0.22491074z" fill-rule="evenodd"/><path fill="#000000" fill-opacity="0.0" d="m13.772739 21.135588l1.9696817 -3.1968002" fill-rule="evenodd"/><path stroke="#000000" stroke-width="0.5328083989501312" stroke-linejoin="round" stroke-linecap="butt" d="m13.772739 21.135588l1.9696817 -3.1968002" fill-rule="evenodd"/><path fill="#000000" d="m16.288332 21.038221l0 -3.0625515l1.9193382 3.0625515z" fill-rule="evenodd"/><path stroke="#000000" stroke-width="0.5328083989501312" stroke-linejoin="round" stroke-linecap="butt" d="m16.288332 21.038221l0 -3.0625515l1.9193382 3.0625515z" fill-rule="evenodd"/><path fill="#000000" d="m2.779673 16.035988l0 0c0 -0.21895504 0.17749834 -0.3964529 0.39645338 -0.3964529l2.4815054 0c0.10514641 0 0.20598555 0.041769028 0.28033543 0.11611843c0.0743494 0.0743494 0.11611843 0.17518902 0.11611843 0.28033447l0 0l0 0c0 0.218956 -0.17749834 0.39645386 -0.39645386 0.39645386l-2.4815054 0c-0.21895504 0 -0.39645338 -0.17749786 -0.39645338 -0.39645386z" fill-rule="evenodd"/><path stroke="#000000" stroke-width="0.06561679790026247" stroke-linejoin="round" stroke-linecap="butt" d="m2.779673 16.035988l0 0c0 -0.21895504 0.17749834 -0.3964529 0.39645338 -0.3964529l2.4815054 0c0.10514641 0 0.20598555 0.041769028 0.28033543 0.11611843c0.0743494 0.0743494 0.11611843 0.17518902 0.11611843 0.28033447l0 0l0 0c0 0.218956 -0.17749834 0.39645386 -0.39645386 0.39645386l-2.4815054 0c-0.21895504 0 -0.39645338 -0.17749786 -0.39645338 -0.39645386z" fill-rule="evenodd"/><path fill="#000000" d="m4.416879 14.398782l0 0c0.21895552 0 0.39645386 0.17749882 0.39645386 0.39645386l0 2.4815054c0 0.10514641 -0.041769028 0.20598602 -0.11611891 0.28033447c-0.0743494 0.07435036 -0.17518854 0.116119385 -0.28033495 0.116119385l0 0l0 0c-0.21895504 0 -0.39645338 -0.17749786 -0.39645338 -0.39645386l0 -2.4815054c0 -0.21895504 0.17749834 -0.39645386 0.39645338 -0.39645386z" fill-rule="evenodd"/><path stroke="#000000" stroke-width="0.06561679790026247" stroke-linejoin="round" stroke-linecap="butt" d="m4.416879 14.398782l0 0c0.21895552 0 0.39645386 0.17749882 0.39645386 0.39645386l0 2.4815054c0 0.10514641 -0.041769028 0.20598602 -0.11611891 0.28033447c-0.0743494 0.07435036 -0.17518854 0.116119385 -0.28033495 0.116119385l0 0l0 0c-0.21895504 0 -0.39645338 -0.17749786 -0.39645338 -0.39645386l0 -2.4815054c0 -0.21895504 0.17749834 -0.39645386 0.39645338 -0.39645386z" fill-rule="evenodd"/><path fill="#000000" d="m25.699896 12.698558l0 0c0 -0.21895504 0.17749786 -0.39645386 0.39645386 -0.39645386l2.4815044 0c0.10514641 0 0.20598602 0.04176998 0.28033638 0.116119385c0.07434845 0.0743494 0.11611748 0.17518902 0.11611748 0.28033447l0 0l0 0c0 0.21895504 -0.17749786 0.39645386 -0.39645386 0.39645386l-2.4815044 0c-0.218956 0 -0.39645386 -0.17749882 -0.39645386 -0.39645386z" fill-rule="evenodd"/><path stroke="#000000" stroke-width="0.06561679790026247" stroke-linejoin="round" stroke-linecap="butt" d="m25.699896 12.698558l0 0c0 -0.21895504 0.17749786 -0.39645386 0.39645386 -0.39645386l2.4815044 0c0.10514641 0 0.20598602 0.04176998 0.28033638 0.116119385c0.07434845 0.0743494 0.11611748 0.17518902 0.11611748 0.28033447l0 0l0 0c0 0.21895504 -0.17749786 0.39645386 -0.39645386 0.39645386l-2.4815044 0c-0.218956 0 -0.39645386 -0.17749882 -0.39645386 -0.39645386z" fill-rule="evenodd"/><path fill="#000000" fill-opacity="0.0" d="m10.456076 16.236416l0 0c-0.01176548 -0.6725483 0.52390575 -1.227293 1.1964531 -1.2390575l0 0c0.32296848 -0.0056495667 0.6349535 0.11723137 0.86732197 0.34160995c0.23236847 0.22437859 0.366086 0.53187466 0.37173557 0.85484314l0 0c0.011764526 0.6725483 -0.52390575 1.227293 -1.196454 1.2390575l0 0c-0.67254734 0.011764526 -1.2272921 -0.5239048 -1.2390566 -1.1964531z" fill-rule="evenodd"/><path stroke="#000000" stroke-width="0.7427821522309711" stroke-linejoin="round" stroke-linecap="butt" d="m10.456076 16.236416l0 0c-0.01176548 -0.6725483 0.52390575 -1.227293 1.1964531 -1.2390575l0 0c0.32296848 -0.0056495667 0.6349535 0.11723137 0.86732197 0.34160995c0.23236847 0.22437859 0.366086 0.53187466 0.37173557 0.85484314l0 0c0.011764526 0.6725483 -0.52390575 1.227293 -1.196454 1.2390575l0 0c-0.67254734 0.011764526 -1.2272921 -0.5239048 -1.2390566 -1.1964531z" fill-rule="evenodd"/><path fill="#000000" d="m11.270166 16.222172l0 0c-0.0038995743 -0.22292519 0.17365646 -0.40680408 0.3965826 -0.41070366l0 0c0.10705376 -0.0018730164 0.21046543 0.038858414 0.28748798 0.11323166c0.0770216 0.074373245 0.12134457 0.17629814 0.12321663 0.2833519l0 0c0.0038995743 0.22292519 -0.17365646 0.40680313 -0.3965826 0.41070366l0 0c-0.22292614 0.0038986206 -0.40680504 -0.17365646 -0.4107046 -0.39658356z" fill-rule="evenodd"/><path stroke="#000000" stroke-width="0.06299212598425197" stroke-linejoin="round" stroke-linecap="butt" d="m11.270166 16.222172l0 0c-0.0038995743 -0.22292519 0.17365646 -0.40680408 0.3965826 -0.41070366l0 0c0.10705376 -0.0018730164 0.21046543 0.038858414 0.28748798 0.11323166c0.0770216 0.074373245 0.12134457 0.17629814 0.12321663 0.2833519l0 0c0.0038995743 0.22292519 -0.17365646 0.40680313 -0.3965826 0.41070366l0 0c-0.22292614 0.0038986206 -0.40680504 -0.17365646 -0.4107046 -0.39658356z" fill-rule="evenodd"/><path fill="#000000" fill-opacity="0.0" d="m20.343258 14.420859l0 0c-0.011766434 -0.6725483 0.5239048 -1.227293 1.1964531 -1.2390575l0 0c0.32296753 -0.0056495667 0.63495255 0.11723137 0.867321 0.34160995c0.23236847 0.22437859 0.36608696 0.53187466 0.37173653 0.85484314l0 0c0.011764526 0.6725483 -0.5239067 1.227293 -1.196455 1.2390575l0 0c-0.6725464 0.011764526 -1.2272911 -0.52390575 -1.2390556 -1.1964531z" fill-rule="evenodd"/><path stroke="#000000" stroke-width="0.7427821522309711" stroke-linejoin="round" stroke-linecap="butt" d="m20.343258 14.420859l0 0c-0.011766434 -0.6725483 0.5239048 -1.227293 1.1964531 -1.2390575l0 0c0.32296753 -0.0056495667 0.63495255 0.11723137 0.867321 0.34160995c0.23236847 0.22437859 0.36608696 0.53187466 0.37173653 0.85484314l0 0c0.011764526 0.6725483 -0.5239067 1.227293 -1.196455 1.2390575l0 0c-0.6725464 0.011764526 -1.2272911 -0.52390575 -1.2390556 -1.1964531z" fill-rule="evenodd"/><path fill="#000000" d="m21.157349 14.406615l0 0c-0.003900528 -0.22292614 0.17365646 -0.40680408 0.39658165 -0.41070366l0 0c0.10705376 -0.0018730164 0.21046638 0.03885746 0.28748894 0.11323166c0.077020645 0.074373245 0.12134361 0.17629814 0.12321663 0.28335094l0 0c0.0038986206 0.22292614 -0.17365646 0.40680408 -0.39658356 0.41070366l0 0c-0.22292519 0.0038995743 -0.40680504 -0.17365646 -0.41070366 -0.3965826z" fill-rule="evenodd"/><path stroke="#000000" stroke-width="0.06299212598425197" stroke-linejoin="round" stroke-linecap="butt" d="m21.157349 14.406615l0 0c-0.003900528 -0.22292614 0.17365646 -0.40680408 0.39658165 -0.41070366l0 0c0.10705376 -0.0018730164 0.21046638 0.03885746 0.28748894 0.11323166c0.077020645 0.074373245 0.12134361 0.17629814 0.12321663 0.28335094l0 0c0.0038986206 0.22292614 -0.17365646 0.40680408 -0.39658356 0.41070366l0 0c-0.22292519 0.0038995743 -0.40680504 -0.17365646 -0.41070366 -0.3965826z" fill-rule="evenodd"/><path fill="#000000" fill-opacity="0.0" d="m17.755589 9.978931c0.34199905 0.2508688 1.0450897 0.7414093 1.3845158 0.9814596c0.33942413 0.24005032 0.5020714 0.364995 0.65203667 0.45884323c0.1499672 0.09384823 0.13175964 0.09061813 0.24775887 0.10424709c0.11599922 0.013629913 0.3497219 -0.0014305115 0.44823647 -0.02246952c0.09851456 -0.021039963 0.12914848 -0.060126305 0.14285088 -0.10376644c0.0137043 -0.043639183 -0.019813538 -0.09970093 -0.0606308 -0.15807247c-0.040819168 -0.058372498 -0.111242294 -0.15363884 -0.18427658 -0.1921587c-0.07303429 -0.038518906 -0.14492989 -0.011931419 -0.25392914 -0.038957596c-0.10900116 -0.02702713 -0.19917107 -0.012174606 -0.4000721 -0.123202324c-0.20089912 -0.111026764 -0.5295696 -0.35727978 -0.80532837 -0.5429611c-0.27575684 -0.18568134 -0.64276123 -0.41798973 -0.8492203 -0.57112694c-0.20645905 -0.15313816 -0.24769783 -0.23561382 -0.38953018 -0.34770203c-0.14183426 -0.11208725 -0.3414631 -0.28831768 -0.46146584 -0.32482338c-0.12000084 -0.036506653 -0.23547935 0.046299934 -0.25854874 0.105789185c-0.023071289 0.05948925 -0.011140823 0.12199688 0.120126724 0.25114727c0.13126755 0.12914944 0.3254795 0.27288437 0.66747665 0.5237541z" fill-rule="evenodd"/><path stroke="#000000" stroke-width="0.1863517060367454" stroke-linejoin="round" stroke-linecap="butt" d="m17.755589 9.978931c0.34199905 0.2508688 1.0450897 0.7414093 1.3845158 0.9814596c0.33942413 0.24005032 0.5020714 0.364995 0.65203667 0.45884323c0.1499672 0.09384823 0.13175964 0.09061813 0.24775887 0.10424709c0.11599922 0.013629913 0.3497219 -0.0014305115 0.44823647 -0.02246952c0.09851456 -0.021039963 0.12914848 -0.060126305 0.14285088 -0.10376644c0.0137043 -0.043639183 -0.019813538 -0.09970093 -0.0606308 -0.15807247c-0.040819168 -0.058372498 -0.111242294 -0.15363884 -0.18427658 -0.1921587c-0.07303429 -0.038518906 -0.14492989 -0.011931419 -0.25392914 -0.038957596c-0.10900116 -0.02702713 -0.19917107 -0.012174606 -0.4000721 -0.123202324c-0.20089912 -0.111026764 -0.5295696 -0.35727978 -0.80532837 -0.5429611c-0.27575684 -0.18568134 -0.64276123 -0.41798973 -0.8492203 -0.57112694c-0.20645905 -0.15313816 -0.24769783 -0.23561382 -0.38953018 -0.34770203c-0.14183426 -0.11208725 -0.3414631 -0.28831768 -0.46146584 -0.32482338c-0.12000084 -0.036506653 -0.23547935 0.046299934 -0.25854874 0.105789185c-0.023071289 0.05948925 -0.011140823 0.12199688 0.120126724 0.25114727c0.13126755 0.12914944 0.3254795 0.27288437 0.66747665 0.5237541z" fill-rule="evenodd"/><path fill="#000000" fill-opacity="0.0" d="m8.297458 11.2435465c-0.026866913 0.04209137 -0.105267525 0.11205578 -0.16120148 0.25255108c-0.055933 0.1404953 -0.12284279 0.35457802 -0.1743989 0.5904217c-0.05155611 0.2358427 -0.10315466 0.61825466 -0.13493872 0.8246374c-0.03178358 0.2063818 -4.3916702E-4 0.26155853 -0.05576372 0.4136572c-0.05532503 0.15209866 -0.22730541 0.35943317 -0.27618504 0.4989357c-0.048879623 0.13950157 -0.037904263 0.13830185 -0.017092705 0.33807468c0.020811081 0.19977188 0.14591265 0.6401243 0.14196062 0.8605604c-0.0039520264 0.2204361 -0.16581821 0.23795795 -0.1656723 0.4620571c1.4543533E-4 0.22410011 0.09761238 0.6769123 0.16654634 0.88254166c0.06893444 0.20562935 0.12474823 0.28469086 0.24705887 0.35123444c0.12231064 0.06654167 0.30769205 0.043855667 0.48680544 0.048021317c0.17911434 0.0041656494 0.34025192 -0.015865326 0.5878782 -0.023021698c0.2476263 -0.0071582794 0.7482338 -0.016597748 0.89788055 -0.019918442" fill-rule="evenodd"/><path stroke="#000000" stroke-width="0.24934383202099736" stroke-linejoin="round" stroke-linecap="butt" d="m8.297458 11.2435465c-0.026866913 0.04209137 -0.105267525 0.11205578 -0.16120148 0.25255108c-0.055933 0.1404953 -0.12284279 0.35457802 -0.1743989 0.5904217c-0.05155611 0.2358427 -0.10315466 0.61825466 -0.13493872 0.8246374c-0.03178358 0.2063818 -4.3916702E-4 0.26155853 -0.05576372 0.4136572c-0.05532503 0.15209866 -0.22730541 0.35943317 -0.27618504 0.4989357c-0.048879623 0.13950157 -0.037904263 0.13830185 -0.017092705 0.33807468c0.020811081 0.19977188 0.14591265 0.6401243 0.14196062 0.8605604c-0.0039520264 0.2204361 -0.16581821 0.23795795 -0.1656723 0.4620571c1.4543533E-4 0.22410011 0.09761238 0.6769123 0.16654634 0.88254166c0.06893444 0.20562935 0.12474823 0.28469086 0.24705887 0.35123444c0.12231064 0.06654167 0.30769205 0.043855667 0.48680544 0.048021317c0.17911434 0.0041656494 0.34025192 -0.015865326 0.5878782 -0.023021698c0.2476263 -0.0071582794 0.7482338 -0.016597748 0.89788055 -0.019918442" fill-rule="evenodd"/><path fill="#000000" fill-opacity="0.0" d="m9.81619 17.298029c-0.0016374588 -0.10517311 -0.035469055 -0.29515076 -0.00982666 -0.6310425c0.025641441 -0.33589172 0.070384026 -1.0455217 0.16367912 -1.3843117c0.09329414 -0.33878994 0.18889141 -0.48578644 0.39608765 -0.648427c0.20719624 -0.16264153 0.56348324 -0.26733112 0.8470907 -0.32741833c0.28360748 -0.060087204 0.6259842 -0.056645393 0.8545542 -0.033103943c0.22856903 0.02354145 0.35494423 0.067251205 0.5168648 0.17435169c0.1619196 0.10710049 0.30212593 0.24438763 0.4546566 0.46825123c0.15253067 0.22386456 0.310524 0.71166325 0.46052742 0.8749342c0.15000439 0.16327095 -0.034296036 0.17087555 0.4394951 0.10469246c0.47379112 -0.066184044 1.7447443 -0.36199665 2.4032526 -0.5017948c0.6585083 -0.13979721 1.0699787 -0.23637104 1.5477962 -0.33699322c0.47781563 -0.10062218 1.0155334 -0.2546978 1.3190994 -0.2667408c0.3035679 -0.012043953 0.4202423 0.23043537 0.50230026 0.19447994c0.082056046 -0.035954475 -0.010505676 -0.17443848 -0.009962082 -0.41020966c5.4359436E-4 -0.23577118 -0.014909744 -0.7155323 0.013225555 -1.0044174c0.028133392 -0.28888607 0.04157448 -0.5259304 0.15558243 -0.7288952c0.11400604 -0.20296574 0.26935005 -0.36809444 0.52845573 -0.48889637c0.25910568 -0.12080288 0.74946594 -0.20461655 1.0261745 -0.23591805c0.2767086 -0.0313015 0.4223175 -0.02475357 0.6340809 0.0481081c0.21176529 0.072862625 0.46209145 0.22834969 0.6365051 0.38906574c0.17441559 0.16071606 0.3022766 0.39357662 0.4099846 0.5752306c0.107709885 0.18165398 0.15997696 0.43925476 0.23626709 0.51469326c0.07629204 0.0754385 0.07235336 0.025197983 0.22147751 -0.062063217c0.14912224 -0.0872612 0.48463058 -0.32695866 0.6732578 -0.46150398c0.18862724 -0.13454533 0.3545227 -0.23502636 0.45850372 -0.34576702c0.10398102 -0.11074066 0.16086388 -0.121453285 0.16538239 -0.318676c0.004518509 -0.19722271 -0.115226746 -0.72055054 -0.13827133 -0.86466026" fill-rule="evenodd"/><path stroke="#000000" stroke-width="0.24934383202099736" stroke-linejoin="round" stroke-linecap="butt" d="m9.81619 17.298029c-0.0016374588 -0.10517311 -0.035469055 -0.29515076 -0.00982666 -0.6310425c0.025641441 -0.33589172 0.070384026 -1.0455217 0.16367912 -1.3843117c0.09329414 -0.33878994 0.18889141 -0.48578644 0.39608765 -0.648427c0.20719624 -0.16264153 0.56348324 -0.26733112 0.8470907 -0.32741833c0.28360748 -0.060087204 0.6259842 -0.056645393 0.8545542 -0.033103943c0.22856903 0.02354145 0.35494423 0.067251205 0.5168648 0.17435169c0.1619196 0.10710049 0.30212593 0.24438763 0.4546566 0.46825123c0.15253067 0.22386456 0.310524 0.71166325 0.46052742 0.8749342c0.15000439 0.16327095 -0.034296036 0.17087555 0.4394951 0.10469246c0.47379112 -0.066184044 1.7447443 -0.36199665 2.4032526 -0.5017948c0.6585083 -0.13979721 1.0699787 -0.23637104 1.5477962 -0.33699322c0.47781563 -0.10062218 1.0155334 -0.2546978 1.3190994 -0.2667408c0.3035679 -0.012043953 0.4202423 0.23043537 0.50230026 0.19447994c0.082056046 -0.035954475 -0.010505676 -0.17443848 -0.009962082 -0.41020966c5.4359436E-4 -0.23577118 -0.014909744 -0.7155323 0.013225555 -1.0044174c0.028133392 -0.28888607 0.04157448 -0.5259304 0.15558243 -0.7288952c0.11400604 -0.20296574 0.26935005 -0.36809444 0.52845573 -0.48889637c0.25910568 -0.12080288 0.74946594 -0.20461655 1.0261745 -0.23591805c0.2767086 -0.0313015 0.4223175 -0.02475357 0.6340809 0.0481081c0.21176529 0.072862625 0.46209145 0.22834969 0.6365051 0.38906574c0.17441559 0.16071606 0.3022766 0.39357662 0.4099846 0.5752306c0.107709885 0.18165398 0.15997696 0.43925476 0.23626709 0.51469326c0.07629204 0.0754385 0.07235336 0.025197983 0.22147751 -0.062063217c0.14912224 -0.0872612 0.48463058 -0.32695866 0.6732578 -0.46150398c0.18862724 -0.13454533 0.3545227 -0.23502636 0.45850372 -0.34576702c0.10398102 -0.11074066 0.16086388 -0.121453285 0.16538239 -0.318676c0.004518509 -0.19722271 -0.115226746 -0.72055054 -0.13827133 -0.86466026" fill-rule="evenodd"/><path fill="#cfe2f3" d="m8.5461 10.517391c0.5974426 -0.15918732 6.3837214 -1.705801 6.943533 -1.855936c0.5598116 -0.15013504 -2.4274054 0.6458025 -3.5846605 0.9551258c-1.1572561 0.30932236 -3.9563165 1.0599976 -3.3588724 0.90081024z" fill-rule="evenodd"/><path stroke="#000000" stroke-width="0.24934383202099736" stroke-linejoin="round" stroke-linecap="butt" d="m8.5461 10.517391c0.5974426 -0.15918732 6.3837214 -1.705801 6.943533 -1.855936c0.5598116 -0.15013504 -2.4274054 0.6458025 -3.5846605 0.9551258c-1.1572561 0.30932236 -3.9563165 1.0599976 -3.3588724 0.90081024z" fill-rule="evenodd"/><path fill="#000000" fill-opacity="0.0" d="m8.188692 11.388708c0.020793915 -0.022408485 0.04718685 -0.08647156 0.12476063 -0.13444996c0.07757473 -0.047979355 0.16395473 -0.08733368 0.3406849 -0.15342331c0.17673111 -0.06608963 0.40713024 -0.14470387 0.7197008 -0.24311447c0.31257057 -0.09841061 0.7669325 -0.23718357 1.1557226 -0.3473482c0.38879013 -0.11016464 0.75287056 -0.19966888 1.1770172 -0.31364155c0.4241476 -0.11397171 0.92414856 -0.25907135 1.3678646 -0.37019157c0.44371605 -0.111120224 0.8497753 -0.21573544 1.2944307 -0.29652882c0.44465542 -0.08079243 1.0353413 -0.15888405 1.3735027 -0.1882286c0.33816147 -0.029344559 0.43737793 -0.020959854 0.6554661 0.012162209c0.21808815 0.033123016 0.5188103 0.14574432 0.6530609 0.18657303c0.13425255 0.040828705 0.12704277 0.048666 0.15245056 0.058398247" fill-rule="evenodd"/><path stroke="#000000" stroke-width="0.24934383202099736" stroke-linejoin="round" stroke-linecap="butt" d="m8.188692 11.388708c0.020793915 -0.022408485 0.04718685 -0.08647156 0.12476063 -0.13444996c0.07757473 -0.047979355 0.16395473 -0.08733368 0.3406849 -0.15342331c0.17673111 -0.06608963 0.40713024 -0.14470387 0.7197008 -0.24311447c0.31257057 -0.09841061 0.7669325 -0.23718357 1.1557226 -0.3473482c0.38879013 -0.11016464 0.75287056 -0.19966888 1.1770172 -0.31364155c0.4241476 -0.11397171 0.92414856 -0.25907135 1.3678646 -0.37019157c0.44371605 -0.111120224 0.8497753 -0.21573544 1.2944307 -0.29652882c0.44465542 -0.08079243 1.0353413 -0.15888405 1.3735027 -0.1882286c0.33816147 -0.029344559 0.43737793 -0.020959854 0.6554661 0.012162209c0.21808815 0.033123016 0.5188103 0.14574432 0.6530609 0.18657303c0.13425255 0.040828705 0.12704277 0.048666 0.15245056 0.058398247" fill-rule="evenodd"/><path fill="#000000" fill-opacity="0.0" d="m19.530537 10.754265c0.1748352 -0.022595406 0.64813614 -0.08883476 1.0490131 -0.13557148c0.400877 -0.04673767 1.0042801 -0.10830116 1.3562489 -0.14485168c0.35196877 -0.03655052 0.53988457 -0.07347393 0.7555599 -0.074453354c0.21567535 -9.784698E-4 0.37670517 0.0131139755 0.5384941 0.06858158c0.16178894 0.055467606 0.33120155 0.12290287 0.43223953 0.26422405c0.10103607 0.14132118 0.12871742 0.44724083 0.17398071 0.58370304c0.04526329 0.13646317 0.034082413 0.15703773 0.09759903 0.23507214c0.06351662 0.07803345 0.23624992 0.19427681 0.28350067 0.23313236" fill-rule="evenodd"/><path stroke="#000000" stroke-width="0.24934383202099736" stroke-linejoin="round" stroke-linecap="butt" d="m19.530537 10.754265c0.1748352 -0.022595406 0.64813614 -0.08883476 1.0490131 -0.13557148c0.400877 -0.04673767 1.0042801 -0.10830116 1.3562489 -0.14485168c0.35196877 -0.03655052 0.53988457 -0.07347393 0.7555599 -0.074453354c0.21567535 -9.784698E-4 0.37670517 0.0131139755 0.5384941 0.06858158c0.16178894 0.055467606 0.33120155 0.12290287 0.43223953 0.26422405c0.10103607 0.14132118 0.12871742 0.44724083 0.17398071 0.58370304c0.04526329 0.13646317 0.034082413 0.15703773 0.09759903 0.23507214c0.06351662 0.07803345 0.23624992 0.19427681 0.28350067 0.23313236" fill-rule="evenodd"/><path fill="#000000" fill-opacity="0.0" d="m9.065282 10.884367c-0.009078026 -0.07214165 0.05897522 -0.41946602 0.104665756 -0.5099211c0.04569149 -0.0904541 0.1604042 -0.10494709 0.16948223 -0.032806396c0.009078026 0.07214165 -0.069322586 0.37519932 -0.11501312 0.46565342c-0.04569149 0.090455055 -0.15005684 0.14921474 -0.15913486 0.07707405z" fill-rule="evenodd"/><path stroke="#000000" stroke-width="0.1863517060367454" stroke-linejoin="round" stroke-linecap="butt" d="m9.065282 10.884367c-0.009078026 -0.07214165 0.05897522 -0.41946602 0.104665756 -0.5099211c0.04569149 -0.0904541 0.1604042 -0.10494709 0.16948223 -0.032806396c0.009078026 0.07214165 -0.069322586 0.37519932 -0.11501312 0.46565342c-0.04569149 0.090455055 -0.15005684 0.14921474 -0.15913486 0.07707405z" fill-rule="evenodd"/><path fill="#000000" fill-opacity="0.0" d="m14.87286 9.437445c-0.054987907 -0.04341507 -0.25158024 -0.31968784 -0.2857237 -0.40846825c-0.034143448 -0.08877945 0.025873184 -0.16762638 0.08086109 -0.12421036c0.05498886 0.04341507 0.21492577 0.29592228 0.24907017 0.38470173c0.034143448 0.08877945 0.010781288 0.19139194 -0.044207573 0.14797688z" fill-rule="evenodd"/><path stroke="#000000" stroke-width="0.1863517060367454" stroke-linejoin="round" stroke-linecap="butt" d="m14.87286 9.437445c-0.054987907 -0.04341507 -0.25158024 -0.31968784 -0.2857237 -0.40846825c-0.034143448 -0.08877945 0.025873184 -0.16762638 0.08086109 -0.12421036c0.05498886 0.04341507 0.21492577 0.29592228 0.24907017 0.38470173c0.034143448 0.08877945 0.010781288 0.19139194 -0.044207573 0.14797688z" fill-rule="evenodd"/><path fill="#000000" fill-opacity="0.0" d="m11.785479 10.080408c-0.015696526 -0.04852867 0.017707825 -0.30125523 0.053678513 -0.3718481c0.03597164 -0.07059288 0.14645195 -0.1002388 0.16214848 -0.05171013c0.015696526 0.048529625 -0.031996727 0.2722931 -0.067967415 0.34288597c-0.03597164 0.07059288 -0.13216305 0.12920189 -0.14785957 0.080672264z" fill-rule="evenodd"/><path stroke="#000000" stroke-width="0.1863517060367454" stroke-linejoin="round" stroke-linecap="butt" d="m11.785479 10.080408c-0.015696526 -0.04852867 0.017707825 -0.30125523 0.053678513 -0.3718481c0.03597164 -0.07059288 0.14645195 -0.1002388 0.16214848 -0.05171013c0.015696526 0.048529625 -0.031996727 0.2722931 -0.067967415 0.34288597c-0.03597164 0.07059288 -0.13216305 0.12920189 -0.14785957 0.080672264z" fill-rule="evenodd"/><path fill="#000000" fill-opacity="0.0" d="m16.794817 9.478325c0.11195946 0.05740261 0.4337635 0.2053709 0.67175484 0.34441853c0.23799133 0.13904667 0.6301594 0.4082203 0.75619125 0.48986435" fill-rule="evenodd"/><path stroke="#000000" stroke-width="0.12335958005249344" stroke-linejoin="round" stroke-linecap="butt" d="m16.794817 9.478325c0.11195946 0.05740261 0.4337635 0.2053709 0.67175484 0.34441853c0.23799133 0.13904667 0.6301594 0.4082203 0.75619125 0.48986435" fill-rule="evenodd"/><path fill="#000000" fill-opacity="0.0" d="m22.967146 12.922992c0.15192032 -0.034439087 0.6555786 -0.1977396 0.91152 -0.20663452c0.2559433 -0.008893967 0.5201149 0.12772179 0.6241379 0.15326595" fill-rule="evenodd"/><path stroke="#000000" stroke-width="0.1863517060367454" stroke-linejoin="round" stroke-linecap="butt" d="m22.967146 12.922992c0.15192032 -0.034439087 0.6555786 -0.1977396 0.91152 -0.20663452c0.2559433 -0.008893967 0.5201149 0.12772179 0.6241379 0.15326595" fill-rule="evenodd"/><path fill="#000000" fill-opacity="0.0" d="m22.640858 12.463544c0.04091835 -0.057040215 0.13678932 -0.26035595 0.2455101 -0.34224415c0.10872269 -0.081887245 0.10252571 -0.07695103 0.4068184 -0.14908028c0.3042946 -0.07212925 1.1824532 -0.23641205 1.4189434 -0.28369427" fill-rule="evenodd"/><path stroke="#000000" stroke-width="0.1863517060367454" stroke-linejoin="round" stroke-linecap="butt" d="m22.640858 12.463544c0.04091835 -0.057040215 0.13678932 -0.26035595 0.2455101 -0.34224415c0.10872269 -0.081887245 0.10252571 -0.07695103 0.4068184 -0.14908028c0.3042946 -0.07212925 1.1824532 -0.23641205 1.4189434 -0.28369427" fill-rule="evenodd"/><path fill="#000000" fill-opacity="0.0" d="m23.934597 11.860955c0.018320084 0.090765 -0.039505005 0.44133663 0.10992813 0.54459c0.14943314 0.103253365 0.6555538 0.062441826 0.78666496 0.07493019" fill-rule="evenodd"/><path stroke="#000000" stroke-width="0.1863517060367454" stroke-linejoin="round" stroke-linecap="butt" d="m23.934597 11.860955c0.018320084 0.090765 -0.039505005 0.44133663 0.10992813 0.54459c0.14943314 0.103253365 0.6555538 0.062441826 0.78666496 0.07493019" fill-rule="evenodd"/><path fill="#000000" fill-opacity="0.0" d="m23.856068 12.729175c0.034204483 -0.04958248 0.1710186 -0.24791336 0.20522308 -0.29749584" fill-rule="evenodd"/><path stroke="#000000" stroke-width="0.1863517060367454" stroke-linejoin="round" stroke-linecap="butt" d="m23.856068 12.729175c0.034204483 -0.04958248 0.1710186 -0.24791336 0.20522308 -0.29749584" fill-rule="evenodd"/><path fill="#000000" fill-opacity="0.0" d="m24.468445 12.437426c-0.05472374 -0.021024704 -0.19586182 -0.15180683 -0.21367645 -0.23288918c-0.017812729 -0.081082344 0.054841995 -0.22180367 0.10679436 -0.25360298c0.051952362 -0.031799316 0.16799355 -4.8542023E-4 0.20491791 0.06280613c0.036922455 0.06329155 0.0329628 0.2463274 0.016622543 0.31694126c-0.016338348 0.070614815 -0.059936523 0.12776852 -0.114658356 0.106744766z" fill-rule="evenodd"/><path stroke="#000000" stroke-width="0.1863517060367454" stroke-linejoin="round" stroke-linecap="butt" d="m24.468445 12.437426c-0.05472374 -0.021024704 -0.19586182 -0.15180683 -0.21367645 -0.23288918c-0.017812729 -0.081082344 0.054841995 -0.22180367 0.10679436 -0.25360298c0.051952362 -0.031799316 0.16799355 -4.8542023E-4 0.20491791 0.06280613c0.036922455 0.06329155 0.0329628 0.2463274 0.016622543 0.31694126c-0.016338348 0.070614815 -0.059936523 0.12776852 -0.114658356 0.106744766z" fill-rule="evenodd"/><path fill="#000000" fill-opacity="0.0" d="m23.872412 11.488308c-0.11767578 0.02233696 -0.4866085 0.1315422 -0.7060566 0.13401985c-0.21944809 0.0024785995 -0.44961548 -0.028762817 -0.61063194 -0.11914921c-0.16101646 -0.090387344 -0.42497063 -0.3200693 -0.35546875 -0.42317104c0.069503784 -0.10310078 0.53587914 -0.13846493 0.77248573 -0.19543552c0.2366066 -0.056970596 0.5392914 -0.12199116 0.64715004 -0.14638996" fill-rule="evenodd"/><path stroke="#000000" stroke-width="0.1863517060367454" stroke-linejoin="round" stroke-linecap="butt" d="m23.872412 11.488308c-0.11767578 0.02233696 -0.4866085 0.1315422 -0.7060566 0.13401985c-0.21944809 0.0024785995 -0.44961548 -0.028762817 -0.61063194 -0.11914921c-0.16101646 -0.090387344 -0.42497063 -0.3200693 -0.35546875 -0.42317104c0.069503784 -0.10310078 0.53587914 -0.13846493 0.77248573 -0.19543552c0.2366066 -0.056970596 0.5392914 -0.12199116 0.64715004 -0.14638996" fill-rule="evenodd"/><path fill="#000000" fill-opacity="0.0" d="m22.945988 10.893786c0.05000305 0.116197586 0.2500229 0.58098984 0.30002785 0.6971874" fill-rule="evenodd"/><path stroke="#000000" stroke-width="0.1863517060367454" stroke-linejoin="round" stroke-linecap="butt" d="m22.945988 10.893786c0.05000305 0.116197586 0.2500229 0.58098984 0.30002785 0.6971874" fill-rule="evenodd"/><path fill="#000000" fill-opacity="0.0" d="m22.757944 11.593303c-0.077819824 0.10483837 -0.3890972 0.5241947 -0.46691704 0.62903404" fill-rule="evenodd"/><path stroke="#000000" stroke-width="0.1863517060367454" stroke-linejoin="round" stroke-linecap="butt" d="m22.757944 11.593303c-0.077819824 0.10483837 -0.3890972 0.5241947 -0.46691704 0.62903404" fill-rule="evenodd"/><path fill="#000000" fill-opacity="0.0" d="m24.638407 11.664765c-0.077308655 -0.21207428 -0.4455757 -1.2720928 -0.46385002 -1.2724428c-0.0182724 -3.4999847E-4 0.29517746 1.0586185 0.3542137 1.2703419" fill-rule="evenodd"/><path stroke="#000000" stroke-width="0.24934383202099736" stroke-linejoin="round" stroke-linecap="butt" d="m24.638407 11.664765c-0.077308655 -0.21207428 -0.4455757 -1.2720928 -0.46385002 -1.2724428c-0.0182724 -3.4999847E-4 0.29517746 1.0586185 0.3542137 1.2703419" fill-rule="evenodd"/><path fill="#000000" fill-opacity="0.0" d="m7.4687834 13.84063c0.06934357 -0.019774437 0.31274986 -0.13066769 0.4160633 -0.118647575c0.10331392 0.012021065 0.12822723 0.04231167 0.20381832 0.1907711c0.07559109 0.14845943 0.13225651 0.5162697 0.2497282 0.69998837c0.11747265 0.18371868 0.13780689 0.374403 0.45510483 0.40232277c0.31729794 0.027918816 1.2072353 -0.19567299 1.4486828 -0.23480797" fill-rule="evenodd"/><path stroke="#000000" stroke-width="0.1863517060367454" stroke-linejoin="round" stroke-linecap="butt" d="m7.4687834 13.84063c0.06934357 -0.019774437 0.31274986 -0.13066769 0.4160633 -0.118647575c0.10331392 0.012021065 0.12822723 0.04231167 0.20381832 0.1907711c0.07559109 0.14845943 0.13225651 0.5162697 0.2497282 0.69998837c0.11747265 0.18371868 0.13780689 0.374403 0.45510483 0.40232277c0.31729794 0.027918816 1.2072353 -0.19567299 1.4486828 -0.23480797" fill-rule="evenodd"/><path fill="#000000" fill-opacity="0.0" d="m8.229307 14.304508c-0.057185173 0.017861366 -0.22521687 0.07709408 -0.34311056 0.10717201c-0.11789417 0.030077934 -0.30354404 0.06107807 -0.36425304 0.07329464" fill-rule="evenodd"/><path stroke="#000000" stroke-width="0.1863517060367454" stroke-linejoin="round" stroke-linecap="butt" d="m8.229307 14.304508c-0.057185173 0.017861366 -0.22521687 0.07709408 -0.34311056 0.10717201c-0.11789417 0.030077934 -0.30354404 0.06107807 -0.36425304 0.07329464" fill-rule="evenodd"/><path fill="#000000" fill-opacity="0.0" d="m8.357418 14.677603c-0.06947327 0.017827988 -0.29296112 0.07980633 -0.41683912 0.10697079c-0.123878 0.02716446 -0.27202463 0.04667759 -0.32642937 0.056013107" fill-rule="evenodd"/><path stroke="#000000" stroke-width="0.1863517060367454" stroke-linejoin="round" stroke-linecap="butt" d="m8.357418 14.677603c-0.06947327 0.017827988 -0.29296112 0.07980633 -0.41683912 0.10697079c-0.123878 0.02716446 -0.27202463 0.04667759 -0.32642937 0.056013107" fill-rule="evenodd"/><path fill="#000000" fill-opacity="0.0" d="m7.5162935 15.779642c0.04142189 0.0016784668 0.1954999 -0.04073906 0.24852991 0.010072708c0.05303049 0.050810814 0.10015583 0.2356968 0.06965113 0.294796c-0.030504227 0.05909729 -0.21056366 0.049827576 -0.2526765 0.059793472" fill-rule="evenodd"/><path stroke="#000000" stroke-width="0.1863517060367454" stroke-linejoin="round" stroke-linecap="butt" d="m7.5162935 15.779642c0.04142189 0.0016784668 0.1954999 -0.04073906 0.24852991 0.010072708c0.05303049 0.050810814 0.10015583 0.2356968 0.06965113 0.294796c-0.030504227 0.05909729 -0.21056366 0.049827576 -0.2526765 0.059793472" fill-rule="evenodd"/><path fill="#000000" fill-opacity="0.0" d="m8.019636 11.78504c-0.072992325 -0.03685379 -0.41811752 -0.15113449 -0.437953 -0.2211256c-0.019835472 -0.069992065 0.1971631 -0.14399719 0.3189392 -0.19882393c0.12177658 -0.054826736 0.34309864 -0.108447075 0.41171837 -0.13013554" fill-rule="evenodd"/><path stroke="#000000" stroke-width="0.1863517060367454" stroke-linejoin="round" stroke-linecap="butt" d="m8.019636 11.78504c-0.072992325 -0.03685379 -0.41811752 -0.15113449 -0.437953 -0.2211256c-0.019835472 -0.069992065 0.1971631 -0.14399719 0.3189392 -0.19882393c0.12177658 -0.054826736 0.34309864 -0.108447075 0.41171837 -0.13013554" fill-rule="evenodd"/><path fill="#000000" fill-opacity="0.0" d="m11.55732 12.665289c-0.46041775 0.087423325 -1.2716055 0.26167297 -1.631135 0.3024721c-0.3595295 0.040798187 -0.40393257 0.0050210953 -0.526042 -0.057681084c-0.12210941 -0.062701225 -0.18257713 -0.13121319 -0.20661354 -0.31853008c-0.024036407 -0.1873169 0.016337395 -0.6001673 0.062395096 -0.8053732c0.046056747 -0.20520496 0.060498238 -0.30994797 0.2139492 -0.42585945c0.15345097 -0.115911484 0.3804264 -0.16207123 0.7067566 -0.26961136c0.32633018 -0.10754013 0.7940998 -0.25027084 1.2512264 -0.37562847c0.45712662 -0.12535667 1.0201063 -0.26527023 1.4915333 -0.3765154c0.47142792 -0.1112442 0.9305754 -0.20893478 1.3370333 -0.29095173c0.40645885 -0.082016945 0.7641697 -0.15955162 1.1017151 -0.20114994c0.33754635 -0.04159832 0.6726656 -0.06690502 0.92356205 -0.04843998c0.25089455 0.018465042 0.35993576 0.06625652 0.5818138 0.15922832c0.22187805 0.0929718 0.4369545 0.20314217 0.7494526 0.39860058c0.3124962 0.19545841 0.9553547 0.6203165 1.1255302 0.77414894c0.17017555 0.15383244 -0.008451462 0.10827923 -0.10447693 0.14884567c-0.096027374 0.040566444 -0.15797615 0.029657364 -0.4716797 0.09455109c-0.31370544 0.06489277 -0.8704548 0.18706703 -1.4105492 0.29480743c-0.5400944 0.1077404 -1.152833 0.22246361 -1.8300161 0.35163307c-0.67718315 0.12916946 -1.6723385 0.31580734 -2.2330809 0.42338276c-0.5607424 0.10757542 -0.6709566 0.13464642 -1.1313744 0.2220707z" fill-rule="evenodd"/><path stroke="#000000" stroke-width="0.1863517060367454" stroke-linejoin="round" stroke-linecap="butt" d="m11.55732 12.665289c-0.46041775 0.087423325 -1.2716055 0.26167297 -1.631135 0.3024721c-0.3595295 0.040798187 -0.40393257 0.0050210953 -0.526042 -0.057681084c-0.12210941 -0.062701225 -0.18257713 -0.13121319 -0.20661354 -0.31853008c-0.024036407 -0.1873169 0.016337395 -0.6001673 0.062395096 -0.8053732c0.046056747 -0.20520496 0.060498238 -0.30994797 0.2139492 -0.42585945c0.15345097 -0.115911484 0.3804264 -0.16207123 0.7067566 -0.26961136c0.32633018 -0.10754013 0.7940998 -0.25027084 1.2512264 -0.37562847c0.45712662 -0.12535667 1.0201063 -0.26527023 1.4915333 -0.3765154c0.47142792 -0.1112442 0.9305754 -0.20893478 1.3370333 -0.29095173c0.40645885 -0.082016945 0.7641697 -0.15955162 1.1017151 -0.20114994c0.33754635 -0.04159832 0.6726656 -0.06690502 0.92356205 -0.04843998c0.25089455 0.018465042 0.35993576 0.06625652 0.5818138 0.15922832c0.22187805 0.0929718 0.4369545 0.20314217 0.7494526 0.39860058c0.3124962 0.19545841 0.9553547 0.6203165 1.1255302 0.77414894c0.17017555 0.15383244 -0.008451462 0.10827923 -0.10447693 0.14884567c-0.096027374 0.040566444 -0.15797615 0.029657364 -0.4716797 0.09455109c-0.31370544 0.06489277 -0.8704548 0.18706703 -1.4105492 0.29480743c-0.5400944 0.1077404 -1.152833 0.22246361 -1.8300161 0.35163307c-0.67718315 0.12916946 -1.6723385 0.31580734 -2.2330809 0.42338276c-0.5607424 0.10757542 -0.6709566 0.13464642 -1.1313744 0.2220707z" fill-rule="evenodd"/><path fill="#000000" fill-opacity="0.0" d="m9.25039 14.491186c0.048830986 0.0814085 0.087758064 0.071718216 0.19344616 0.067477226c0.105688095 -0.0042419434 0.3490801 -0.053866386 0.44068336 -0.09292507c0.091602325 -0.03905964 0.10141182 -0.05061245 0.1089344 -0.14143181c0.007522583 -0.090818405 -0.023360252 -0.32231045 -0.06379795 -0.40348053c-0.0404377 -0.08117008 -0.07088947 -0.082095146 -0.1788292 -0.08353996c-0.10793877 -0.0014448166 -0.3688097 0.036050797 -0.46880627 0.07487202c-0.09999561 0.038822174 -0.12589836 0.061552048 -0.13117027 0.15805721c-0.0052719116 0.09650421 0.05070877 0.33956337 0.09953976 0.42097092z" fill-rule="evenodd"/><path stroke="#000000" stroke-width="0.1863517060367454" stroke-linejoin="round" stroke-linecap="butt" d="m9.25039 14.491186c0.048830986 0.0814085 0.087758064 0.071718216 0.19344616 0.067477226c0.105688095 -0.0042419434 0.3490801 -0.053866386 0.44068336 -0.09292507c0.091602325 -0.03905964 0.10141182 -0.05061245 0.1089344 -0.14143181c0.007522583 -0.090818405 -0.023360252 -0.32231045 -0.06379795 -0.40348053c-0.0404377 -0.08117008 -0.07088947 -0.082095146 -0.1788292 -0.08353996c-0.10793877 -0.0014448166 -0.3688097 0.036050797 -0.46880627 0.07487202c-0.09999561 0.038822174 -0.12589836 0.061552048 -0.13117027 0.15805721c-0.0052719116 0.09650421 0.05070877 0.33956337 0.09953976 0.42097092z" fill-rule="evenodd"/><path fill="#cfe2f3" d="m19.607658 12.111197c-0.011981964 0.0057811737 -0.19394684 0.047599792 -0.21835709 0.050182343c-0.02440834 0.0025815964 0.035505295 -0.02632618 0.07189751 -0.034689903c0.03639412 -0.008363724 0.15844345 -0.021274567 0.14645958 -0.015492439z" fill-rule="evenodd"/><path stroke="#000000" stroke-width="0.1863517060367454" stroke-linejoin="round" stroke-linecap="butt" d="m19.607658 12.111197c-0.011981964 0.0057811737 -0.19394684 0.047599792 -0.21835709 0.050182343c-0.02440834 0.0025815964 0.035505295 -0.02632618 0.07189751 -0.034689903c0.03639412 -0.008363724 0.15844345 -0.021274567 0.14645958 -0.015492439z" fill-rule="evenodd"/><path fill="#cfe2f3" d="m16.366806 12.529225c-0.061120987 0.016794205 -0.6550131 0.14490318 -0.71267223 0.15373135c-0.05765915 0.008829117 0.24793911 -0.07514 0.36671734 -0.10076141c0.11877823 -0.025622368 0.40707397 -0.06976318 0.3459549 -0.052969933z" fill-rule="evenodd"/><path stroke="#000000" stroke-width="0.1863517060367454" stroke-linejoin="round" stroke-linecap="butt" d="m16.366806 12.529225c-0.061120987 0.016794205 -0.6550131 0.14490318 -0.71267223 0.15373135c-0.05765915 0.008829117 0.24793911 -0.07514 0.36671734 -0.10076141c0.11877823 -0.025622368 0.40707397 -0.06976318 0.3459549 -0.052969933z" fill-rule="evenodd"/><path fill="#cfe2f3" d="m12.810939 13.223323c-0.06430626 0.017583847 -0.65188503 0.14197254 -0.7050953 0.14926529c-0.05321026 0.007293701 0.26831818 -0.08062935 0.38583374 -0.1055069c0.11751652 -0.024878502 0.38356686 -0.061343193 0.31926155 -0.043758392z" fill-rule="evenodd"/><path stroke="#000000" stroke-width="0.1863517060367454" stroke-linejoin="round" stroke-linecap="butt" d="m12.810939 13.223323c-0.06430626 0.017583847 -0.65188503 0.14197254 -0.7050953 0.14926529c-0.05321026 0.007293701 0.26831818 -0.08062935 0.38583374 -0.1055069c0.11751652 -0.024878502 0.38356686 -0.061343193 0.31926155 -0.043758392z" fill-rule="evenodd"/><path fill="#000000" fill-opacity="0.0" d="m18.693336 11.302835c0.056110382 0.14622688 0.24316978 0.52320004 0.33665466 0.87736225c0.093486786 0.35416317 0.18501091 0.929986 0.22426224 1.247612c0.039251328 0.317626 0.033920288 0.49935055 0.011247635 0.65814495c-0.022670746 0.15879345 -0.06482887 0.22891808 -0.14727783 0.2946186c-0.08244896 0.065701485 -0.19182205 0.061728477 -0.34741402 0.09958744c-0.15559196 0.037858963 -0.10928345 0.033450127 -0.5861378 0.12756729c-0.47685623 0.094117165 -1.6613541 0.31582737 -2.2749949 0.43713474c-0.6136427 0.12130737 -1.0808935 0.2258234 -1.4068575 0.29070854c-0.32596397 0.06488514 -0.41964722 0.08859444 -0.5489273 0.098602295c-0.12928009 0.010008812 -0.15912914 -0.005268097 -0.22675323 -0.038553238c-0.067625046 -0.033284187 -0.12304497 -0.07949543 -0.17899418 -0.1611538c-0.055950165 -0.08165836 -0.09126377 -0.21405888 -0.15670586 -0.3287964c-0.065442085 -0.11473751 -0.1512165 -0.2587843 -0.23594475 -0.35962772c-0.084729195 -0.100842476 -0.17754173 -0.17224121 -0.2724285 -0.24543c-0.09488678 -0.07318783 -0.19418812 -0.14419174 -0.2968912 -0.19369984c-0.102703094 -0.049508095 -0.21216202 -0.079919815 -0.3193283 -0.103346825c-0.10716629 -0.02342701 -0.2393732 -0.006132126 -0.3236704 -0.037213326c-0.084298134 -0.0310812 -0.13625145 -0.07481575 -0.1821146 -0.14927387c-0.045862198 -0.07445717 -0.07272339 -0.10670662 -0.09306145 -0.297472c-0.020339012 -0.19076633 -0.024143219 -0.7059355 -0.028971672 -0.8471222" fill-rule="evenodd"/><path stroke="#000000" stroke-width="0.1863517060367454" stroke-linejoin="round" stroke-linecap="butt" d="m18.693336 11.302835c0.056110382 0.14622688 0.24316978 0.52320004 0.33665466 0.87736225c0.093486786 0.35416317 0.18501091 0.929986 0.22426224 1.247612c0.039251328 0.317626 0.033920288 0.49935055 0.011247635 0.65814495c-0.022670746 0.15879345 -0.06482887 0.22891808 -0.14727783 0.2946186c-0.08244896 0.065701485 -0.19182205 0.061728477 -0.34741402 0.09958744c-0.15559196 0.037858963 -0.10928345 0.033450127 -0.5861378 0.12756729c-0.47685623 0.094117165 -1.6613541 0.31582737 -2.2749949 0.43713474c-0.6136427 0.12130737 -1.0808935 0.2258234 -1.4068575 0.29070854c-0.32596397 0.06488514 -0.41964722 0.08859444 -0.5489273 0.098602295c-0.12928009 0.010008812 -0.15912914 -0.005268097 -0.22675323 -0.038553238c-0.067625046 -0.033284187 -0.12304497 -0.07949543 -0.17899418 -0.1611538c-0.055950165 -0.08165836 -0.09126377 -0.21405888 -0.15670586 -0.3287964c-0.065442085 -0.11473751 -0.1512165 -0.2587843 -0.23594475 -0.35962772c-0.084729195 -0.100842476 -0.17754173 -0.17224121 -0.2724285 -0.24543c-0.09488678 -0.07318783 -0.19418812 -0.14419174 -0.2968912 -0.19369984c-0.102703094 -0.049508095 -0.21216202 -0.079919815 -0.3193283 -0.103346825c-0.10716629 -0.02342701 -0.2393732 -0.006132126 -0.3236704 -0.037213326c-0.084298134 -0.0310812 -0.13625145 -0.07481575 -0.1821146 -0.14927387c-0.045862198 -0.07445717 -0.07272339 -0.10670662 -0.09306145 -0.297472c-0.020339012 -0.19076633 -0.024143219 -0.7059355 -0.028971672 -0.8471222" fill-rule="evenodd"/><path fill="#000000" fill-opacity="0.0" d="m15.047856 11.986136c0.037996292 0.09616089 0.15338802 0.32449532 0.22797966 0.57696533c0.07459164 0.25247002 0.16804314 0.64476776 0.2195692 0.9378557c0.051525116 0.29308796 0.06597614 0.5551672 0.08958435 0.82067204c0.023608208 0.26550484 0.043385506 0.643631 0.05206299 0.772357" fill-rule="evenodd"/><path stroke="#000000" stroke-width="0.1863517060367454" stroke-linejoin="round" stroke-linecap="butt" d="m15.047856 11.986136c0.037996292 0.09616089 0.15338802 0.32449532 0.22797966 0.57696533c0.07459164 0.25247002 0.16804314 0.64476776 0.2195692 0.9378557c0.051525116 0.29308796 0.06597614 0.5551672 0.08958435 0.82067204c0.023608208 0.26550484 0.043385506 0.643631 0.05206299 0.772357" fill-rule="evenodd"/><path fill="#cfe2f3" d="m13.822194 14.844424c0.0012712479 -6.67572E-5 0.08831406 -0.2351942 0.7687578 -0.412323c0.6804447 -0.17712879 2.6037846 -0.5583105 3.3139095 -0.6504507c0.71012497 -0.0921402 0.9441452 0.09582615 0.9468422 0.09761047c0.002696991 0.0017843246 -0.21926308 -0.17911243 -0.93065834 -0.08690548c-0.7113972 0.092206955 -2.6545792 0.46480083 -3.3377209 0.6401453c-0.6831417 0.17534542 -0.7624016 0.41199017 -0.76113033 0.4119234z" fill-rule="evenodd"/><path stroke="#000000" stroke-width="0.1863517060367454" stroke-linejoin="round" stroke-linecap="butt" d="m13.822194 14.844424c0.0012712479 -6.67572E-5 0.08831406 -0.2351942 0.7687578 -0.412323c0.6804447 -0.17712879 2.6037846 -0.5583105 3.3139095 -0.6504507c0.71012497 -0.0921402 0.9441452 0.09582615 0.9468422 0.09761047c0.002696991 0.0017843246 -0.21926308 -0.17911243 -0.93065834 -0.08690548c-0.7113972 0.092206955 -2.6545792 0.46480083 -3.3377209 0.6401453c-0.6831417 0.17534542 -0.7624016 0.41199017 -0.76113033 0.4119234z" fill-rule="evenodd"/><path fill="#000000" fill-opacity="0.0" d="m17.708187 10.773096c0.04197502 -0.09842968 0.17959976 -0.09724045 0.3061123 -0.07415104c0.12651443 0.023090363 0.36305428 0.13601398 0.4529705 0.21269035c0.08991623 0.07667637 0.096775055 0.18418026 0.08652878 0.24736881c-0.010246277 0.06318951 -0.042394638 0.08942032 -0.14800835 0.13176441c-0.105615616 0.04234314 -0.37846184 0.12250614 -0.48568535 0.12229824c-0.1072216 -2.0694733E-4 -0.122335434 -0.01688099 -0.15765572 -0.123542786c-0.035320282 -0.1066618 -0.09623718 -0.4179983 -0.05426216 -0.516428z" fill-rule="evenodd"/><path stroke="#000000" stroke-width="0.1863517060367454" stroke-linejoin="round" stroke-linecap="butt" d="m17.708187 10.773096c0.04197502 -0.09842968 0.17959976 -0.09724045 0.3061123 -0.07415104c0.12651443 0.023090363 0.36305428 0.13601398 0.4529705 0.21269035c0.08991623 0.07667637 0.096775055 0.18418026 0.08652878 0.24736881c-0.010246277 0.06318951 -0.042394638 0.08942032 -0.14800835 0.13176441c-0.105615616 0.04234314 -0.37846184 0.12250614 -0.48568535 0.12229824c-0.1072216 -2.0694733E-4 -0.122335434 -0.01688099 -0.15765572 -0.123542786c-0.035320282 -0.1066618 -0.09623718 -0.4179983 -0.05426216 -0.516428z" fill-rule="evenodd"/><path fill="#000000" fill-opacity="0.0" d="m14.706215 9.977406c0.060780525 0.17375469 0.2517252 0.723588 0.3646822 1.0425282c0.11295605 0.31894112 0.26087952 0.72592926 0.313056 0.87111473" fill-rule="evenodd"/><path stroke="#000000" stroke-width="0.1863517060367454" stroke-linejoin="round" stroke-linecap="butt" d="m14.706215 9.977406c0.060780525 0.17375469 0.2517252 0.723588 0.3646822 1.0425282c0.11295605 0.31894112 0.26087952 0.72592926 0.313056 0.87111473" fill-rule="evenodd"/><path fill="#000000" fill-opacity="0.0" d="m14.3499975 10.058089c0.03424263 0.13576508 0.12451172 0.49012375 0.20545578 0.81459427c0.080945015 0.32447147 0.23350906 0.9435253 0.2802105 1.1322308" fill-rule="evenodd"/><path stroke="#000000" stroke-width="0.1863517060367454" stroke-linejoin="round" stroke-linecap="butt" d="m14.3499975 10.058089c0.03424263 0.13576508 0.12451172 0.49012375 0.20545578 0.81459427c0.080945015 0.32447147 0.23350906 0.9435253 0.2802105 1.1322308" fill-rule="evenodd"/><path fill="#000000" fill-opacity="0.0" d="m12.132849 10.561839c0.043100357 0.15726948 0.17432785 0.62962914 0.2586012 0.9436188c0.08427334 0.3139906 0.20586395 0.7836008 0.24703693 0.94032097" fill-rule="evenodd"/><path stroke="#000000" stroke-width="0.1863517060367454" stroke-linejoin="round" stroke-linecap="butt" d="m12.132849 10.561839c0.043100357 0.15726948 0.17432785 0.62962914 0.2586012 0.9436188c0.08427334 0.3139906 0.20586395 0.7836008 0.24703693 0.94032097" fill-rule="evenodd"/><path fill="#000000" d="m11.291719 10.9276c0.0362072 0.07496357 0.032484055 0.06604576 0.051548004 0.31885242c0.01906395 0.2528057 0.079916954 0.9574661 0.06283283 1.1979837c-0.017083168 0.24051666 -0.25072765 0.217947 -0.16533375 0.2451191c0.08539486 0.027172089 0.59095764 -0.04911232 0.67770004 -0.08208561c0.08674145 -0.03297329 -0.1211586 -0.03112793 -0.1572485 -0.115753174c-0.036089897 -0.0846262 -0.0405159 -0.16952896 -0.059289932 -0.39200115c-0.018774033 -0.22247219 -0.042788506 -0.7289324 -0.05335617 -0.9428301c-0.010567665 -0.21389866 -0.028933525 -0.25689983 -0.010050774 -0.3405571c0.018882751 -0.083657265 0.1583929 -0.1457882 0.12334728 -0.16138935c-0.035045624 -0.015601158 -0.22764969 0.044160843 -0.33362293 0.0677824c-0.1059742 0.02362156 -0.27946472 0.03979969 -0.30221844 0.073946c-0.02275467 0.03414631 0.12948608 0.055968285 0.16569233 0.13093281z" fill-rule="evenodd"/><path stroke="#000000" stroke-width="0.12335958005249344" stroke-linejoin="round" stroke-linecap="butt" d="m11.291719 10.9276c0.0362072 0.07496357 0.032484055 0.06604576 0.051548004 0.31885242c0.01906395 0.2528057 0.079916954 0.9574661 0.06283283 1.1979837c-0.017083168 0.24051666 -0.25072765 0.217947 -0.16533375 0.2451191c0.08539486 0.027172089 0.59095764 -0.04911232 0.67770004 -0.08208561c0.08674145 -0.03297329 -0.1211586 -0.03112793 -0.1572485 -0.115753174c-0.036089897 -0.0846262 -0.0405159 -0.16952896 -0.059289932 -0.39200115c-0.018774033 -0.22247219 -0.042788506 -0.7289324 -0.05335617 -0.9428301c-0.010567665 -0.21389866 -0.028933525 -0.25689983 -0.010050774 -0.3405571c0.018882751 -0.083657265 0.1583929 -0.1457882 0.12334728 -0.16138935c-0.035045624 -0.015601158 -0.22764969 0.044160843 -0.33362293 0.0677824c-0.1059742 0.02362156 -0.27946472 0.03979969 -0.30221844 0.073946c-0.02275467 0.03414631 0.12948608 0.055968285 0.16569233 0.13093281z" fill-rule="evenodd"/><path fill="#000000" fill-opacity="0.0" d="m19.251513 14.188869c0.035663605 -0.012963295 0.14209938 -0.062916756 0.21397972 -0.07777977c0.07188034 -0.014863014 0.18108177 -0.0094976425 0.21729851 -0.011397362" fill-rule="evenodd"/><path stroke="#000000" stroke-width="0.1863517060367454" stroke-linejoin="round" stroke-linecap="butt" d="m19.251513 14.188869c0.035663605 -0.012963295 0.14209938 -0.062916756 0.21397972 -0.07777977c0.07188034 -0.014863014 0.18108177 -0.0094976425 0.21729851 -0.011397362" fill-rule="evenodd"/></g></svg>
