<svg version="1.1" viewBox="0.0 0.0 512.0 512.0" fill="none" stroke="none" stroke-linecap="square" stroke-miterlimit="10" xmlns:xlink="http://www.w3.org/1999/xlink" xmlns="http://www.w3.org/2000/svg"><clipPath id="p.0"><path d="m0 0l512.0 0l0 512.0l-512.0 0l0 -512.0z" clip-rule="nonzero"/></clipPath><g clip-path="url(#p.0)"><path fill="#000000" fill-opacity="0.0" d="m0 0l512.0 0l0 512.0l-512.0 0z" fill-rule="evenodd"/><path fill="#ffffff" d="m7.4960628 256.0l0 0c0 -137.24493 111.259 -248.50394 248.50394 -248.50394l0 0c65.90735 0 129.1153 26.181591 175.71881 72.78512c46.603546 46.60353 72.785126 109.81147 72.785126 175.71881l0 0c0 137.24493 -111.259 248.50394 -248.50394 248.50394l0 0c-137.24493 0 -248.50394 -111.259 -248.50394 -248.50394z" fill-rule="evenodd"/><path stroke="#000000" stroke-width="8.519685039370078" stroke-linejoin="round" stroke-linecap="butt" d="m7.4960628 256.0l0 0c0 -137.24493 111.259 -248.50394 248.50394 -248.50394l0 0c65.90735 0 129.1153 26.181591 175.71881 72.78512c46.603546 46.60353 72.785126 109.81147 72.785126 175.71881l0 0c0 137.24493 -111.259 248.50394 -248.50394 248.50394l0 0c-137.24493 0 -248.50394 -111.259 -248.50394 -248.50394z" fill-rule="evenodd"/><path fill="#000000" fill-opacity="0.0" d="m23.507645 256.0275l0 0c0 -128.43448 104.11671 -232.55118 232.5512 -232.55118l0 0c61.67639 0 120.82669 24.500856 164.4385 68.11266c43.611816 43.6118 68.11267 102.762115 68.11267 164.43852l0 0c0 128.43448 -104.11673 232.55118 -232.55118 232.55118l0 0c-128.43448 0 -232.5512 -104.1167 -232.5512 -232.55118z" fill-rule="evenodd"/><path stroke="#000000" stroke-width="4.26246719160105" stroke-linejoin="round" stroke-linecap="butt" d="m23.507645 256.0275l0 0c0 -128.43448 104.11671 -232.55118 232.5512 -232.55118l0 0c61.67639 0 120.82669 24.500856 164.4385 68.11266c43.611816 43.6118 68.11267 102.762115 68.11267 164.43852l0 0c0 128.43448 -104.11673 232.55118 -232.55118 232.55118l0 0c-128.43448 0 -232.5512 -104.1167 -232.5512 -232.55118z" fill-rule="evenodd"/><path fill="#000000" fill-opacity="0.0" d="m41.80236 165.21124l37.348076 -59.999l59.25264 36.1547l-37.348076 59.998993z" fill-rule="evenodd"/><path fill="#000000" d="m94.45921 180.8455l-31.745846 -19.370636q-1.3205185 -0.8057556 -1.697815 -2.2989044q-0.38237762 -1.5145416 0.4433403 -2.8410492l12.047203 -19.353607q10.048973 -16.143486 25.081558 -6.9709167q15.019257 9.164413 4.9702835 25.307907l-7.0598755 11.341568l4.9219437 3.0032654q1.3338547 0.81388855 1.6946335 2.3335571q0.35570526 1.4982758 -0.47001648 2.8247833l-2.9643173 4.7621307q-0.82572174 1.3264923 -2.3539352 1.711853q-1.5199585 0.37208557 -2.867157 -0.44995117zm-6.804634 -19.581741l5.2598114 -8.449799q2.5019226 -4.019287 2.4453812 -6.707779q-0.056533813 -2.6884766 -3.7246475 -4.9266815q-3.68145 -2.246338 -6.1325684 -1.0879822q-2.4511185 1.158371 -4.9530334 5.177658l-5.259819 8.449799l12.364876 7.5447845z" fill-rule="nonzero"/><path fill="#000000" fill-opacity="0.0" d="m79.54941 104.58986l53.389313 -46.578037l45.897034 51.79482l-53.389313 46.578033z" fill-rule="evenodd"/><path fill="#000000" d="m161.1476 105.5856q1.4819031 1.6723328 -0.39016724 3.3055725l-5.404297 4.714813q-1.0478821 0.91420746 -2.858841 1.2499924q-1.8095398 0.3138199 -3.3572845 -0.16062164l-9.068817 -2.601059q-5.118454 -1.4648972 -8.08551 1.1236267l-4.768486 4.1601334l7.886223 8.899605q1.0363007 1.1694641 0.93611145 2.7290955q-0.09877014 1.5376587 -1.2761841 2.5648499l-4.226883 3.687622q-1.1773987 1.0271912 -2.750534 0.94815063q-1.5613632 -0.08932495 -2.6080246 -1.2704773l-24.663872 -27.833183q-1.0259323 -1.1577682 -0.94929504 -2.6968536q0.078048706 -1.5610428 1.2554474 -2.5882416l18.567657 -16.198837q5.4160614 -4.72509 11.547974 -4.8493576q6.133316 -0.1462326 10.568665 4.859062q6.279953 7.086937 -0.39715576 15.006485q0.06355286 -0.47014618 2.4279785 -0.2520218q2.3658295 0.19615936 5.9572754 1.2100067l9.850235 2.8939133q1.1860046 0.3960495 1.807785 1.0977249zm-40.804054 4.038933l8.865852 -7.7347717q2.142868 -1.8694916 2.9542236 -3.9458694q0.81134033 -2.0763855 -0.58766174 -3.655159q-1.4093628 -1.5904617 -3.5886154 -1.0577774q-2.1792603 0.53269196 -4.322136 2.4021835l-8.865852 7.7347717l5.5441895 6.2566223z" fill-rule="nonzero"/><path fill="#000000" fill-opacity="0.0" d="m133.55476 57.581795l65.1664 -28.113054l27.69217 63.31636l-65.16641 28.113052z" fill-rule="evenodd"/><path fill="#000000" d="m203.98453 83.71325q-3.6344604 7.6770096 -14.810684 12.498482q-11.176224 4.8214645 -19.320557 2.2258759q-8.136261 -2.6160965 -12.963654 -13.6536255q-4.833664 -11.051849 -1.1992188 -18.728859q3.6488037 -7.683201 14.825027 -12.504669q11.176224 -4.8214684 19.306213 -2.2196884q8.130005 2.60178 12.963654 13.6536255q4.8273926 11.037537 1.1992188 18.728859zm-19.832123 -21.598423q-3.8542633 -1.9108238 -9.636047 0.5834656q-5.7817993 2.4942894 -7.020691 6.602314q-1.2308044 4.0875244 1.4740295 10.27198q2.7048492 6.184456 6.552841 8.080963q3.8623352 1.8903198 9.6441345 -0.6039734q5.7817993 -2.4942856 7.0126038 -6.58181q1.2308044 -4.0875244 -1.4740448 -10.27198q-2.704834 -6.1844482 -6.552826 -8.080959z" fill-rule="nonzero"/><path fill="#000000" fill-opacity="0.0" d="m192.52954 29.647976l70.46161 -8.607473l8.413605 68.5548l-70.46161 8.607475z" fill-rule="evenodd"/><path fill="#000000" d="m220.38754 72.254875l5.0433197 -0.08088684l2.093811 -0.25577545q3.7378387 -0.456604 5.1292114 -2.0747604q1.3913727 -1.6181564 0.95170593 -5.200653l-2.9368591 -23.929832q-0.18844604 -1.5353546 0.7621002 -2.7690926q0.9486389 -1.2492485 2.5151215 -1.4406052l5.505951 -0.6725998q1.6130066 -0.19704056 2.8512268 0.7850609q1.2518463 0.9646988 1.4402771 2.5000572l2.9254456 23.83678q0.98783875 8.048988 -3.8243713 13.091583q-4.7985992 5.0251923 -13.763199 6.1202927l-8.390762 1.0250015q-1.5509644 0.18946075 -2.7853851 -0.76161957q-1.2208252 -0.9684906 -1.4111481 -2.5193558l-0.4111328 -3.3498688q-0.18843079 -1.5353546 0.7330017 -2.749794q0.91952515 -1.22995 2.5480347 -1.4288864l1.0236511 -0.12504578z" fill-rule="nonzero"/><path fill="#000000" fill-opacity="0.0" d="m439.15448 110.28637l-52.401917 -47.3777l-47.01819 51.14367l52.401917 47.3777z" fill-rule="evenodd"/><path fill="#000000" d="m383.47815 85.05133l1.9035645 -2.0705643q1.0892334 -1.1848221 2.6186523 -1.2554855q1.5515747 -0.07169342 2.756958 1.0181122l28.117798 25.421913q1.1937866 1.0793304 1.2532349 2.6075974q0.08163452 1.5272369 -1.0076294 2.712059l-1.9035339 2.0705643q-1.0892639 1.1848221 -2.630249 1.2450104q-1.529419 0.07067108 -2.7232056 -1.0086594l-9.179443 -8.299324l-20.759155 22.580643q-1.0681152 1.1618195 -2.610138 1.2000275q-1.530426 0.048690796 -2.6894531 -0.99920654l-4.1840515 -3.782898q-1.1358337 -1.0269394 -1.2512207 -2.5636368q-0.10379028 -1.5262146 0.96432495 -2.688034l20.759186 -22.580635l-9.167847 -8.288841q-1.2053833 -1.0898132 -1.2869873 -2.6170578q-0.07003784 -1.5167618 1.0191956 -2.7015839z" fill-rule="nonzero"/><path fill="#000000" fill-opacity="0.0" d="m387.75674 62.992535l-64.14172 -29.978546l-29.897888 62.500805l64.14172 29.978546z" fill-rule="evenodd"/><path fill="#000000" d="m316.96143 86.59094q-2.879425 -7.4858475 2.0698547 -17.832222q4.9560547 -10.360462 12.643158 -12.924969q7.687134 -2.5645027 18.062927 2.2849312l6.030121 2.8183632q6.412323 2.9969902 9.798248 8.736118q3.4067993 5.7316437 0.5545654 11.694199q-0.9709778 2.0298004 -2.6340332 2.3563538q-1.6630554 0.32656097 -2.8379517 -0.22255707l-3.2273865 -1.5084229q-3.0433655 -1.422409 -2.9841614 -5.6375885q0.016784668 -4.5971985 -4.0882263 -6.5158005l-4.8127747 -2.2493973q-5.5064087 -2.573578 -8.4888 -1.1906662q-2.9615173 1.3754272 -6.09021 7.915909q-3.1219788 6.52639 -2.3249207 9.675735q0.81118774 3.15596 6.317566 5.729538l5.393158 2.5206451q4.090851 1.9119873 7.646454 -1.0312424q3.2650452 -2.734085 6.336731 -1.298439l3.2273865 1.5084229q1.6986389 0.79389954 2.0745544 2.4701233q0.37594604 1.6762161 -0.29162598 3.0717087q-2.8589783 5.976654 -9.481476 7.0035477q-6.622528 1.026886 -13.034851 -1.9701004l-6.596344 -3.0830002q-10.375793 -4.849434 -13.261963 -12.32119z" fill-rule="nonzero"/><path fill="#000000" fill-opacity="0.0" d="m322.9109 32.722183l-70.37492 -9.019548l-9.222305 68.49605l70.37491 9.0195465z" fill-rule="evenodd"/><path fill="#000000" d="m261.36432 78.020386l4.9601746 -36.84021q0.21057129 -1.564045 1.4548035 -2.49152q1.2597351 -0.92549133 2.8095703 -0.72686005l34.15808 4.3778496q1.5653381 0.20061874 2.5000916 1.4546242q0.9368286 1.2385178 0.73043823 2.7715912l-0.37530518 2.787403q-0.2084961 1.5485611 -1.4569092 2.5070076q-1.230835 0.9449501 -2.7806396 0.7463188l-24.859161 -3.186058l-0.9048767 6.720745l21.279053 2.7272148q1.5343323 0.19664764 2.4711914 1.4351654q0.95440674 1.2250214 0.74591064 2.7735786l-0.37319946 2.771923q-0.2084961 1.5485535 -1.4569092 2.5070038q-1.230835 0.9449463 -2.7651672 0.7483063l-21.279053 -2.7272186l-0.9215698 6.8446274l24.79718 3.1781082q1.5188293 0.194664 2.4422607 1.4157104q0.9410095 1.20755 0.7325134 2.7561035l-0.38156128 2.8338623q-0.21057129 1.5640488 -1.4724121 2.5050201q-1.2463074 0.94296265 -2.7806396 0.74632263l-34.018616 -4.3599777q-1.5498352 -0.19863129 -2.5197449 -1.4256363q-0.95443726 -1.2250214 -0.73550415 -2.8510056z" fill-rule="nonzero"/><path fill="#000000" fill-opacity="0.0" d="m62.46326 339.004l387.43307 0l0 114.01575l-387.43307 0z" fill-rule="evenodd"/><path fill="#000000" d="m149.78273 435.08826q-18.109375 0 -27.90625 -9.875q-9.78125 -9.875 -9.78125 -29.890625q0 -20.03125 10.21875 -29.8125q10.21875 -9.78125 30.34375 -9.78125l11.6875 0q12.046875 0 21.953125 5.890625q9.921875 5.890625 9.921875 15.125q0 3.9375 -2.40625 5.6875q-2.390625 1.75 -4.671875 1.75l-6.234375 0q-5.53125 0 -8.203125 -5.125q-2.671875 -5.140625 -12.1875 -5.140625l-9.328125 0q-10.703125 0 -14.359375 4.390625q-3.640625 4.390625 -3.640625 17.03125q0 12.625 3.265625 17.125q3.265625 4.5 11.84375 4.5l10.75 0q7.796875 0 10.90625 -2.765625q3.109375 -2.78125 3.171875 -6.375l-10.15625 0q-2.71875 0 -4.65625 -1.921875q-1.9375 -1.9375 -1.9375 -4.671875l0 -4.09375q0 -2.734375 1.9375 -4.65625q1.9375 -1.9375 4.65625 -1.9375l26.328125 0q2.734375 0 4.65625 1.9375q1.9375 1.921875 1.9375 4.65625l0 5.828125q0 15.421875 -9.328125 23.78125q-9.3125 8.34375 -27.0 8.34375l-11.78125 0zm51.90529 -72.125q-0.5 -0.953125 -0.5 -2.234375q0 -1.28125 1.421875 -2.921875q1.4375 -1.65625 3.984375 -1.65625l11.46875 0q5.1875 0 7.78125 5.984375l18.75 41.78125l18.75 -41.78125q2.59375 -5.921875 7.765625 -5.984375l11.484375 0q2.625 0 4.015625 1.65625q1.390625 1.65625 1.390625 2.90625q0 1.234375 -0.40625 2.1875l-30.21875 65.453125q-2.890625 6.3125 -9.0 6.3125l-7.5625 0q-6.109375 0 -9.0 -6.3125l-30.125 -65.390625zm94.90686 65.0l0 -65.0625q0 -2.8125 1.890625 -4.78125q1.890625 -1.96875 4.65625 -1.96875l21.328094 0q2.640625 0 4.90625 1.8125q2.265625 1.8125 3.03125 4.328125l13.875 40.15625l13.875 -40.15625q0.765625 -2.515625 3.03125 -4.328125q2.265625 -1.8125 4.90625 -1.8125l21.328125 0q2.765625 0 4.625 1.96875q1.875 1.96875 1.875 4.78125l0 65.0625q0 2.828125 -1.9375 4.765625q-1.9375 1.9375 -4.671875 1.9375l-9.4375 0q-2.71875 0 -4.65625 -1.9375q-1.9375 -1.9375 -1.9375 -4.765625l1.671875 -51.21875l-16.9375 52.109375q-0.90625 2.40625 -3.15625 4.109375q-2.25 1.703125 -4.859375 1.703125l-7.5 0q-2.59375 0 -4.8125 -1.703125q-2.21875 -1.703125 -3.1875 -4.09375l-16.890594 -52.125l1.6718445 51.21875q0 2.828125 -1.9374695 4.765625q-1.9375 1.9375 -4.671875 1.9375l-9.4375 0q-2.71875 0 -4.6875 -1.921875q-1.953125 -1.9375 -1.953125 -4.78125z" fill-rule="nonzero"/><path fill="#000000" d="m125.55962 337.38452l0 0c0 -2.0295105 1.6452255 -3.6747437 3.6747208 -3.6747437l253.67288 0c0.9746094 0 1.9092712 0.3871765 2.5984192 1.0763245c0.68914795 0.68911743 1.076294 1.6238098 1.076294 2.5984192l0 0l0 0c0 2.02948 -1.6452026 3.6747131 -3.6747131 3.6747131l-253.67288 0c-2.0294952 0 -3.6747208 -1.6452332 -3.6747208 -3.6747131z" fill-rule="evenodd"/><path stroke="#000000" stroke-width="1.068241469816273" stroke-linejoin="round" stroke-linecap="butt" d="m125.55962 337.38452l0 0c0 -2.0295105 1.6452255 -3.6747437 3.6747208 -3.6747437l253.67288 0c0.9746094 0 1.9092712 0.3871765 2.5984192 1.0763245c0.68914795 0.68911743 1.076294 1.6238098 1.076294 2.5984192l0 0l0 0c0 2.02948 -1.6452026 3.6747131 -3.6747131 3.6747131l-253.67288 0c-2.0294952 0 -3.6747208 -1.6452332 -3.6747208 -3.6747131z" fill-rule="evenodd"/><path fill="#000000" d="m55.61952 312.57953l0 0c-0.4528122 -2.4150085 1.141552 -4.7194824 3.5611076 -5.147217l391.39618 -69.1935c1.1618958 -0.20541382 2.3626099 0.058288574 3.3379517 0.733078c0.9753723 0.6748047 1.6454773 1.7054291 1.862915 2.8651428l0.97784424 5.2151184c0.45281982 2.414978 -1.1415405 4.7194824 -3.5610962 5.147217l-391.39618 69.19348c-2.4195595 0.4277649 -4.7480736 -1.1832275 -5.200882 -3.5982056z" fill-rule="evenodd"/><path stroke="#000000" stroke-width="8.519685039370078" stroke-linejoin="round" stroke-linecap="butt" d="m55.61952 312.57953l0 0c-0.4528122 -2.4150085 1.141552 -4.7194824 3.5611076 -5.147217l391.39618 -69.1935c1.1618958 -0.20541382 2.3626099 0.058288574 3.3379517 0.733078c0.9753723 0.6748047 1.6454773 1.7054291 1.862915 2.8651428l0.97784424 5.2151184c0.45281982 2.414978 -1.1415405 4.7194824 -3.5610962 5.147217l-391.39618 69.19348c-2.4195595 0.4277649 -4.7480736 -1.1832275 -5.200882 -3.5982056z" fill-rule="evenodd"/><path fill="#000000" fill-opacity="0.0" d="m220.34158 338.13608l31.511948 -51.143982" fill-rule="evenodd"/><path stroke="#000000" stroke-width="8.519685039370078" stroke-linejoin="round" stroke-linecap="butt" d="m220.34158 338.13608l31.511948 -51.143982" fill-rule="evenodd"/><path fill="#000000" d="m260.58728 336.5784l0 -48.996216l30.706543 48.996216z" fill-rule="evenodd"/><path stroke="#000000" stroke-width="8.519685039370078" stroke-linejoin="round" stroke-linecap="butt" d="m260.58728 336.5784l0 -48.996216l30.706543 48.996216z" fill-rule="evenodd"/><path fill="#000000" d="m44.469032 256.55017l0 0c0 -3.5029602 2.8397026 -6.3426666 6.342659 -6.3426666l39.700363 0c1.6821747 0 3.295456 0.6682434 4.4849396 1.857727c1.189476 1.1894836 1.8577194 2.802765 1.8577194 4.4849396l0 0l0 0c0 3.5029602 -2.8397064 6.3426514 -6.342659 6.3426514l-39.700363 0c-3.5029564 0 -6.342659 -2.8396912 -6.342659 -6.3426514z" fill-rule="evenodd"/><path stroke="#000000" stroke-width="1.068241469816273" stroke-linejoin="round" stroke-linecap="butt" d="m44.469032 256.55017l0 0c0 -3.5029602 2.8397026 -6.3426666 6.342659 -6.3426666l39.700363 0c1.6821747 0 3.295456 0.6682434 4.4849396 1.857727c1.189476 1.1894836 1.8577194 2.802765 1.8577194 4.4849396l0 0l0 0c0 3.5029602 -2.8397064 6.3426514 -6.342659 6.3426514l-39.700363 0c-3.5029564 0 -6.342659 -2.8396912 -6.342659 -6.3426514z" fill-rule="evenodd"/><path fill="#000000" d="m70.66187 230.35733l0 0c3.5029526 0 6.342659 2.8397064 6.342659 6.3426514l0 39.70038c0 1.6821594 -0.6682434 3.2954407 -1.8577194 4.4849243c-1.1894836 1.1894836 -2.8027573 1.857727 -4.4849396 1.857727l0 0l0 0c-3.5029526 0 -6.342659 -2.8397217 -6.342659 -6.3426514l0 -39.70038c0 -3.502945 2.8397064 -6.3426514 6.342659 -6.3426514z" fill-rule="evenodd"/><path stroke="#000000" stroke-width="1.068241469816273" stroke-linejoin="round" stroke-linecap="butt" d="m70.66187 230.35733l0 0c3.5029526 0 6.342659 2.8397064 6.342659 6.3426514l0 39.70038c0 1.6821594 -0.6682434 3.2954407 -1.8577194 4.4849243c-1.1894836 1.1894836 -2.8027573 1.857727 -4.4849396 1.857727l0 0l0 0c-3.5029526 0 -6.342659 -2.8397217 -6.342659 -6.3426514l0 -39.70038c0 -3.502945 2.8397064 -6.3426514 6.342659 -6.3426514z" fill-rule="evenodd"/><path fill="#000000" d="m411.15817 203.1563l0 0c0 -3.5029602 2.8397217 -6.3426666 6.3426514 -6.3426666l39.70038 0c1.68219 0 3.2954712 0.6682434 4.4849243 1.857727c1.1894836 1.1894836 1.857727 2.802765 1.857727 4.4849396l0 0l0 0c0 3.5029602 -2.8396912 6.3426666 -6.3426514 6.3426666l-39.70038 0c-3.5029297 0 -6.3426514 -2.8397064 -6.3426514 -6.3426666z" fill-rule="evenodd"/><path stroke="#000000" stroke-width="1.068241469816273" stroke-linejoin="round" stroke-linecap="butt" d="m411.15817 203.1563l0 0c0 -3.5029602 2.8397217 -6.3426666 6.3426514 -6.3426666l39.70038 0c1.68219 0 3.2954712 0.6682434 4.4849243 1.857727c1.1894836 1.1894836 1.857727 2.802765 1.857727 4.4849396l0 0l0 0c0 3.5029602 -2.8396912 6.3426666 -6.3426514 6.3426666l-39.70038 0c-3.5029297 0 -6.3426514 -2.8397064 -6.3426514 -6.3426666z" fill-rule="evenodd"/><path fill="#000000" fill-opacity="0.0" d="m167.41585 259.9655l0 0c-0.18823242 -10.767609 8.388062 -19.649094 19.155685 -19.837326l0 0c5.1707916 -0.09039307 10.16571 1.8769989 13.885941 5.469391c3.7202148 3.592392 5.8610077 8.515488 5.9514008 13.686295l0 0c0.18823242 10.767609 -8.388062 19.649109 -19.155685 19.837341l0 0c-10.767624 0.18823242 -19.649109 -8.388062 -19.837341 -19.1557z" fill-rule="evenodd"/><path stroke="#000000" stroke-width="11.895013123359579" stroke-linejoin="round" stroke-linecap="butt" d="m167.41585 259.9655l0 0c-0.18823242 -10.767609 8.388062 -19.649094 19.155685 -19.837326l0 0c5.1707916 -0.09039307 10.16571 1.8769989 13.885941 5.469391c3.7202148 3.592392 5.8610077 8.515488 5.9514008 13.686295l0 0c0.18823242 10.767609 -8.388062 19.649109 -19.155685 19.837341l0 0c-10.767624 0.18823242 -19.649109 -8.388062 -19.837341 -19.1557z" fill-rule="evenodd"/><path fill="#000000" d="m180.44962 259.73764l0 0c-0.06239319 -3.5690918 2.7803497 -6.5130005 6.3494415 -6.5753937l0 0c1.7139435 -0.029968262 3.3695831 0.62216187 4.602707 1.812912c1.2331238 1.1907654 1.9427185 2.8226013 1.9726868 4.5365295l0 0c0.06239319 3.5690918 -2.7803497 6.5130005 -6.3494415 6.5753784l0 0c-3.5690918 0.062408447 -6.5130005 -2.7803345 -6.5753937 -6.3494263z" fill-rule="evenodd"/><path stroke="#000000" stroke-width="0.9921259842519685" stroke-linejoin="round" stroke-linecap="butt" d="m180.44962 259.73764l0 0c-0.06239319 -3.5690918 2.7803497 -6.5130005 6.3494415 -6.5753937l0 0c1.7139435 -0.029968262 3.3695831 0.62216187 4.602707 1.812912c1.2331238 1.1907654 1.9427185 2.8226013 1.9726868 4.5365295l0 0c0.06239319 3.5690918 -2.7803497 6.5130005 -6.3494415 6.5753784l0 0c-3.5690918 0.062408447 -6.5130005 -2.7803345 -6.5753937 -6.3494263z" fill-rule="evenodd"/><path fill="#000000" fill-opacity="0.0" d="m325.71194 230.89986l0 0c-0.18823242 -10.767624 8.388062 -19.649094 19.15567 -19.837341l0 0c5.170807 -0.09039307 10.165741 1.8770142 13.885956 5.469406c3.7202148 3.5923767 5.8609924 8.515488 5.9513855 13.686279l0 0c0.18823242 10.767624 -8.388062 19.649109 -19.15567 19.837341l0 0c-10.767639 0.18823242 -19.649109 -8.388062 -19.837341 -19.155685z" fill-rule="evenodd"/><path stroke="#000000" stroke-width="11.895013123359579" stroke-linejoin="round" stroke-linecap="butt" d="m325.71194 230.89986l0 0c-0.18823242 -10.767624 8.388062 -19.649094 19.15567 -19.837341l0 0c5.170807 -0.09039307 10.165741 1.8770142 13.885956 5.469406c3.7202148 3.5923767 5.8609924 8.515488 5.9513855 13.686279l0 0c0.18823242 10.767624 -8.388062 19.649109 -19.15567 19.837341l0 0c-10.767639 0.18823242 -19.649109 -8.388062 -19.837341 -19.155685z" fill-rule="evenodd"/><path fill="#000000" d="m338.7457 230.67197l0 0c-0.06237793 -3.5690918 2.780365 -6.512985 6.349457 -6.5753784l0 0c1.7139282 -0.029968262 3.3695679 0.62216187 4.6026917 1.812912c1.2331238 1.1907501 1.9427185 2.822586 1.9726868 4.5365295l0 0c0.062408447 3.5690918 -2.7803345 6.512985 -6.3494263 6.5753784l0 0c-3.5690918 0.06239319 -6.5130005 -2.7803497 -6.575409 -6.3494415z" fill-rule="evenodd"/><path stroke="#000000" stroke-width="0.9921259842519685" stroke-linejoin="round" stroke-linecap="butt" d="m338.7457 230.67197l0 0c-0.06237793 -3.5690918 2.780365 -6.512985 6.349457 -6.5753784l0 0c1.7139282 -0.029968262 3.3695679 0.62216187 4.6026917 1.812912c1.2331238 1.1907501 1.9427185 2.822586 1.9726868 4.5365295l0 0c0.062408447 3.5690918 -2.7803345 6.512985 -6.3494263 6.5753784l0 0c-3.5690918 0.06239319 -6.5130005 -2.7803497 -6.575409 -6.3494415z" fill-rule="evenodd"/><path fill="#000000" fill-opacity="0.0" d="m284.28366 159.78325c5.475403 4.0165253 16.731934 11.8703 22.166168 15.713608c5.4342346 3.8433228 8.038208 5.8437347 10.439178 7.346283c2.4009705 1.5025635 2.1094666 1.4508362 3.9666443 1.6690674c1.8571472 0.2182312 5.599121 -0.022842407 7.176361 -0.35966492c1.57724 -0.3368225 2.067688 -0.9626007 2.2871094 -1.6612854c0.21939087 -0.6986847 -0.31723022 -1.5962372 -0.9707031 -2.5307922c-0.6535034 -0.93455505 -1.7809753 -2.4598083 -2.9502869 -3.0765228c-1.169281 -0.6167145 -2.320343 -0.1910553 -4.06546 -0.6237793c-1.7450867 -0.43270874 -3.1887512 -0.19494629 -6.405182 -1.9725494c-3.2164307 -1.7776031 -8.478455 -5.72023 -12.893372 -8.693069c-4.414917 -2.9728394 -10.29068 -6.6921997 -13.5961 -9.144012c-3.30542 -2.4518127 -3.9656677 -3.7722626 -6.236389 -5.5668335c-2.270752 -1.7945709 -5.4668274 -4.616104 -7.388092 -5.200592c-1.9212646 -0.58447266 -3.7700806 0.74124146 -4.1394653 1.6936798c-0.36935425 0.9524231 -0.17837524 1.953186 1.9232178 4.020935c2.101593 2.0677338 5.2109375 4.3690033 10.686371 8.385529z" fill-rule="evenodd"/><path stroke="#000000" stroke-width="2.9763779527559056" stroke-linejoin="round" stroke-linecap="butt" d="m284.28366 159.78325c5.475403 4.0165253 16.731934 11.8703 22.166168 15.713608c5.4342346 3.8433228 8.038208 5.8437347 10.439178 7.346283c2.4009705 1.5025635 2.1094666 1.4508362 3.9666443 1.6690674c1.8571472 0.2182312 5.599121 -0.022842407 7.176361 -0.35966492c1.57724 -0.3368225 2.067688 -0.9626007 2.2871094 -1.6612854c0.21939087 -0.6986847 -0.31723022 -1.5962372 -0.9707031 -2.5307922c-0.6535034 -0.93455505 -1.7809753 -2.4598083 -2.9502869 -3.0765228c-1.169281 -0.6167145 -2.320343 -0.1910553 -4.06546 -0.6237793c-1.7450867 -0.43270874 -3.1887512 -0.19494629 -6.405182 -1.9725494c-3.2164307 -1.7776031 -8.478455 -5.72023 -12.893372 -8.693069c-4.414917 -2.9728394 -10.29068 -6.6921997 -13.5961 -9.144012c-3.30542 -2.4518127 -3.9656677 -3.7722626 -6.236389 -5.5668335c-2.270752 -1.7945709 -5.4668274 -4.616104 -7.388092 -5.200592c-1.9212646 -0.58447266 -3.7700806 0.74124146 -4.1394653 1.6936798c-0.36935425 0.9524231 -0.17837524 1.953186 1.9232178 4.020935c2.101593 2.0677338 5.2109375 4.3690033 10.686371 8.385529z" fill-rule="evenodd"/><path fill="#000000" fill-opacity="0.0" d="m132.85684 180.02829c-0.43014526 0.6739044 -1.685379 1.7940216 -2.5809174 4.0433655c-0.8955231 2.2493591 -1.9667969 5.6768646 -2.7922668 9.452744c-0.82547 3.7758942 -1.6516418 9.898361 -2.1605377 13.202591c-0.5089035 3.3042145 -0.007080078 4.187607 -0.89286804 6.6227264c-0.88578796 2.4351196 -3.639267 5.7545624 -4.4218674 7.9880066c-0.7826004 2.2334442 -0.60687256 2.2142334 -0.2737198 5.4126434c0.3331604 3.1983948 2.3359756 10.248535 2.272667 13.777771c-0.063308716 3.5292358 -2.6548233 3.809723 -2.6525345 7.3975983c0.0022964478 3.5878906 1.5626755 10.83754 2.6662903 14.129715c1.1036148 3.2921753 1.9971924 4.5579834 3.9553986 5.623352c1.9582062 1.0653992 4.926193 0.70217896 7.7938538 0.7689209c2.8676453 0.06674194 5.4474945 -0.25393677 9.412048 -0.36846924c3.9645538 -0.11456299 11.97937 -0.265625 14.375259 -0.3187256" fill-rule="evenodd"/><path stroke="#000000" stroke-width="3.968503937007874" stroke-linejoin="round" stroke-linecap="butt" d="m132.85684 180.02829c-0.43014526 0.6739044 -1.685379 1.7940216 -2.5809174 4.0433655c-0.8955231 2.2493591 -1.9667969 5.6768646 -2.7922668 9.452744c-0.82547 3.7758942 -1.6516418 9.898361 -2.1605377 13.202591c-0.5089035 3.3042145 -0.007080078 4.187607 -0.89286804 6.6227264c-0.88578796 2.4351196 -3.639267 5.7545624 -4.4218674 7.9880066c-0.7826004 2.2334442 -0.60687256 2.2142334 -0.2737198 5.4126434c0.3331604 3.1983948 2.3359756 10.248535 2.272667 13.777771c-0.063308716 3.5292358 -2.6548233 3.809723 -2.6525345 7.3975983c0.0022964478 3.5878906 1.5626755 10.83754 2.6662903 14.129715c1.1036148 3.2921753 1.9971924 4.5579834 3.9553986 5.623352c1.9582062 1.0653992 4.926193 0.70217896 7.7938538 0.7689209c2.8676453 0.06674194 5.4474945 -0.25393677 9.412048 -0.36846924c3.9645538 -0.11456299 11.97937 -0.265625 14.375259 -0.3187256" fill-rule="evenodd"/><path fill="#000000" fill-opacity="0.0" d="m157.17097 276.96207c-0.0262146 -1.6838684 -0.5678253 -4.7254333 -0.15722656 -10.103119c0.4105835 -5.377716 1.1270599 -16.739014 2.6207733 -22.163086c1.4937286 -5.4240875 3.024292 -7.7775116 6.341568 -10.381393c3.3172913 -2.6038666 9.02153 -4.2799225 13.562149 -5.241867c4.540634 -0.96195984 10.0221405 -0.9067993 13.68158 -0.52986145c3.6594543 0.37695312 5.682724 1.076767 8.275085 2.791504c2.5923615 1.7147217 4.8370667 3.9127502 7.279068 7.496887c2.4420166 3.584137 4.9714203 11.393921 7.372986 14.00795c2.4015656 2.614029 -0.5491333 2.7357483 7.036377 1.6762238c7.585495 -1.0595245 27.933777 -5.7953186 38.47664 -8.0334015c10.542877 -2.238083 17.130646 -3.7841644 24.780579 -5.3950653c7.6499634 -1.6108856 16.258972 -4.0775757 21.11914 -4.27034c4.860138 -0.19276428 6.728119 3.689392 8.04184 3.1137695c1.3137512 -0.5756378 -0.16815186 -2.792801 -0.15939331 -6.5675507c0.008758545 -3.7747498 -0.23858643 -11.455811 0.21191406 -16.080917c0.4505005 -4.625122 0.66574097 -8.420242 2.4910278 -11.669739c1.8253174 -3.2494965 4.312439 -5.8932037 8.460785 -7.82724c4.148346 -1.934021 11.999115 -3.2758026 16.429321 -3.7769012c4.430176 -0.50109863 6.761383 -0.39624023 10.151764 0.77033997c3.3903809 1.1665802 7.398102 3.6559906 10.190491 6.229126c2.792389 2.57312 4.8394165 6.301285 6.563843 9.209625c1.7243958 2.9083405 2.5611572 7.032593 3.7825928 8.240387c1.221405 1.2077942 1.1583862 0.40344238 3.545868 -0.99360657c2.3875122 -1.3970337 7.7591248 -5.2345886 10.779114 -7.3886414c3.0199585 -2.154068 5.675995 -3.7627563 7.34079 -5.535721c1.6647644 -1.7729645 2.57547 -1.9444733 2.6478271 -5.102051c0.072387695 -3.1575623 -1.844635 -11.536163 -2.213562 -13.843399" fill-rule="evenodd"/><path stroke="#000000" stroke-width="3.968503937007874" stroke-linejoin="round" stroke-linecap="butt" d="m157.17097 276.96207c-0.0262146 -1.6838684 -0.5678253 -4.7254333 -0.15722656 -10.103119c0.4105835 -5.377716 1.1270599 -16.739014 2.6207733 -22.163086c1.4937286 -5.4240875 3.024292 -7.7775116 6.341568 -10.381393c3.3172913 -2.6038666 9.02153 -4.2799225 13.562149 -5.241867c4.540634 -0.96195984 10.0221405 -0.9067993 13.68158 -0.52986145c3.6594543 0.37695312 5.682724 1.076767 8.275085 2.791504c2.5923615 1.7147217 4.8370667 3.9127502 7.279068 7.496887c2.4420166 3.584137 4.9714203 11.393921 7.372986 14.00795c2.4015656 2.614029 -0.5491333 2.7357483 7.036377 1.6762238c7.585495 -1.0595245 27.933777 -5.7953186 38.47664 -8.0334015c10.542877 -2.238083 17.130646 -3.7841644 24.780579 -5.3950653c7.6499634 -1.6108856 16.258972 -4.0775757 21.11914 -4.27034c4.860138 -0.19276428 6.728119 3.689392 8.04184 3.1137695c1.3137512 -0.5756378 -0.16815186 -2.792801 -0.15939331 -6.5675507c0.008758545 -3.7747498 -0.23858643 -11.455811 0.21191406 -16.080917c0.4505005 -4.625122 0.66574097 -8.420242 2.4910278 -11.669739c1.8253174 -3.2494965 4.312439 -5.8932037 8.460785 -7.82724c4.148346 -1.934021 11.999115 -3.2758026 16.429321 -3.7769012c4.430176 -0.50109863 6.761383 -0.39624023 10.151764 0.77033997c3.3903809 1.1665802 7.398102 3.6559906 10.190491 6.229126c2.792389 2.57312 4.8394165 6.301285 6.563843 9.209625c1.7243958 2.9083405 2.5611572 7.032593 3.7825928 8.240387c1.221405 1.2077942 1.1583862 0.40344238 3.545868 -0.99360657c2.3875122 -1.3970337 7.7591248 -5.2345886 10.779114 -7.3886414c3.0199585 -2.154068 5.675995 -3.7627563 7.34079 -5.535721c1.6647644 -1.7729645 2.57547 -1.9444733 2.6478271 -5.102051c0.072387695 -3.1575623 -1.844635 -11.536163 -2.213562 -13.843399" fill-rule="evenodd"/><path fill="#cfe2f3" d="m136.83777 168.40245c9.565216 -2.5485077 102.20497 -27.309082 111.167694 -29.712677c8.962738 -2.403595 -38.863358 10.3390045 -57.39131 15.291122c-18.527939 4.952118 -63.3416 16.970078 -53.776382 14.421555z" fill-rule="evenodd"/><path stroke="#000000" stroke-width="3.968503937007874" stroke-linejoin="round" stroke-linecap="butt" d="m136.83777 168.40245c9.565216 -2.5485077 102.20497 -27.309082 111.167694 -29.712677c8.962738 -2.403595 -38.863358 10.3390045 -57.39131 15.291122c-18.527939 4.952118 -63.3416 16.970078 -53.776382 14.421555z" fill-rule="evenodd"/><path fill="#000000" fill-opacity="0.0" d="m131.11546 182.35236c0.332901 -0.35876465 0.75546265 -1.3844147 1.9974518 -2.1525574c1.2419891 -0.7681427 2.6249695 -1.3982086 5.454468 -2.4562836c2.8295135 -1.058075 6.518265 -2.3166504 11.522598 -3.8921661c5.0043335 -1.5755157 12.278778 -3.797226 18.503403 -5.560913c6.2246246 -1.7637024 12.05365 -3.1966095 18.844345 -5.0212555c6.7907104 -1.8246307 14.795853 -4.1476135 21.899857 -5.92659c7.104004 -1.7789764 13.605103 -3.453827 20.724152 -4.7472534c7.119034 -1.2934418 16.576035 -2.5435944 21.990082 -3.0133514c5.414032 -0.46974182 7.002533 -0.335495 10.494141 0.19483948c3.4916382 0.53034973 8.306213 2.333496 10.455597 2.9871979c2.149414 0.6537018 2.033966 0.77915955 2.4407654 0.93499756" fill-rule="evenodd"/><path stroke="#000000" stroke-width="3.968503937007874" stroke-linejoin="round" stroke-linecap="butt" d="m131.11546 182.35236c0.332901 -0.35876465 0.75546265 -1.3844147 1.9974518 -2.1525574c1.2419891 -0.7681427 2.6249695 -1.3982086 5.454468 -2.4562836c2.8295135 -1.058075 6.518265 -2.3166504 11.522598 -3.8921661c5.0043335 -1.5755157 12.278778 -3.797226 18.503403 -5.560913c6.2246246 -1.7637024 12.05365 -3.1966095 18.844345 -5.0212555c6.7907104 -1.8246307 14.795853 -4.1476135 21.899857 -5.92659c7.104004 -1.7789764 13.605103 -3.453827 20.724152 -4.7472534c7.119034 -1.2934418 16.576035 -2.5435944 21.990082 -3.0133514c5.414032 -0.46974182 7.002533 -0.335495 10.494141 0.19483948c3.4916382 0.53034973 8.306213 2.333496 10.455597 2.9871979c2.149414 0.6537018 2.033966 0.77915955 2.4407654 0.93499756" fill-rule="evenodd"/><path fill="#000000" fill-opacity="0.0" d="m312.70078 172.19681c2.7991638 -0.36172485 10.376801 -1.4221497 16.794922 -2.1703491c6.4181213 -0.74819946 16.078766 -1.7337341 21.713867 -2.3188477c5.6351013 -0.5851288 8.643677 -1.1762543 12.09668 -1.1918793c3.453003 -0.015625 6.0310974 0.21002197 8.621368 1.0980988c2.590271 0.8880768 5.3026123 1.9677582 6.9201965 4.230362c1.6175842 2.2625885 2.0606995 7.160431 2.7853699 9.34523c0.7246399 2.1847992 0.5456543 2.514206 1.562561 3.763565c1.0168762 1.2493591 3.7823486 3.1104584 4.538849 3.732544" fill-rule="evenodd"/><path stroke="#000000" stroke-width="3.968503937007874" stroke-linejoin="round" stroke-linecap="butt" d="m312.70078 172.19681c2.7991638 -0.36172485 10.376801 -1.4221497 16.794922 -2.1703491c6.4181213 -0.74819946 16.078766 -1.7337341 21.713867 -2.3188477c5.6351013 -0.5851288 8.643677 -1.1762543 12.09668 -1.1918793c3.453003 -0.015625 6.0310974 0.21002197 8.621368 1.0980988c2.590271 0.8880768 5.3026123 1.9677582 6.9201965 4.230362c1.6175842 2.2625885 2.0606995 7.160431 2.7853699 9.34523c0.7246399 2.1847992 0.5456543 2.514206 1.562561 3.763565c1.0168762 1.2493591 3.7823486 3.1104584 4.538849 3.732544" fill-rule="evenodd"/><path fill="#000000" fill-opacity="0.0" d="m145.14992 174.2779c-0.1453247 -1.1549835 0.9442749 -6.7157135 1.675827 -8.16391c0.73153687 -1.4481812 2.5681 -1.6802063 2.71344 -0.5252075c0.1453247 1.1549988 -1.1099243 6.007004 -1.8414764 7.455185c-0.73153687 1.4481964 -2.4024658 2.3889313 -2.5477905 1.2339325z" fill-rule="evenodd"/><path stroke="#000000" stroke-width="2.9763779527559056" stroke-linejoin="round" stroke-linecap="butt" d="m145.14992 174.2779c-0.1453247 -1.1549835 0.9442749 -6.7157135 1.675827 -8.16391c0.73153687 -1.4481812 2.5681 -1.6802063 2.71344 -0.5252075c0.1453247 1.1549988 -1.1099243 6.007004 -1.8414764 7.455185c-0.73153687 1.4481964 -2.4024658 2.3889313 -2.5477905 1.2339325z" fill-rule="evenodd"/><path fill="#000000" fill-opacity="0.0" d="m238.13068 151.11342c-0.8803711 -0.6950989 -4.0277863 -5.1183167 -4.574417 -6.5397034c-0.5466461 -1.4213867 0.4142456 -2.6837158 1.2946167 -1.9886322c0.8803711 0.6950989 3.4409485 4.7378235 3.9875946 6.15921c0.54663086 1.4213867 0.1725769 3.0642242 -0.7077942 2.3691254z" fill-rule="evenodd"/><path stroke="#000000" stroke-width="2.9763779527559056" stroke-linejoin="round" stroke-linecap="butt" d="m238.13068 151.11342c-0.8803711 -0.6950989 -4.0277863 -5.1183167 -4.574417 -6.5397034c-0.5466461 -1.4213867 0.4142456 -2.6837158 1.2946167 -1.9886322c0.8803711 0.6950989 3.4409485 4.7378235 3.9875946 6.15921c0.54663086 1.4213867 0.1725769 3.0642242 -0.7077942 2.3691254z" fill-rule="evenodd"/><path fill="#000000" fill-opacity="0.0" d="m188.70096 161.40685c-0.251297 -0.7769623 0.28355408 -4.8231506 0.8594818 -5.953354c0.5759125 -1.1302032 2.3447266 -1.6048279 2.5960388 -0.82785034c0.251297 0.7769623 -0.5123291 4.3594513 -1.0882416 5.4896545c-0.57592773 1.1302032 -2.115982 2.068512 -2.367279 1.2915497z" fill-rule="evenodd"/><path stroke="#000000" stroke-width="2.9763779527559056" stroke-linejoin="round" stroke-linecap="butt" d="m188.70096 161.40685c-0.251297 -0.7769623 0.28355408 -4.8231506 0.8594818 -5.953354c0.5759125 -1.1302032 2.3447266 -1.6048279 2.5960388 -0.82785034c0.251297 0.7769623 -0.5123291 4.3594513 -1.0882416 5.4896545c-0.57592773 1.1302032 -2.115982 2.068512 -2.367279 1.2915497z" fill-rule="evenodd"/><path fill="#000000" fill-opacity="0.0" d="m268.90158 151.76826c1.7924805 0.9190521 6.9446106 3.2881012 10.754883 5.514328c3.8102417 2.2262115 10.088898 6.535797 12.106689 7.8429565" fill-rule="evenodd"/><path stroke="#000000" stroke-width="1.984251968503937" stroke-linejoin="round" stroke-linecap="butt" d="m268.90158 151.76826c1.7924805 0.9190521 6.9446106 3.2881012 10.754883 5.514328c3.8102417 2.2262115 10.088898 6.535797 12.106689 7.8429565" fill-rule="evenodd"/><path fill="#000000" fill-opacity="0.0" d="m367.7212 206.91917c2.4322815 -0.5513458 10.495972 -3.1657257 14.593658 -3.3080902c4.0977173 -0.1423645 8.327118 2.0449371 9.992554 2.4539337" fill-rule="evenodd"/><path stroke="#000000" stroke-width="2.9763779527559056" stroke-linejoin="round" stroke-linecap="butt" d="m367.7212 206.91917c2.4322815 -0.5513458 10.495972 -3.1657257 14.593658 -3.3080902c4.0977173 -0.1423645 8.327118 2.0449371 9.992554 2.4539337" fill-rule="evenodd"/><path fill="#000000" fill-opacity="0.0" d="m362.4973 199.56326c0.65515137 -0.91322327 2.190094 -4.168335 3.9307556 -5.4793396c1.7406616 -1.3110199 1.6414795 -1.2319946 6.513275 -2.3867493c4.871826 -1.1547546 18.931335 -3.78479 22.71759 -4.541748" fill-rule="evenodd"/><path stroke="#000000" stroke-width="2.9763779527559056" stroke-linejoin="round" stroke-linecap="butt" d="m362.4973 199.56326c0.65515137 -0.91322327 2.190094 -4.168335 3.9307556 -5.4793396c1.7406616 -1.3110199 1.6414795 -1.2319946 6.513275 -2.3867493c4.871826 -1.1547546 18.931335 -3.78479 22.71759 -4.541748" fill-rule="evenodd"/><path fill="#000000" fill-opacity="0.0" d="m383.21045 189.91592c0.29333496 1.4531708 -0.63253784 7.0658875 1.7598877 8.719025c2.3924255 1.653122 10.495544 0.9998169 12.594666 1.1997833" fill-rule="evenodd"/><path stroke="#000000" stroke-width="2.9763779527559056" stroke-linejoin="round" stroke-linecap="butt" d="m383.21045 189.91592c0.29333496 1.4531708 -0.63253784 7.0658875 1.7598877 8.719025c2.3924255 1.653122 10.495544 0.9998169 12.594666 1.1997833" fill-rule="evenodd"/><path fill="#000000" fill-opacity="0.0" d="m381.95306 203.81628c0.5476074 -0.79382324 2.7380676 -3.969101 3.2857056 -4.762924" fill-rule="evenodd"/><path stroke="#000000" stroke-width="2.9763779527559056" stroke-linejoin="round" stroke-linecap="butt" d="m381.95306 203.81628c0.5476074 -0.79382324 2.7380676 -3.969101 3.2857056 -4.762924" fill-rule="evenodd"/><path fill="#000000" fill-opacity="0.0" d="m391.7574 199.14543c-0.87612915 -0.3366089 -3.1357727 -2.4304962 -3.4209595 -3.7286377c-0.28518677 -1.2981415 0.8780823 -3.551117 1.7098389 -4.0602264c0.8317566 -0.50909424 2.6896057 -0.0077209473 3.2807617 1.0055847c0.5911255 1.0133209 0.52767944 3.943756 0.26608276 5.074295c-0.26159668 1.1305542 -0.95962524 2.0455933 -1.8357239 1.7089844z" fill-rule="evenodd"/><path stroke="#000000" stroke-width="2.9763779527559056" stroke-linejoin="round" stroke-linecap="butt" d="m391.7574 199.14543c-0.87612915 -0.3366089 -3.1357727 -2.4304962 -3.4209595 -3.7286377c-0.28518677 -1.2981415 0.8780823 -3.551117 1.7098389 -4.0602264c0.8317566 -0.50909424 2.6896057 -0.0077209473 3.2807617 1.0055847c0.5911255 1.0133209 0.52767944 3.943756 0.26608276 5.074295c-0.26159668 1.1305542 -0.95962524 2.0455933 -1.8357239 1.7089844z" fill-rule="evenodd"/><path fill="#000000" fill-opacity="0.0" d="m382.21494 183.94977c-1.8840332 0.35758972 -7.790741 2.1059113 -11.304138 2.1455536c-3.5133972 0.039642334 -7.1984253 -0.46058655 -9.776306 -1.9077148c-2.5779114 -1.4471436 -6.8038025 -5.1244507 -5.69104 -6.775116c1.1127625 -1.65065 8.579559 -2.216751 12.367676 -3.12883c3.7881165 -0.9120636 8.634186 -1.9530029 10.361023 -2.3436127" fill-rule="evenodd"/><path stroke="#000000" stroke-width="2.9763779527559056" stroke-linejoin="round" stroke-linecap="butt" d="m382.21494 183.94977c-1.8840332 0.35758972 -7.790741 2.1059113 -11.304138 2.1455536c-3.5133972 0.039642334 -7.1984253 -0.46058655 -9.776306 -1.9077148c-2.5779114 -1.4471436 -6.8038025 -5.1244507 -5.69104 -6.775116c1.1127625 -1.65065 8.579559 -2.216751 12.367676 -3.12883c3.7881165 -0.9120636 8.634186 -1.9530029 10.361023 -2.3436127" fill-rule="evenodd"/><path fill="#000000" fill-opacity="0.0" d="m367.38278 174.43118c0.8005676 1.8603668 4.002838 9.301804 4.803406 11.16217" fill-rule="evenodd"/><path stroke="#000000" stroke-width="2.9763779527559056" stroke-linejoin="round" stroke-linecap="butt" d="m367.38278 174.43118c0.8005676 1.8603668 4.002838 9.301804 4.803406 11.16217" fill-rule="evenodd"/><path fill="#000000" fill-opacity="0.0" d="m364.37207 185.63054c-1.2459106 1.678482 -6.2296143 8.39241 -7.475525 10.070892" fill-rule="evenodd"/><path stroke="#000000" stroke-width="2.9763779527559056" stroke-linejoin="round" stroke-linecap="butt" d="m364.37207 185.63054c-1.2459106 1.678482 -6.2296143 8.39241 -7.475525 10.070892" fill-rule="evenodd"/><path fill="#000000" fill-opacity="0.0" d="m394.47864 186.77501c-1.2376709 -3.3953552 -7.133545 -20.366531 -7.4260864 -20.372147c-0.29257202 -0.0055999756 4.725647 16.948761 5.6707764 20.338501" fill-rule="evenodd"/><path stroke="#000000" stroke-width="3.968503937007874" stroke-linejoin="round" stroke-linecap="butt" d="m394.47864 186.77501c-1.2376709 -3.3953552 -7.133545 -20.366531 -7.4260864 -20.372147c-0.29257202 -0.0055999756 4.725647 16.948761 5.6707764 20.338501" fill-rule="evenodd"/><path fill="#000000" fill-opacity="0.0" d="m119.589134 221.60797c1.1102066 -0.3165741 5.00721 -2.0919647 6.661278 -1.8994904c1.6540756 0.19247437 2.0529327 0.6774292 3.2631378 3.0543213c1.2102051 2.3768768 2.1173553 8.26561 3.9980774 11.207001c1.880722 2.941391 2.206253 5.994293 7.286255 6.441345c5.0799866 0.44703674 19.32811 -3.132553 23.193726 -3.7590637" fill-rule="evenodd"/><path stroke="#000000" stroke-width="2.9763779527559056" stroke-linejoin="round" stroke-linecap="butt" d="m119.589134 221.60797c1.1102066 -0.3165741 5.00721 -2.0919647 6.661278 -1.8994904c1.6540756 0.19247437 2.0529327 0.6774292 3.2631378 3.0543213c1.2102051 2.3768768 2.1173553 8.26561 3.9980774 11.207001c1.880722 2.941391 2.206253 5.994293 7.286255 6.441345c5.0799866 0.44703674 19.32811 -3.132553 23.193726 -3.7590637" fill-rule="evenodd"/><path fill="#000000" fill-opacity="0.0" d="m131.7652 229.0349c-0.91555786 0.28596497 -3.6057892 1.2342529 -5.4933014 1.7157898c-1.8875122 0.48153687 -4.85981 0.977829 -5.831772 1.1733856" fill-rule="evenodd"/><path stroke="#000000" stroke-width="2.9763779527559056" stroke-linejoin="round" stroke-linecap="butt" d="m131.7652 229.0349c-0.91555786 0.28596497 -3.6057892 1.2342529 -5.4933014 1.7157898c-1.8875122 0.48153687 -4.85981 0.977829 -5.831772 1.1733856" fill-rule="evenodd"/><path fill="#000000" fill-opacity="0.0" d="m133.8162 235.00824c-1.1122742 0.28541565 -4.6903687 1.2776642 -6.673691 1.7125549c-1.9833145 0.4348755 -4.355171 0.7472687 -5.226204 0.8967285" fill-rule="evenodd"/><path stroke="#000000" stroke-width="2.9763779527559056" stroke-linejoin="round" stroke-linecap="butt" d="m133.8162 235.00824c-1.1122742 0.28541565 -4.6903687 1.2776642 -6.673691 1.7125549c-1.9833145 0.4348755 -4.355171 0.7472687 -5.226204 0.8967285" fill-rule="evenodd"/><path fill="#000000" fill-opacity="0.0" d="m120.349434 252.65196c0.66316986 0.026885986 3.1299973 -0.65219116 3.9790115 0.16131592c0.8490219 0.8135071 1.6034698 3.7735748 1.1150818 4.719742c-0.48838806 0.946167 -3.3711853 0.7977295 -4.045418 0.9572754" fill-rule="evenodd"/><path stroke="#000000" stroke-width="2.9763779527559056" stroke-linejoin="round" stroke-linecap="butt" d="m120.349434 252.65196c0.66316986 0.026885986 3.1299973 -0.65219116 3.9790115 0.16131592c0.8490219 0.8135071 1.6034698 3.7735748 1.1150818 4.719742c-0.48838806 0.946167 -3.3711853 0.7977295 -4.045418 0.9572754" fill-rule="evenodd"/><path fill="#000000" fill-opacity="0.0" d="m128.40875 188.69768c-1.168602 -0.5900574 -6.694107 -2.4197693 -7.0116653 -3.5403595c-0.3175583 -1.120575 3.1566467 -2.3053894 5.1063156 -3.1831512c1.9496765 -0.87776184 5.493088 -1.7361908 6.5917206 -2.0834198" fill-rule="evenodd"/><path stroke="#000000" stroke-width="2.9763779527559056" stroke-linejoin="round" stroke-linecap="butt" d="m128.40875 188.69768c-1.168602 -0.5900574 -6.694107 -2.4197693 -7.0116653 -3.5403595c-0.3175583 -1.120575 3.1566467 -2.3053894 5.1063156 -3.1831512c1.9496765 -0.87776184 5.493088 -1.7361908 6.5917206 -2.0834198" fill-rule="evenodd"/><path fill="#000000" fill-opacity="0.0" d="m185.04764 202.79126c-7.371414 1.3995972 -20.358704 4.1892242 -26.114853 4.842346c-5.7561493 0.6531372 -6.4670563 0.080322266 -8.422028 -0.9235687c-1.9549866 -1.003891 -2.9230804 -2.1007843 -3.3078766 -5.099777c-0.38479614 -2.998993 0.26167297 -9.608795 0.99909973 -12.894165c0.73742676 -3.2853699 0.9686432 -4.962326 3.4254456 -6.8180695c2.4568024 -1.8557434 6.0907288 -2.5947266 11.315369 -4.316391c5.22464 -1.7216797 12.713745 -4.0067444 20.032455 -6.013672c7.3187103 -2.0069122 16.332138 -4.2468567 23.879822 -6.027817c7.5476685 -1.7809601 14.898727 -3.344925 21.40622 -4.657959c6.507492 -1.313034 12.234528 -2.5543213 17.638718 -3.2202606c5.40419 -0.66593933 10.769516 -1.0710297 14.786392 -0.7753601c4.0169067 0.29566956 5.762665 1.060852 9.314941 2.5493774c3.5523071 1.4885406 6.9957275 3.2524261 11.99881 6.3818054c5.003113 3.1293793 15.295319 9.931564 18.019836 12.394485c2.7245178 2.4629211 -0.13531494 1.7335815 -1.6727295 2.3830261c-1.5374146 0.64945984 -2.5292053 0.47479248 -7.551697 1.5136871c-5.0224915 1.0389099 -13.936188 2.9948425 -22.583221 4.719696c-8.647034 1.7248383 -18.457138 3.5614777 -29.298996 5.6293793c-10.841858 2.0679169 -26.774536 5.055847 -35.75215 6.7780457c-8.977615 1.7222137 -10.742157 2.1556091 -18.113556 3.555191z" fill-rule="evenodd"/><path stroke="#000000" stroke-width="2.9763779527559056" stroke-linejoin="round" stroke-linecap="butt" d="m185.04764 202.79126c-7.371414 1.3995972 -20.358704 4.1892242 -26.114853 4.842346c-5.7561493 0.6531372 -6.4670563 0.080322266 -8.422028 -0.9235687c-1.9549866 -1.003891 -2.9230804 -2.1007843 -3.3078766 -5.099777c-0.38479614 -2.998993 0.26167297 -9.608795 0.99909973 -12.894165c0.73742676 -3.2853699 0.9686432 -4.962326 3.4254456 -6.8180695c2.4568024 -1.8557434 6.0907288 -2.5947266 11.315369 -4.316391c5.22464 -1.7216797 12.713745 -4.0067444 20.032455 -6.013672c7.3187103 -2.0069122 16.332138 -4.2468567 23.879822 -6.027817c7.5476685 -1.7809601 14.898727 -3.344925 21.40622 -4.657959c6.507492 -1.313034 12.234528 -2.5543213 17.638718 -3.2202606c5.40419 -0.66593933 10.769516 -1.0710297 14.786392 -0.7753601c4.0169067 0.29566956 5.762665 1.060852 9.314941 2.5493774c3.5523071 1.4885406 6.9957275 3.2524261 11.99881 6.3818054c5.003113 3.1293793 15.295319 9.931564 18.019836 12.394485c2.7245178 2.4629211 -0.13531494 1.7335815 -1.6727295 2.3830261c-1.5374146 0.64945984 -2.5292053 0.47479248 -7.551697 1.5136871c-5.0224915 1.0389099 -13.936188 2.9948425 -22.583221 4.719696c-8.647034 1.7248383 -18.457138 3.5614777 -29.298996 5.6293793c-10.841858 2.0679169 -26.774536 5.055847 -35.75215 6.7780457c-8.977615 1.7222137 -10.742157 2.1556091 -18.113556 3.555191z" fill-rule="evenodd"/><path fill="#000000" fill-opacity="0.0" d="m148.1129 232.02383c0.7817688 1.3033752 1.4049988 1.1482391 3.0970917 1.0803528c1.6920929 -0.06788635 5.588852 -0.8623352 7.0554504 -1.4876709c1.4665833 -0.6253357 1.6236267 -0.8102875 1.7440796 -2.2643127c0.12046814 -1.4540253 -0.37393188 -5.1602783 -1.0213318 -6.4598236c-0.6473999 -1.2995605 -1.1349487 -1.3143768 -2.863083 -1.3375244c-1.7281189 -0.023147583 -5.904724 0.5771179 -7.5056915 1.1986389c-1.6009674 0.621521 -2.0156708 0.98542786 -2.1000824 2.530487c-0.08442688 1.5450592 0.81178284 5.436493 1.5935669 6.739853z" fill-rule="evenodd"/><path stroke="#000000" stroke-width="2.9763779527559056" stroke-linejoin="round" stroke-linecap="butt" d="m148.1129 232.02383c0.7817688 1.3033752 1.4049988 1.1482391 3.0970917 1.0803528c1.6920929 -0.06788635 5.588852 -0.8623352 7.0554504 -1.4876709c1.4665833 -0.6253357 1.6236267 -0.8102875 1.7440796 -2.2643127c0.12046814 -1.4540253 -0.37393188 -5.1602783 -1.0213318 -6.4598236c-0.6473999 -1.2995605 -1.1349487 -1.3143768 -2.863083 -1.3375244c-1.7281189 -0.023147583 -5.904724 0.5771179 -7.5056915 1.1986389c-1.6009674 0.621521 -2.0156708 0.98542786 -2.1000824 2.530487c-0.08442688 1.5450592 0.81178284 5.436493 1.5935669 6.739853z" fill-rule="evenodd"/><path fill="#cfe2f3" d="m313.93527 193.92159c-0.19186401 0.092559814 -3.105133 0.76205444 -3.4959412 0.8033905c-0.3908081 0.04133606 0.5684509 -0.42147827 1.1510925 -0.55537415c0.5826721 -0.13391113 2.5366821 -0.34057617 2.3448486 -0.24801636z" fill-rule="evenodd"/><path stroke="#000000" stroke-width="2.9763779527559056" stroke-linejoin="round" stroke-linecap="butt" d="m313.93527 193.92159c-0.19186401 0.092559814 -3.105133 0.76205444 -3.4959412 0.8033905c-0.3908081 0.04133606 0.5684509 -0.42147827 1.1510925 -0.55537415c0.5826721 -0.13391113 2.5366821 -0.34057617 2.3448486 -0.24801636z" fill-rule="evenodd"/><path fill="#cfe2f3" d="m262.0485 200.61372c-0.97854614 0.26885986 -10.486908 2.319809 -11.410049 2.4611511c-0.9231262 0.1413269 3.969574 -1.2029724 5.871231 -1.6131592c1.9017029 -0.41020203 6.5173645 -1.1168518 5.5388184 -0.84799194z" fill-rule="evenodd"/><path stroke="#000000" stroke-width="2.9763779527559056" stroke-linejoin="round" stroke-linecap="butt" d="m262.0485 200.61372c-0.97854614 0.26885986 -10.486908 2.319809 -11.410049 2.4611511c-0.9231262 0.1413269 3.969574 -1.2029724 5.871231 -1.6131592c1.9017029 -0.41020203 6.5173645 -1.1168518 5.5388184 -0.84799194z" fill-rule="evenodd"/><path fill="#cfe2f3" d="m205.11823 211.72572c-1.0295563 0.28152466 -10.436829 2.2728882 -11.288742 2.3896484c-0.85191345 0.116760254 4.2958374 -1.2908478 6.177292 -1.6891327c1.8814697 -0.39826965 6.140991 -0.9820404 5.11145 -0.70051575z" fill-rule="evenodd"/><path stroke="#000000" stroke-width="2.9763779527559056" stroke-linejoin="round" stroke-linecap="butt" d="m205.11823 211.72572c-1.0295563 0.28152466 -10.436829 2.2728882 -11.288742 2.3896484c-0.85191345 0.116760254 4.2958374 -1.2908478 6.177292 -1.6891327c1.8814697 -0.39826965 6.140991 -0.9820404 5.11145 -0.70051575z" fill-rule="evenodd"/><path fill="#000000" fill-opacity="0.0" d="m299.29694 180.97939c0.8983154 2.3411407 3.893097 8.376587 5.3897705 14.046814c1.4966431 5.670227 2.961853 14.889282 3.5902405 19.974548c0.62835693 5.085266 0.54296875 7.9947205 0.17996216 10.537033c-0.3630066 2.5423126 -1.0379639 3.6650085 -2.3580017 4.7168884c-1.3200378 1.0518646 -3.0711365 0.9882355 -5.562195 1.5943451c-2.4910583 0.60609436 -1.7496338 0.53552246 -9.384186 2.0422668c-7.6345825 1.5067596 -26.598663 5.0561676 -36.423218 6.9982147c-9.824554 1.9420471 -17.305359 3.6152954 -22.524124 4.6540527c-5.2187653 1.0387726 -6.718643 1.418335 -8.788452 1.5785522c-2.0697937 0.16020203 -2.5476837 -0.0843811 -3.6303558 -0.6172943c-1.0826721 -0.53289795 -1.9699554 -1.2727509 -2.8657074 -2.5801392c-0.89575195 -1.307373 -1.4611053 -3.4271393 -2.5088196 -5.2641144c-1.0477295 -1.8369904 -2.4209595 -4.1432343 -3.7774658 -5.7577667c-1.3565216 -1.6145172 -2.842453 -2.7576447 -4.3615875 -3.929428c-1.5191498 -1.1717682 -3.108963 -2.3085785 -4.7532654 -3.1012268c-1.6442871 -0.7926483 -3.3967285 -1.2795715 -5.112488 -1.6546631c-1.715744 -0.3750763 -3.8324127 -0.098220825 -5.182022 -0.59584045c-1.3496094 -0.4976349 -2.1813965 -1.1978455 -2.9156647 -2.3899384c-0.7342529 -1.1920929 -1.1642914 -1.7084198 -1.4898834 -4.762619c-0.32559204 -3.0541992 -0.38641357 -11.302155 -0.46368408 -13.562592" fill-rule="evenodd"/><path stroke="#000000" stroke-width="2.9763779527559056" stroke-linejoin="round" stroke-linecap="butt" d="m299.29694 180.97939c0.8983154 2.3411407 3.893097 8.376587 5.3897705 14.046814c1.4966431 5.670227 2.961853 14.889282 3.5902405 19.974548c0.62835693 5.085266 0.54296875 7.9947205 0.17996216 10.537033c-0.3630066 2.5423126 -1.0379639 3.6650085 -2.3580017 4.7168884c-1.3200378 1.0518646 -3.0711365 0.9882355 -5.562195 1.5943451c-2.4910583 0.60609436 -1.7496338 0.53552246 -9.384186 2.0422668c-7.6345825 1.5067596 -26.598663 5.0561676 -36.423218 6.9982147c-9.824554 1.9420471 -17.305359 3.6152954 -22.524124 4.6540527c-5.2187653 1.0387726 -6.718643 1.418335 -8.788452 1.5785522c-2.0697937 0.16020203 -2.5476837 -0.0843811 -3.6303558 -0.6172943c-1.0826721 -0.53289795 -1.9699554 -1.2727509 -2.8657074 -2.5801392c-0.89575195 -1.307373 -1.4611053 -3.4271393 -2.5088196 -5.2641144c-1.0477295 -1.8369904 -2.4209595 -4.1432343 -3.7774658 -5.7577667c-1.3565216 -1.6145172 -2.842453 -2.7576447 -4.3615875 -3.929428c-1.5191498 -1.1717682 -3.108963 -2.3085785 -4.7532654 -3.1012268c-1.6442871 -0.7926483 -3.3967285 -1.2795715 -5.112488 -1.6546631c-1.715744 -0.3750763 -3.8324127 -0.098220825 -5.182022 -0.59584045c-1.3496094 -0.4976349 -2.1813965 -1.1978455 -2.9156647 -2.3899384c-0.7342529 -1.1920929 -1.1642914 -1.7084198 -1.4898834 -4.762619c-0.32559204 -3.0541992 -0.38641357 -11.302155 -0.46368408 -13.562592" fill-rule="evenodd"/><path fill="#000000" fill-opacity="0.0" d="m240.93195 191.91852c0.60832214 1.539566 2.455719 5.1952667 3.649887 9.237381c1.1941833 4.0421143 2.6902924 10.322891 3.5151825 15.015289c0.8248749 4.6924133 1.0561981 8.888351 1.4341278 13.139145c0.37791443 4.2507935 0.6945038 10.304657 0.83340454 12.365585" fill-rule="evenodd"/><path stroke="#000000" stroke-width="2.9763779527559056" stroke-linejoin="round" stroke-linecap="butt" d="m240.93195 191.91852c0.60832214 1.539566 2.455719 5.1952667 3.649887 9.237381c1.1941833 4.0421143 2.6902924 10.322891 3.5151825 15.015289c0.8248749 4.6924133 1.0561981 8.888351 1.4341278 13.139145c0.37791443 4.2507935 0.6945038 10.304657 0.83340454 12.365585" fill-rule="evenodd"/><path fill="#cfe2f3" d="m221.30835 237.68007c0.020339966 -0.0010681152 1.4139404 -3.7654877 12.308029 -6.601242c10.894089 -2.8357544 41.68721 -8.938202 53.056473 -10.413254c11.369263 -1.4750519 15.115936 1.5343628 15.159119 1.5629272c0.043182373 0.028564453 -3.5104065 -2.8676605 -14.900024 -1.3915405c-11.389618 1.47612 -42.500412 7.441086 -53.437683 10.248276c-10.937271 2.8071747 -12.206268 6.5959015 -12.185913 6.5948334z" fill-rule="evenodd"/><path stroke="#000000" stroke-width="2.9763779527559056" stroke-linejoin="round" stroke-linecap="butt" d="m221.30835 237.68007c0.020339966 -0.0010681152 1.4139404 -3.7654877 12.308029 -6.601242c10.894089 -2.8357544 41.68721 -8.938202 53.056473 -10.413254c11.369263 -1.4750519 15.115936 1.5343628 15.159119 1.5629272c0.043182373 0.028564453 -3.5104065 -2.8676605 -14.900024 -1.3915405c-11.389618 1.47612 -42.500412 7.441086 -53.437683 10.248276c-10.937271 2.8071747 -12.206268 6.5959015 -12.185913 6.5948334z" fill-rule="evenodd"/><path fill="#000000" fill-opacity="0.0" d="m283.5246 172.49797c0.6720276 -1.5758667 2.8754272 -1.5568085 4.90094 -1.1871033c2.0255127 0.36968994 5.8125305 2.177658 7.2521057 3.4052887c1.4395447 1.2276154 1.5493469 2.9487762 1.3852844 3.9604492c-0.1640625 1.0116577 -0.67874146 1.4316254 -2.3696594 2.1095276c-1.6909485 0.6779175 -6.059265 1.9612885 -7.77594 1.9579468c-1.7166443 -0.0033416748 -1.9586182 -0.2702942 -2.5240784 -1.9779816c-0.5654602 -1.7076874 -1.5407104 -6.6922607 -0.86865234 -8.268127z" fill-rule="evenodd"/><path stroke="#000000" stroke-width="2.9763779527559056" stroke-linejoin="round" stroke-linecap="butt" d="m283.5246 172.49797c0.6720276 -1.5758667 2.8754272 -1.5568085 4.90094 -1.1871033c2.0255127 0.36968994 5.8125305 2.177658 7.2521057 3.4052887c1.4395447 1.2276154 1.5493469 2.9487762 1.3852844 3.9604492c-0.1640625 1.0116577 -0.67874146 1.4316254 -2.3696594 2.1095276c-1.6909485 0.6779175 -6.059265 1.9612885 -7.77594 1.9579468c-1.7166443 -0.0033416748 -1.9586182 -0.2702942 -2.5240784 -1.9779816c-0.5654602 -1.7076874 -1.5407104 -6.6922607 -0.86865234 -8.268127z" fill-rule="evenodd"/><path fill="#000000" fill-opacity="0.0" d="m235.46255 159.75827c0.97306824 2.7818604 4.0300446 11.584839 5.83844 16.691162c1.8084106 5.1063232 4.1766205 11.622314 5.0119476 13.946777" fill-rule="evenodd"/><path stroke="#000000" stroke-width="2.9763779527559056" stroke-linejoin="round" stroke-linecap="butt" d="m235.46255 159.75827c0.97306824 2.7818604 4.0300446 11.584839 5.83844 16.691162c1.8084106 5.1063232 4.1766205 11.622314 5.0119476 13.946777" fill-rule="evenodd"/><path fill="#000000" fill-opacity="0.0" d="m229.75943 161.04997c0.5482178 2.173645 1.9933624 7.847 3.2892456 13.041855c1.2958832 5.1948547 3.7383575 15.106079 4.486023 18.127289" fill-rule="evenodd"/><path stroke="#000000" stroke-width="2.9763779527559056" stroke-linejoin="round" stroke-linecap="butt" d="m229.75943 161.04997c0.5482178 2.173645 1.9933624 7.847 3.2892456 13.041855c1.2958832 5.1948547 3.7383575 15.106079 4.486023 18.127289" fill-rule="evenodd"/><path fill="#000000" fill-opacity="0.0" d="m194.26234 169.1147c0.6900177 2.5179443 2.7909088 10.080536 4.140091 15.10759c1.3491669 5.027054 3.2957916 12.545639 3.9549408 15.054764" fill-rule="evenodd"/><path stroke="#000000" stroke-width="2.9763779527559056" stroke-linejoin="round" stroke-linecap="butt" d="m194.26234 169.1147c0.6900177 2.5179443 2.7909088 10.080536 4.140091 15.10759c1.3491669 5.027054 3.2957916 12.545639 3.9549408 15.054764" fill-rule="evenodd"/><path fill="#000000" d="m180.79562 174.97046c0.57966614 1.2001953 0.52008057 1.0574188 0.8252411 5.104904c0.30516052 4.0474854 1.2793121 15.329239 1.0057526 19.179977c-0.2735443 3.8507233 -4.0142365 3.489334 -2.6470642 3.9243774c1.3671722 0.43504333 9.461365 -0.78619385 10.850113 -1.3140869c1.3887634 -0.52789307 -1.9397583 -0.49838257 -2.5175476 -1.8532715c-0.5777893 -1.3548737 -0.64863586 -2.7141876 -0.949173 -6.276016c-0.3005371 -3.5618286 -0.68492126 -11.670364 -0.8540802 -15.09491c-0.16915894 -3.4245605 -0.46318054 -4.113022 -0.16085815 -5.4523926c0.30233765 -1.3393707 2.5359344 -2.3340607 1.9748535 -2.583847c-0.5610962 -0.24978638 -3.6447296 0.7069855 -5.341385 1.085144c-1.6966705 0.37815857 -4.474289 0.637146 -4.8385925 1.1838379c-0.3643036 0.5466919 2.0730743 0.89608765 2.6527405 2.096283z" fill-rule="evenodd"/><path stroke="#000000" stroke-width="1.984251968503937" stroke-linejoin="round" stroke-linecap="butt" d="m180.79562 174.97046c0.57966614 1.2001953 0.52008057 1.0574188 0.8252411 5.104904c0.30516052 4.0474854 1.2793121 15.329239 1.0057526 19.179977c-0.2735443 3.8507233 -4.0142365 3.489334 -2.6470642 3.9243774c1.3671722 0.43504333 9.461365 -0.78619385 10.850113 -1.3140869c1.3887634 -0.52789307 -1.9397583 -0.49838257 -2.5175476 -1.8532715c-0.5777893 -1.3548737 -0.64863586 -2.7141876 -0.949173 -6.276016c-0.3005371 -3.5618286 -0.68492126 -11.670364 -0.8540802 -15.09491c-0.16915894 -3.4245605 -0.46318054 -4.113022 -0.16085815 -5.4523926c0.30233765 -1.3393707 2.5359344 -2.3340607 1.9748535 -2.583847c-0.5610962 -0.24978638 -3.6447296 0.7069855 -5.341385 1.085144c-1.6966705 0.37815857 -4.474289 0.637146 -4.8385925 1.1838379c-0.3643036 0.5466919 2.0730743 0.89608765 2.6527405 2.096283z" fill-rule="evenodd"/><path fill="#000000" fill-opacity="0.0" d="m308.23294 227.18547c0.5709839 -0.20753479 2.275055 -1.0072937 3.4258728 -1.2452393c1.1508179 -0.23794556 2.89917 -0.15202332 3.479004 -0.18243408" fill-rule="evenodd"/><path stroke="#000000" stroke-width="2.9763779527559056" stroke-linejoin="round" stroke-linecap="butt" d="m308.23294 227.18547c0.5709839 -0.20753479 2.275055 -1.0072937 3.4258728 -1.2452393c1.1508179 -0.23794556 2.89917 -0.15202332 3.479004 -0.18243408" fill-rule="evenodd"/></g></svg>
